<svg width="68" height="104" viewBox="0 0 68 104" fill="none" xmlns="http://www.w3.org/2000/svg"><g clip-path="url(#clip0_405_76)" fill="#74007A"><path d="M19.9 17.4h24.8c.2 0 .5-.2.5-.4l2-13.3c0-.1 0-.3-.1-.4-.1-.1-.2-.2-.4-.2H17.9c-.1 0-.3.1-.4.2-.1.1-.1.3-.1.4l2 13.3c0 .2.2.4.5.4zm2.2 1.6c-.8 0-1.5.7-1.5 1.5s.7 1.5 1.5 1.5 1.5-.7 1.5-1.5-.7-1.5-1.5-1.5zm0 1.9c-.3 0-.5-.2-.5-.5s.2-.5.5-.5.5.2.5.5-.3.5-.5.5zm21-1h-5.3c-.3 0-.5.2-.5.5s.2.5.5.5h5.3c.3 0 .5-.2.5-.5s-.2-.5-.5-.5zM20.6 78.4h23.9c1.1 0 1.9-.9 1.9-1.9 0-1-.9-1.9-1.9-1.9H20.6c-1.1 0-1.9.9-1.9 1.9 0 1 .8 1.9 1.9 1.9zm0-2.9h23.9c.5 0 .9.4.9.9s-.4.9-.9.9H20.6c-.5 0-.9-.4-.9-.9s.4-.9.9-.9zm0-3.1h23.9c1.1 0 1.9-.9 1.9-1.9 0-1-.9-1.9-1.9-1.9H20.6c-1.1 0-1.9.9-1.9 1.9 0 1 .8 1.9 1.9 1.9zm0-2.9h23.9c.5 0 .9.4.9.9s-.4.9-.9.9H20.6c-.5 0-.9-.4-.9-.9s.4-.9.9-.9zm23.9 11H20.6c-1.1 0-1.9.9-1.9 1.9 0 1 .9 1.9 1.9 1.9h23.9c1.1 0 1.9-.9 1.9-1.9 0-1-.9-1.9-1.9-1.9zm0 2.9H20.6c-.5 0-.9-.4-.9-.9s.4-.9.9-.9h23.9c.5 0 .9.4.9.9s-.4.9-.9.9z"/><path d="M66.1 94.1H63v-.7c0-.2-.1-.4-.3-.4L54 88.4V27c0-6.4-3.3-8.1-4.4-8.5l2.5-14.8c.2-.9-.1-1.9-.7-2.6C50.8.4 49.9 0 49 0H16.1c-.9 0-1.8.4-2.4 1.1-.6.7-.9 1.7-.7 2.6L15.4 18c-1.2.6-4.4 2.7-4.4 9v61.4L2.2 93c-.1.1-.2.2-.2.4v.7H1c-.6 0-1 .4-1 1v7.3c0 .6.4 1 1 1h10.5c.6 0 1-.4 1-1v-7.3c0-.5-.4-.9-.8-1l1.6-.8h39.1l2.5 1.2c-.1.2-.2.4-.2.6v7.3c0 .6.4 1 1 1h10.5c.6 0 1-.4 1-1v-7.3c-.1-.5-.5-1-1.1-1zM53 33.1H12v-5.6h41v5.6zm-41 1h41v11.5C48.4 62 38.1 64.4 32.3 64.4c-15 0-20.2-18.9-20.3-19.4V34.1zm2.5-32.3c.4-.5 1-.8 1.7-.8H49c.6 0 1.2.3 1.7.8.4.5.6 1.1.5 1.8L48 22c-.2 1.1-1.1 1.9-2.2 1.9H19.3c-1.1 0-2-.8-2.2-1.9L14 3.5c-.1-.6 0-1.2.5-1.7zm1.1 17.3l.5 3.1c.3 1.6 1.6 2.7 3.2 2.7h26.6c1.6 0 2.9-1.1 3.2-2.7l.4-2.7c1 .4 3.4 1.9 3.5 7H12c.2-5 2.5-6.8 3.6-7.4zm16.7 46.3c4.6 0 15.3-1.7 20.7-16.6v39.4H12V48.1c2.2 5.7 8.1 17.3 20.3 17.3zm-21.8 36H2v-5.3h8.5v5.3zm42-9.1H13.1c-.1 0-.2 0-.2.1l-3.3 1.8H3v-.4l8.7-4.5h41.8l8.7 4.5v.4h-5.6l-3.7-1.7c-.3-.2-.4-.2-.4-.2zm12.6 9.1h-8.5v-5.3h8.5v5.3z"/></g><defs><clipPath id="clip0_405_76"><path fill="#fff" d="M0 0h67.1v103.4H0z"/></clipPath></defs></svg>