<svg width="106" height="114" viewBox="0 0 106 114" fill="none" xmlns="http://www.w3.org/2000/svg"><g clip-path="url(#clip0_405_107)" fill="#74007A"><path d="M105.2 35.1c-.6-1.4-1.5-1.9-2.3-2.1-1.6-.4-3.6.4-6 2.3-1.6 1.3-3.2 2.4-4.7 3.4-1.1.4-2.5.8-3.9 1.3-3.2 1-11.9 1.5-14.1.3-.3-.2-.6-.5-.8-.8 0-.5.1-1 .2-1.6.7-3.2 1.6-7.2-.8-9.2-1.4-1.1-3.4-1.5-5.8-1-1.1-1-3-2.6-3.1-2.8-.2-.3-.5-.4-3.5-1.5-1.9-.7-3.2-2.7-4-4.1 0-4.6.7-10.3 1-11.6.3-1.3.4-4.2-1-6-.8-1-2-1.6-3.5-1.6-1.6 0-2.8.5-3.6 1.5-1.4 1.8-1.1 4.5-.7 6 .3 1.2.8 6.2 1 10.6-.5 1.2-2.1 4.3-4.5 5.1-3 1.1-3.3 1.3-3.5 1.5-.1.2-1.9 1.7-3 2.7-2.3-.3-4.1 0-5.4 1.1-2 1.6-1.6 4.3-1.1 7.5.1.5.2 1.1.2 1.6.1.4.1.7.1 1.1-.3.6-.6 1.2-1.2 1.5-2.2 1.3-10.9.8-14.1-.3-.3-.1-.7-.2-1-.3-3-1.5-5.4-2.9-7.2-4.3-2.4-1.9-4.4-2.7-6-2.3-.9.1-1.9.6-2.5 2-1.2 2.9 0 5.5 3.7 7.9 1.9 1.2 5.3 2.9 8.9 4.7 4.1 2.1 8.4 4.2 10.3 5.6 3.4 2.5 2.4 9.3 2.1 11.9-.1 1.1-.9 2.2-1.8 3.6-1.9 2.8-4.5 6.6-4.8 13.7-.7 12.4 3.2 18.2 10 24 7.9 6.7 18.5 7.4 22.7 7.4h3.3c3.9 0 13.9-.7 21.8-7.4 6.8-5.8 10.7-11.6 10-24-.4-7.1-3-10.9-4.8-13.7-.9-1.4-1.7-2.5-1.8-3.6-.4-2.6-1.3-9.4 2.1-11.9 1.9-1.4 6.2-3.5 10.3-5.6 3.6-1.8 7-3.5 9-4.7 3.8-2.4 5-4.9 3.8-7.9zm-4.8 6.2c-1.9 1.2-5.2 2.9-8.8 4.6C87.4 48 83 50.2 81 51.6c-3.9 2.8-3.6 8.8-2.9 13.8.2 1.5 1.1 2.9 2.2 4.4 1.8 2.7 4.1 6.1 4.5 12.6.6 11.6-2.8 16.8-9.3 22.3-9.2 7.8-21.9 6.9-22.1 6.9h-.2c-.1 0-13.8.9-23.1-6.9-6.5-5.5-9.9-10.7-9.3-22.4.3-6.5 2.6-9.9 4.5-12.6 1.1-1.6 2-2.9 2.2-4.4.7-4.9 1-11-2.9-13.8-2.1-1.5-6.4-3.7-10.6-5.8-3.5-1.8-6.9-3.4-8.8-4.6-4.1-2.6-3.3-4.6-2.9-5.4.3-.8.8-.9.9-.9.4-.1 1.7-.1 4.2 1.9 3.4 2.7 8.9 5.5 15.9 8.1 6.1 2.3 8.6-.5 9-1 .3-.3 2.2-2.8 1.7-6.6-.1-.6-.2-1.1-.2-1.6-.5-2.9-.7-4.8.4-5.6 1.7-1.4 4.8-.7 7 .2 2.2.8 6.2 2.3 8.2-1.7 1.4-2.9 2-4.5 2-9.1s-.7-10.8-1-12.4c-.4-1.9-.3-3.5.4-4.4.4-.5 1.1-.8 2-.8.9 0 1.5.3 2 .8.9 1.2.8 3.4.6 4.3-.4 1.6-1 7.8-1 12.4 0 4.6.6 6.2 2 9.1 2 3.9 6 2.5 8.2 1.7 2.3-.8 5.3-1.5 7-.2 1.4 1.1.9 3.9.2 7.2-1.1 5 1.3 6.6 2 6.9.5.4 2.6 1.5 7.3.9 5.5-.7 11.3-3.5 17.3-8.3 2.6-2 3.8-2 4.2-1.9.1 0 .6.2.9.9.2 1.1 1 3.1-3.1 5.7z"/><path d="M71.3 71.6c-1-.2-2.2-.4-3.5-.4-1.2 0-2.4.1-3.7.2-1.6-.2-3.5-1.3-4.9-2.3h.4c5.4 0 6.9-.5 7.6-.9 1.3-.7 2-1.8 2.2-3 .2-1.3-.3-2.5-1.4-3.6-.7-.7-1.4-1.2-2.1-1.7-.7-.5-1.4-1-2.3-1.8.9.1 1.7.1 2.5.1 2 0 3.4-.4 4-1.1.4-.5.5-1.2.3-1.9s-2.1-2.3-4.6-3.6C63.5 50.4 61.5 48 59 45c9.5-4.6 10-11.3 10-11.6 0-.6-.4-1-.9-1.1-.6 0-1 .4-1.1.9 0 .1-.4 5.8-8.9 9.9-.1.1-.2.1-.3.2-1.3-2.1-2.2-5.2-2.9-7.6-.6-2.2-1-3.4-1.5-3.9-.4-.5-1.1-.6-1.7-.4-1.2.4-2.6 2.1-3 5-.4 3.1-.8 4.5-1.8 6.9-.1-.1-.1-.1-.2-.1-8.4-4.1-9.1-9.8-9.1-10.1-.1-.5-.5-1-1.1-.9-.5 0-1 .5-.9 1.1 0 .3.7 7.1 10.2 11.7.1.1.2.1.3.1-1.5 2.7-7.2 6.2-9.7 7.7-.6.3-1 .6-1.2.8-.8.6-1.2 1.8-.8 2.9.3 1.1 1.2 1.7 2.2 1.7 1.4 0 3.4-.4 5.2-.8-.9.7-1.7 1.2-2.3 1.7-1.4 1-2.2 1.6-3.1 2.7-.8 1.1-1.1 2.5-.6 3.8.3.8 1.3 2.3 4 2.7 1.1.2 2.8.3 4.5.4-1 .8-2.4 1.7-3.8 2.3h-1.2c-1.7 0-3.3.2-4.6.6C30 73 26 79 26.2 84.8v.5c.1 5.8.3 16.7 13.7 20.4 3.8 1 7.7 1.6 11.7 1.6 9.2 0 16.4-2.8 19.8-5.1 5-3.5 8.1-9.5 8.3-16.1.2-5.8-1.9-13-8.4-14.5zM35.2 56.2c-.2-.6-.1-1.4.4-1.8.2-.1.6-.4 1.2-.7 3-1.8 9.1-5.6 10.3-8.6 1.4-3.4 1.9-4.8 2.5-8.5.3-2.4 1.4-3.9 2.3-4.2.3-.1.5 0 .7.2.4.4.8 2 1.2 3.5.8 2.9 1.8 6.5 3.6 8.7l.3.4c2.7 3.3 4.8 6 7.4 7.3 2.6 1.3 4 2.7 4.1 3.1.1.3.2.6-.1.9-.3.4-1.7 1.2-7 .5-.5-.4-1-.9-1.6-1.5l-1.8-1.8c-2.8-2.9-4-4.2-8.3-2.8-.1 0-.2.1-.3.2 0 0-3.4 2.7-6.5 5.1h-.1c-1.8.4-5.1 1.2-7 1.2-.9-.2-1.2-.9-1.3-1.2zm2.4 8.7c-.2-.6-.1-1.3.3-1.8.7-1 1.4-1.4 2.7-2.3.7-.5 1.6-1.2 2.8-2.1 3-2.3 7-5.4 7.8-6.1.9-.3 1.5-.4 2-.4 1.3 0 2 .7 4 2.8.5.5 1.1 1.2 1.8 1.9 2.7 2.6 4.3 3.8 5.5 4.7.7.5 1.3 1 1.9 1.6.6.6.9 1.3.8 1.9-.1.7-.7 1.2-1.2 1.5-.3.1-1.5.6-6.6.6-3 0-5.7-.2-5.8-.2-.1 0-10.1 0-13.7-.6-1.1-.3-2-.8-2.3-1.5zm8.2 3.9c3.7.1 7.4.2 7.8.2 0 0 1.7.1 3.8.1 1 .8 2.5 1.9 4.1 2.6-2.3.2-5 .4-8 .4-2.9 0-5.8-.2-8.8-.6-.1 0-1-.2-2.3-.4 1.4-.7 2.6-1.7 3.4-2.3zm31.9 17.1c-.2 6-3 11.4-7.5 14.5-3.2 2.2-9.9 4.8-18.6 4.8-3.8 0-7.6-.5-11.2-1.5-11.9-3.3-12.1-12.8-12.2-18.5v-.5c-.1-4.8 3.2-10.1 7.2-11.3 1.1-.3 2.5-.5 4-.5 2.6 0 4.9.5 5 .5 3.1.4 6.1.6 9.1.6 3.5 0 6.5-.3 9.1-.5 3.5-.3 6.2-.5 8.3 0 5.2 1.3 6.9 7.5 6.8 12.4z"/><path d="M49.3 97.2l-.7-.2c-3.2-.8-9.2-2.3-9.3-10.1 0-7 6.2-7.4 6.3-7.4.3 0 .5-.2.5-.5s-.2-.5-.5-.5c0 0-2.9.1-5.1 2.3-1.5 1.5-2.2 3.6-2.2 6.1 0 8.6 6.8 10.3 10 11.1l.6.2h.1c.2 0 .4-.1.5-.4.2-.3 0-.5-.2-.6zM33.8 80.8c.1-.1.1-.3.1-.5-.1-.3-.4-.4-.6-.3-.3.1-.4.4-.4.6-.4 1.5-1.5 8.3 1.6 11.9.1.1.2.2.4.2.1 0 .2 0 .3-.1.2-.2.2-.5.1-.7-3-3.2-1.9-10.2-1.5-11.1zm26.7-2.9c-.3-.1-.5.1-.6.3-.1.3.1.5.3.6 0 0 4.2 1.3 5.2 4.8 1.4 4.6 1.4 9.4-7.9 13.5-.3.1-.4.4-.3.7.1.2.3.3.5.3h.2c10-4.4 9.9-9.9 8.4-14.7-1.1-4-5.6-5.4-5.8-5.5z"/><path d="M53 82.5c-.2 0-4.8-.4-5.8 2.1-1.1 2.6.2 5.8 2.9 7.3.1 0 .2.1.2.1.2 0 .3-.1.4-.3.1-.2.1-.5-.2-.7-2.2-1.2-3.3-3.9-2.4-6 .6-1.6 3.7-1.6 4.8-1.5.3 0 .5-.2.5-.5.1-.2-.1-.5-.4-.5z"/></g><defs><clipPath id="clip0_405_107"><path fill="#fff" d="M0 0h105.7v113.8H0z"/></clipPath></defs></svg>