<svg width="83" height="105" viewBox="0 0 83 105" fill="none" xmlns="http://www.w3.org/2000/svg"><g clip-path="url(#clip0_405_99)" fill="#74007A"><path d="M26.1 2.2c-.4-.2-.9-.4-1.5-.7C21.2.1 16.1-.8 9.3.8 3.3 2.3.3 5.1.2 5.2c-.2.2-.2.4-.1.6 0 0 1.4 2.4 2.5 4.1.7 1.1 6 8.7 7.8 11.2-.1.2-.2.5-.2.8v7.4c0 .9.6 1.6 1.4 1.7-.1.1-.1.2-.1.3-.1.2-5.1 23.9-4.5 38.4.4 12.3 2.4 20.9 3.7 26.7.4 1.7.7 3.1.9 4.3.4 2 2.1 3.4 4.1 3.4 2 0 3.8-1.5 4.1-3.5.2-1.2.5-2.6.8-4.3C22 89.6 24 79.5 24 69.5c-.1-9.9-2.6-28.3-3.6-35.3-.2-1.4-.4-2.6-.4-2.7 0-.2-.1-.4-.2-.5.8-.2 1.4-.9 1.4-1.7V22c0-.4-.1-.7-.3-1l9.2-14.7c.1-.2.1-.4 0-.6 0-.1-1.9-2.5-4-3.5zm-4 67.4c.1 9.8-2 19.8-3.3 26.4-.3 1.7-.6 3.1-.8 4.3-.2 1.1-1.1 1.8-2.2 1.8s-2-.8-2.2-1.8c-.2-1.3-.6-2.7-1-4.4-1.3-5.6-3.2-14.2-3.7-26.1-.5-12.8 3.5-32.9 4.3-37.2h5c.1.4.1 1.1.3 2 .9 6.9 3.5 25.3 3.6 35zm-1.8-40.2c0 .4-.4.8-.8.8H15v-1.6h3.5c.6 0 1-.4 1-1s-.4-1-1-1H15V25h3.5c.6 0 1-.4 1-1s-.4-1-1-1H15v-1.8h4.6c.4 0 .8.4.8.8v7.4h-.1zm-.1-9c-.2-.1-.4-.1-.7-.1H18l.3-2.7c0-.3-.2-.5-.4-.6-.3 0-.5.2-.6.4l-.3 2.9h-3l-1.3-5.8c-.1-.3-.3-.4-.6-.4-.3.1-.4.3-.4.6l1.2 5.6h-1c-.3 0-.6.1-.9.2-1.9-2.7-7-10-7.7-11.1-.9-1.3-1.8-3-2.3-3.7.6-.3 1.5-1.1 3-1.8l1.8 4c.1.2.3.3.5.3h.2c.2-.2.3-.5.2-.7l-1.8-4c1.3-.6 2.8-1.2 4.7-1.6.6-.1 1.2-.3 1.8-.4l.4 3c0 .3.2.4.5.4h.1c.3 0 .5-.3.4-.6l-.4-3c4.9-.7 8.7 0 11.5 1l-2.3 5.8c-.1.3 0 .5.3.6h.2c.2 0 .4-.1.5-.3l2.3-5.8c.3.1.6.3.9.4 1.5.7 2.9 2.3 3.5 2.9l-9.1 14.5z"/><path d="M13.2 50.4c-.3 0-.5.1-.6.4 0 .2-2.4 16.1 0 28.4 0 .2.3.4.5.4h.1c.3-.1.4-.3.4-.6-2.4-12.1 0-27.9 0-28.1.1-.2-.1-.4-.4-.5zm3.4-46.8c-.3 0-.5.2-.5.5v2.6c0 .3.2.5.5.5s.5-.2.5-.5V4.1c0-.3-.2-.5-.5-.5zm64.8 70.6c.6 0 1-.4 1-1v-3.1c0-3.5-2.8-6.3-6.3-6.3H40.2c-3.5 0-6.3 2.8-6.3 6.3v3.1c0 .6.4 1 1 1H36v2h-1.1c-.6 0-1 .4-1 1v20.7c0 3.5 2.8 6.3 6.3 6.3h35.9c3.5 0 6.3-2.8 6.3-6.3V77.2c0-.6-.4-1-1-1h-1.1v-2h1.1zm-1 22.7H40.1c-.3 0-.5.2-.5.5s.2.5.5.5h40.3c0 2.4-1.9 4.3-4.3 4.3H40.2c-2.4 0-4.3-1.9-4.3-4.3V78.2h44.5v18.7zm-2.1-22.3v.9H38v-.9h40.3zm-42.4-4.5c0-2.4 1.9-4.3 4.3-4.3h35.9c2.4 0 4.3 1.9 4.3 4.3v2.1H35.9v-2.1z"/><path d="M39.5 93.5c.3 0 .5-.2.5-.5V81.4c0-.3-.2-.5-.5-.5s-.5.3-.5.5V93c0 .3.2.5.5.5zm.6-25.9s-1.1.8-1.1 2.5c0 .3.2.5.5.5s.5-.2.5-.5c0-1.2.7-1.6.7-1.7.2-.2.3-.5.1-.7-.1-.2-.4-.2-.7-.1z"/></g><defs><clipPath id="clip0_405_99"><path fill="#fff" d="M0 0h82.4v104.2H0z"/></clipPath></defs></svg>