<svg width="100" height="96" viewBox="0 0 100 96" fill="none" xmlns="http://www.w3.org/2000/svg"><g clip-path="url(#clip0_405_115)" fill="#74007A"><path d="M83.256 73.998c-3.07-3.103-6.326-6.3-12.093-7.71-4.093-1.034-10.14-.752-15.535-.564-3.163.094-6.14.282-8.186.094-1.581-.094-3.163-.376-4.744-.658-2.698-.376-5.302-.752-7.535-.659-2.046-1.034-5.767-5.83-9.395-10.53-1.489-1.88-2.977-3.855-4.465-5.736-2.698-3.29-5.21-4.983-7.535-5.171-1.024-.094-1.768.188-2.233.47-3.256-2.821-5.767-4.513-9.21-3.385-.092 0-.092 0-.185.094-.837.47-1.396 1.034-1.582 1.88-.372 1.317.372 2.54.93 3.48-.465.281-.837.657-1.209 1.128-.93 1.41.651 5.171 4.838 11.283 2.418 3.479 16.837 21.061 20.186 25.01 3.348 3.95 5.674 5.266 5.767 5.266.093 0 .186.094.28.094.185 0 19.72 2.727 25.115 4.325 1.582.47 2.884.846 4.093 1.128 2.512.659 4.559 1.317 5.024 1.693.186.188.465.282.744.282.186 0 .465-.094.651-.188.372-.376.465-.94.093-1.316-.744-.94-2.512-1.41-5.953-2.351a71.664 71.664 0 01-4-1.128c-5.396-1.599-23.07-4.043-25.21-4.326-.465-.282-2.418-1.598-5.023-4.795C23.72 77.948 9.116 60.27 6.79 56.885c-3.163-4.607-4.93-8.368-4.837-9.214.372-.564 1.209-1.505 4.558-.282 2.698 1.034 5.581 5.171 7.72 8.18.373.564.745 1.034 1.024 1.505 1.395 1.974 5.86 5.923 7.721 7.522 3.349 2.914 5.023 4.23 5.86 4.795v.564c0 2.069 1.396 3.667 3.256 3.855l4.186.47c.651.188 6.884 1.599 11.442 2.82 4.651 1.223 13.954 6.019 14.047 6.019.093.094.279.094.465.094.372 0 .65-.188.837-.47.28-.47.093-1.035-.372-1.223-.372-.188-9.581-4.89-14.419-6.206-4.744-1.222-11.442-2.82-11.535-2.82h-.093l-4.279-.47c-1.116-.094-1.581-1.129-1.581-1.975 0-1.787.558-2.727 2.046-3.29 2.419-.941 5.954-.377 9.768.187 1.581.282 3.256.47 4.837.658 2.14.188 5.21.094 8.372-.094 5.21-.188 11.163-.47 14.977.47 5.302 1.317 8.186 4.232 11.256 7.24.465.47.93.847 1.302 1.317a.893.893 0 001.302 0 .916.916 0 000-1.317c-.558-.376-1.023-.846-1.395-1.222zm-54.14-6.394c-2.697-2.068-10.697-9.026-12.465-11.47-.279-.47-.65-.941-1.023-1.505-2.232-3.197-5.302-7.616-8.558-8.839-1.488-.564-2.698-.752-3.72-.658l-.094-.094c-.465-.752-1.116-1.786-.93-2.35 0-.094.093-.377.558-.659 2.884-.94 4.837.659 9.21 4.702 2.51 2.256 5.395 6.017 8 9.308 1.953 2.445 3.627 4.607 4.743 5.642.186.188.372.282.652.282.279 0 .465-.094.65-.282.373-.376.28-.94-.092-1.317-1.024-.94-2.605-3.008-4.558-5.36-2.605-3.29-5.675-7.145-8.186-9.496l-.28-.282h.559c1.209.094 3.255.94 6.14 4.42 1.487 1.786 2.976 3.76 4.371 5.641 3.163 4.137 5.954 7.804 8.186 9.779-.186.094-.372.094-.465.188-1.21.376-2.14 1.128-2.698 2.35z"/><path d="M99.907 25.575a.511.511 0 00-.465-.282h-3.349c-3.348 0-7.348 1.316-8.93 1.974.186-1.128.28-1.974.28-1.974a.518.518 0 00-.28-.47c-.186-.094-.372-.094-.558.094 0 0-1.86 1.692-3.535 2.632-.651.377-1.86.847-3.163 1.505.838-1.41 1.86-3.855 1.86-7.334 0-1.41-.185-2.82-.278-4.231-.186-1.693-.28-3.385-.186-4.607.279-2.351 1.209-4.796 1.209-4.796.093-.188 0-.47-.186-.564a.568.568 0 00-.651.094c0 .094-3.442 4.89-6.605 6.488-.372.188-.93.47-1.581.752-1.117.564-2.605 1.222-4.093 1.975-.28-.847-.838-2.54-1.489-3.761-1.488-2.445-2.232-3.48-3.349-4.89-.279-.376-.65-.846-1.023-1.316-2.14-2.82-4.65-6.582-4.65-6.676-.094-.188-.28-.282-.559-.188-.186.094-.28.282-.28.564 0 0 .28 1.505-.371 3.385-.465 1.505-1.489 2.539-2.605 3.667-.744.752-1.488 1.504-2.232 2.539-1.303 1.786-3.907 6.864-4 7.146v.188a89.182 89.182 0 00-5.396-2.633 28.718 28.718 0 01-1.581-.752c-3.163-1.599-6.605-6.488-6.605-6.488-.093-.188-.372-.282-.651-.094-.279 0-.279.282-.186.47 0 0 1.023 2.445 1.21 4.795.092 1.223 0 2.821-.187 4.608-.093 1.41-.279 2.82-.279 4.23-.093 3.48 1.21 6.207 2.14 7.711-1.768-.752-3.442-1.41-4.186-1.88-1.768-.94-3.721-2.54-3.814-2.633-.186-.094-.372-.188-.558-.094a.518.518 0 00-.28.47s.093.752.28 1.88c-1.303-.47-5.582-1.786-7.907-1.88-2.698-.094-3.256 0-3.35 0-.185 0-.278.188-.371.282-.093.094 0 .376.093.47 0 0 3.814 3.855 5.395 10.437.372 1.598 2.326 9.59 3.721 12.505 1.581 3.385 5.488 7.24 12 8.087 2.512 1.598 5.86 2.632 9.21 2.632 2.418 0 4.743-.47 6.883-1.692.093-.094.186-.094.186-.188 1.302.564 2.605.846 3.907.846 1.395 0 2.698-.376 3.814-.846 1.953 1.128 4.465 1.692 7.07 1.692 3.255 0 6.511-.846 8.93-2.539.093.095.186.095.279.095h.093c6.512-.847 10.512-4.796 12.093-8.087 1.395-3.009 3.349-11 3.721-12.505 1.581-6.582 5.302-10.437 5.395-10.437.093 0 .093-.188 0-.376zm-25.953-9.873c.651-.282 1.21-.564 1.581-.752 1.954-.94 4-3.103 5.303-4.701-.186.752-.372 1.598-.465 2.444-.094 1.317 0 3.01.185 4.796.093 1.316.187 2.726.28 4.137.093 5.077-2.512 7.992-2.512 7.992v.094l-1.953.846c-1.303.564-2.605 1.129-3.722 1.599-3.07 1.316-4.837 3.573-5.395 4.419-.93-2.163-1.953-4.513-2.977-6.864-.93-2.163-1.953-4.42-2.79-6.488 2.511-2.82 9.023-5.923 12.465-7.522zm-24.28 2.069c0-.094 2.605-5.266 3.908-6.958a30.29 30.29 0 012.14-2.445c1.116-1.222 2.232-2.256 2.79-4.043.28-.846.372-1.598.465-2.256.93 1.41 2.512 3.573 3.814 5.453.372.47.744.94 1.023 1.316 1.117 1.505 1.86 2.351 3.256 4.796.744 1.222 1.303 3.008 1.489 3.76-2.884 1.505-5.86 3.292-7.535 4.984-1.024-2.539-1.86-4.89-2.047-6.488 0-.188-.186-.376-.372-.376a.51.51 0 00-.465.282c0 .094-1.023 3.103-2.326 6.394-1.488-1.504-3.907-2.915-6.232-4.231 0-.094 0-.094.093-.188zm-13.58 3.855c0-1.41.092-2.82.279-4.137.186-1.787.279-3.48.186-4.796-.093-.846-.28-1.692-.466-2.444 1.396 1.598 3.35 3.667 5.303 4.701.372.188.93.47 1.581.752 3.442 1.599 9.768 4.607 12.465 7.428-.65 1.599-1.302 3.197-1.953 4.42-.93 1.88-2.233 5.17-3.442 8.838v.094c-.651-.846-2.512-3.009-5.674-4.325-1.21-.47-2.605-1.035-4-1.599a18.16 18.16 0 01-1.303-.564c-.558-.564-2.977-3.667-2.977-8.368zm-8.93 27.08c-1.303-2.916-3.257-10.814-3.629-12.412a25.577 25.577 0 00-4.93-10.155h2.233c2.604.188 8 2.069 8 2.069h.093c0 .188.093.47.093.658-1.117-.47-4.28-1.505-7.907-1.505 0 0 3.255 4.796 4.744 10.343 1.116 4.043 2.418 9.497 4.372 11.941 1.488 1.975 3.442 2.727 4.279 3.01.651 1.316 1.395 2.444 2.233 3.29-5.117-1.222-8.28-4.607-9.582-7.24zm10.883 7.145c-4-3.009-6.512-14.48-6.79-16.642-.187-1.599-1.21-9.873-1.675-12.882.744.564 1.953 1.41 3.07 1.975 1.116.564 3.255 1.504 5.767 2.444.465.188.93.376 1.488.565 1.396.564 2.698 1.128 4 1.598 3.721 1.598 5.582 4.325 5.582 4.325 0 .094.093.094.186.188-1.116 3.48-1.954 6.582-2.14 8.462-.465 3.855.558 6.864 3.256 9.309-.651.188-2.046.282-4.651-.94-4.28-1.975-6.884-7.428-6.79-7.24 1.767 6.958 6.51 9.12 8.278 9.684 1.489.47 4.28.094 5.117 0 .186.094.372.282.558.377l.558.282c-5.116 2.726-12.093 1.41-15.814-1.505zm15.628.564c-4.28-2.632-5.86-5.83-5.302-10.343.279-1.974 1.209-5.453 2.511-9.402 1.21-3.573 2.512-6.864 3.442-8.65 1.488-3.01 3.256-7.805 4.093-10.25.837 3.198 2.884 7.71 4.93 12.412 2.512 5.548 5.024 11.283 5.303 14.386.558 5.266-1.024 9.215-4.28 11.283-1.674 1.034-3.627 2.069-5.953 2.069-1.488 0-3.07-.564-4.744-1.505zm9.674 1.035c.372-.189.744-.47 1.117-.659.93.094 3.534.377 4.93-.094 1.767-.564 6.418-2.726 8.279-9.684.093-.282-2.512 5.265-6.79 7.24-2.42 1.128-3.722 1.128-4.466 1.034 1.86-1.786 3.72-5.077 3.163-10.907-.186-1.692-.93-4.137-2.047-6.864.093 0 .093-.094.186-.188 0 0 1.675-2.82 5.21-4.325a63.31 63.31 0 003.72-1.599c2.884-1.222 5.582-2.444 6.791-3.102 1.024-.564 2.14-1.317 2.79-1.975-.371 3.103-1.394 11.19-1.58 12.882-.28 2.256-2.698 13.633-6.42 16.642-3.534 3.103-10.418 3.761-14.883 1.599zm30.233-21.156c-.372 1.598-2.233 9.496-3.628 12.411-1.302 2.821-4.837 6.394-10.419 7.428.838-.846 1.675-2.162 2.326-3.573 1.21-.282 3.72-1.128 5.116-3.009 2.14-2.914 3.442-6.77 4-10.907.837-6.863 4-11.377 4-11.377-3.72 0-6.79 1.129-8 1.505 0-.188.093-.376.093-.564 1.116-.47 5.582-2.069 9.116-2.069h2.326c-1.302 1.599-3.72 5.078-4.93 10.155z"/></g><defs><clipPath id="clip0_405_115"><path fill="#fff" d="M0 0h100v96H0z"/></clipPath></defs></svg>