<svg width="67" height="87" viewBox="0 0 67 87" fill="none" xmlns="http://www.w3.org/2000/svg"><path d="M31.4 51.8c.1.1.2.1.3.1.2 0 .3-.1.4-.2.2-.2.1-.5-.1-.7l-2-1.4c-.2-.2-.5-.1-.7.1-.2.2-.1.5.1.7l2 1.4zm2.4.2c.1 0 .2 0 .3-.1l1.9-1.5c.2-.2.3-.5.1-.7-.2-.2-.5-.3-.7-.1l-1.9 1.5c-.2.2-.3.5-.1.7.1.1.3.2.4.2zm3.9 5.2l-2.7-.5c-.3-.1-.6 0-.8.2l-.8.7-1-.7c-.2-.2-.5-.2-.8-.2l-2.4.6c-.5.1-.9.7-.7 1.2.1.5.7.9 1.2.7l1.9-.5 1.3.9c.2.1.4.2.6.2.2 0 .4-.1.6-.2l1.1-.9 2.2.5c.5.1 1.1-.2 1.2-.8 0-.5-.4-1-.9-1.2zm-3.3 4c-.4.2-1.6.1-2.5-.1-.5-.1-1.1.3-1.2.8-.1.5.3 1.1.8 1.2.3.1 1.2.2 2 .2.6 0 1.2-.1 1.6-.3.5-.2.7-.8.5-1.3-.1-.5-.7-.7-1.2-.5z" fill="#74007A"/><path d="M66.4 53.3c-.4-1.9-1.7-4.8-3.3-7.6-1.1-2-2.4-7.9-3-10.7 1.2-4 2.1-9.4.5-13.1-.9-2.2-2.7-4.6-4.8-6.9C53.1 6.4 44.6 2.3 44.2 2.1c-.4-.1-8.6-4.1-19.4-.8C14.4 4.4 10.7 13.2 9.7 16.5c-3.3 4-5.8 8.6-6.1 12.2-.3 3.9.8 7.1 2.2 9.5-.4 1.7-1.2 5.5-2.4 7.5C1.8 48.5.6 51.4.1 53.3c-.5 1.9.2 4 .2 4.1 0 .1.1.2.2.3.2.1 4.8 3.2 8.3 4.1 3.5.9 7 1.7 9.9 1.7h.4l1.4 1.4v8.3C13 76.5 6.7 79.9 6.6 79.9c-.2.1-.3.4-.2.7.1.2.3.3.4.3.1 0 .2 0 .2-.1 0 0 3.8-2.1 9-4.5v.2c.1.2 2.6 5.6 7.5 8.1 3.1 1.5 6.2 2.3 9.4 2.3 2.1 0 4.2-.3 6.4-.9 6.3-1.8 10.4-6.4 12.3-9.2 3.9 1.7 7.6 3.3 8 3.6.1.1.2.1.3.1.1 0 .3-.1.4-.2.2-.2.2-.5 0-.7-.7-.6-11-4.9-13.7-6V64c.2-.2.4-.3.5-.5h.4c3 0 6.4-.8 9.9-1.7 3.5-.9 8.1-3.9 8.3-4.1.1-.1.2-.2.2-.3.3-.1 1-2.2.5-4.1zM52.1 51c-.2.1-.4.2-.4.4-2 2.3-4.6 3.5-4.7 3.5-.3.1-.4.4-.2.7.1.2.3.3.5.3h.2c.1-.1 2.2-1 4.1-2.8l-.3 3.6c-.1.6-.3 1.2-.6 1.7-.5.7-2.3 2.7-3.1 3.5-1.5 1.6-7.3 6.6-9 7.2-1.6.6-5.4.9-8.6.2-3-.7-7.6-4.3-7.6-4.3l-4.9-4.6c-.8-.8-1.4-1.9-1.6-3l-.7-4.3c2 1.8 4.3 2.8 4.4 2.9h.2c.2 0 .4-.1.5-.3.1-.3 0-.5-.3-.7-.1 0-5.3-2.3-6.8-6.5-.8-2.2-1.9-4.8-2.5-6.1 0-.1.1-.1.1-.2v-.3s0-2.2.4-5.1h1.4s.1 1 1.1 6.1c.6 3.2 4 3.6 4 3.6h9c1 0 1.8-.6 2.2-1.4l2.2-5.7c.3-.9 1.2-1.4 2.1-1.4.9 0 1.8.6 2.1 1.4l2.1 5.6c.4.9 1.2 1.4 2.1 1.5 2.8.1 8.7.2 10.5 0 2.9-.4 3.5-3.4 3.5-3.4v-5.9h1.6c.7 2.3.8 3.5.8 3.6 0 .4.3.6.6.8-.6 1.3-1.8 4.2-2.6 6.6-.4.9-1 1.9-1.8 2.8zM9.2 42.5s.1.1.2.1l.1.1c.1 0 .2 0 .3.1.5 1 1.3 2.8 2 4.6-.5-.2-1-.4-1.5-.7-1.8-1.2-2.8-4.3-2.9-6.2.9 1.2 1.7 2 1.8 2zm2.5-8.3c.6-3 1.7-6.2 3.6-8.7 4.2-5.5 10.5-7.1 11.3-7.3h12.5c.8.1 8.8 1.3 13.1 10.9.9 1.9 1.5 3.6 2 5.1H11.7zm45.9 7c.2-.1.4-.3.5-.5 0 0 .6-1.4 1.3-3.5.3 1 .1 5.8-2.2 7.8-.5.4-1.1.7-1.6.8.8-2.1 1.7-4 2-4.6zm-32.5-39C35.5-.9 43.7 3 43.8 3c.1 0 7.1 3.4 10.3 10.2-3.8-3.5-8.3-6.3-12.1-6.7h-.1C36.9 6 26.4 5 18.1 9.4c-2.3 1.2-4.5 3-6.6 5.1 1.7-3.9 5.5-9.8 13.6-12.3zM5.6 28.9c.5-5.6 7.1-14.3 13.4-17.7C26.8 7 36.8 8 41.7 8.5h.1c5.9.6 14.7 8.6 17 14.1 1.7 4-.2 10.8-1.5 14.7-.5-2-1.5-5-3.3-9-4.9-11-14.4-12.1-14.9-12.1H26.3c-.3.1-7.6 1.6-12.6 8.1-3.6 4.6-4.5 11.4-4.8 15-1.5-2.1-3.7-5.8-3.3-10.4zM11 61.2v-.1c-.4-1-.4-3-.4-3 0-.3-.2-.5-.5-.5s-.5.2-.5.5c0 .1.1 1.7.4 2.8-.2-.1-.5-.1-.7-.2-1.2-.3-2.5-.9-3.7-1.5-.4-.8-.7-2-.4-3.8 0-.3-.1-.5-.4-.6-.3 0-.5.1-.6.4-.2 1.4-.1 2.5.1 3.3-1.4-.7-2.5-1.4-2.9-1.7-.1-.5-.5-2-.1-3.4.4-1.8 1.6-4.6 3.2-7.3.9-1.5 1.6-3.9 2-5.8 0 2.2 1.2 5.7 3.3 7.1.8.6 2 1 2.5 1.1v.1c.4 1.1 1 2.1 1.7 2.9l.9 5.7c.2 1.4.9 2.6 1.9 3.6l1.5 1.4c-2.3.1-4.8-.4-7.3-1zm28.3 23.7C34 86.4 29 86 24.3 83.6c-4.6-2.3-7-7.5-7-7.6 0-.1-.1-.1-.2-.2 1.1-.5 2.4-1.1 3.6-1.6v.2c.1.2 3.5 5.7 11 6h1.2c6.3 0 11-2 13.7-5.9 1.3.5 2.8 1.2 4.3 1.8-1.8 2.6-5.7 6.9-11.6 8.6zm6.5-11.1v.2c-3.4 4.7-9.5 5.5-14 5.3-6.4-.3-9.6-4.7-10.1-5.4v-8.2c.4.3 4.8 3.8 8 4.5 1.4.3 3 .5 4.4.5 2 0 3.7-.3 4.8-.7 1.3-.5 4.5-3.1 6.9-5.2v9zm19.5-16.9c-.3.2-1.2.8-2.3 1.4.6-2.5-.4-3.8-.5-3.9-.2-.2-.5-.3-.7-.1-.2.2-.3.5-.1.7 0 .1 1 1.4 0 4-1.4.7-2.9 1.4-4.2 1.7-.1 0-.2 0-.2.1.3-1.8-.2-2.9-.3-3-.1-.2-.4-.3-.7-.2-.2.1-.3.4-.2.7 0 0 .5 1 .1 2.7-2.8.7-5.4 1.2-7.8 1.3.8-.9 2.6-2.8 3.1-3.5.4-.6.7-1.4.8-2.2l.5-4.8c.9-1 1.6-2.2 2.1-3.6.1-.4.3-.8.4-1.2.4-.1 1.8-.4 2.7-1.2 1.4-1.2 2.1-3.3 2.4-5.2.6 2.3 1.2 4.5 1.9 5.6 1.5 2.8 2.8 5.6 3.2 7.3.3 1.4-.1 2.9-.2 3.4z" fill="#74007A"/><path d="M26.6 70.9c-.1-.2-.4-.3-.7-.2-.2.1-.3.4-.2.7l3.1 5.7c.1.2.3.3.4.3.1 0 .2 0 .2-.1.2-.1.3-.4.2-.7l-3-5.7zm-9.9-44.3c-.3 0-.5.2-.5.5v4.7c0 .3.2.5.5.5s.5-.2.5-.5v-4.7c0-.3-.2-.5-.5-.5z" fill="#74007A"/></svg>