<svg width="58" height="97" viewBox="0 0 58 97" fill="none" xmlns="http://www.w3.org/2000/svg"><g clip-path="url(#clip0_405_94)" fill="#74007A"><path d="M23.9 4.7H6.6c-1 0-1.8.8-1.8 1.8v3.6h-.2C2 10.1 0 12.2 0 14.7v2.6c0 2.5 2.1 4.6 4.6 4.6H10c1.4 0 2.6 1.2 2.6 2.6v7.2H11c-.3 0-.5.2-.5.5v2.4H9.3c-.6 0-1 .4-1 1v59.5c0 .6.4 1 1 1H18c.6 0 1-.4 1-1V35.6c0-.6-.4-1-1-1h-1.3v-2.4c0-.3-.2-.5-.5-.5h-1.5v-7.2c0-2.5-2.1-4.6-4.6-4.6H4.6c-1.4 0-2.6-1.2-2.6-2.6v-2.6c0-1.4 1.2-2.6 2.6-2.6h.2v3.6c0 1 .8 1.8 1.8 1.8h17.3c1 0 1.8-.8 1.8-1.8V6.5c-.1-1-.9-1.8-1.8-1.8zM17 94.1h-6.7V36.6H17v57.5zm7.6-78.4c0 .4-.3.8-.8.8H6.6c-.4 0-.8-.3-.8-.8V6.5c0-.4.3-.8.8-.8h17.3c.4 0 .8.3.8.8v9.2h-.1z"/><path d="M8.3 6.8c-.2 0-.5.2-.5.5v7.3c0 .3.2.5.5.5s.5-.2.5-.5V7.3c0-.3-.2-.5-.5-.5zm48 87.9h-5.8V74.2h5.8c.6 0 1-.4 1-1s-.4-1-1-1H53V23.3c0-.3-.2-.5-.5-.5H51v-6.2c0-.6-.4-1-1-1h-2.1V.5c0-.3-.2-.5-.5-.5s-.5.2-.5.5v15.1h-2.1c-.6 0-1 .4-1 1v6.2H42c-.3 0-.5.2-.5.5v48.9h-3.1c-.6 0-1 .4-1 1s.4 1 1 1h6v20.5h-6c-.6 0-1 .4-1 1s.4 1 1 1h17.9c.6 0 1-.4 1-1s-.5-1-1-1zM45.8 20.2H49v1.6h-3.2v-1.6zm3.2-1.8v.8h-3.2v-.8H49zm-6.5 29.4h1.8V50h-1.8v-2.2zM52 50h-6.7v-2.2H52V50zm0-26.1v23h-6.7v-21c0-.3-.2-.5-.5-.5s-.5.2-.5.5v20.9h-1.8v-23H52v.1zm-9.5 31.6h1.8V69c0 .3.2.5.5.5s.5-.2.5-.5V55.5H52v16.7h-9.5V55.5zm2.8 18.7h4.2v20.5h-4.2V74.2z"/></g><defs><clipPath id="clip0_405_94"><path fill="#fff" d="M0 0h57.3v96.7H0z"/></clipPath></defs></svg>