<svg width="431" height="606" viewBox="0 0 431 606" fill="none" xmlns="http://www.w3.org/2000/svg"><g opacity=".5" stroke="#F44AAF" stroke-opacity=".3" stroke-miterlimit="10"><path d="M416.227 829.064c228.664 0 414.032-185.368 414.032-414.032S644.891 1 416.227 1C187.564 1 2.195 186.368 2.195 415.032s185.369 414.032 414.032 414.032z" stroke-width=".901"/><path d="M416.228 803.001c214.269 0 387.968-173.7 387.968-387.969S630.497 27.063 416.228 27.063c-214.27 0-387.97 173.7-387.97 387.969s173.7 387.969 387.97 387.969z" stroke-width=".901"/><path d="M416.227 776.938c199.875 0 361.906-162.031 361.906-361.906S616.102 53.126 416.227 53.126 54.321 215.157 54.321 415.032s162.031 361.906 361.906 361.906z" stroke-width=".901"/><path d="M416.227 750.875c185.481 0 335.843-150.362 335.843-335.843 0-185.481-150.362-335.842-335.843-335.842-185.48 0-335.842 150.361-335.842 335.842s150.362 335.843 335.842 335.843z" stroke-width=".901"/><path d="M416.228 724.811c171.086 0 309.779-138.693 309.779-309.779 0-171.086-138.693-309.779-309.779-309.779-171.087 0-309.78 138.693-309.78 309.779 0 171.086 138.693 309.779 309.78 309.779z" stroke-width=".901"/><path d="M416.227 698.748c156.692 0 283.716-127.024 283.716-283.716S572.919 131.316 416.227 131.316 132.511 258.34 132.511 415.032s127.024 283.716 283.716 283.716z" stroke-width=".901"/><path d="M591.223 790.342c-207.389 96.806-453.499 7.074-550.305-200.314-96.806-207.389-6.702-453.499 200.314-550.305" stroke-width="4"/><path d="M580.426 766.885C386.07 857.361 155.224 773.587 64.748 579.23-25.73 384.873 58.046 154.028 252.403 63.552" stroke-width="4"/><path d="M569.255 743.056c-180.953 84.519-396.533 5.957-481.052-174.996S82.246 171.528 263.2 87.009" stroke-width="4"/><path d="M558.458 719.599c-167.921 78.562-367.863 5.585-446.425-162.336-78.561-168.294-5.585-368.235 162.337-446.425" stroke-width="4"/><path d="M547.289 695.769c-154.89 72.233-339.194 5.213-411.798-149.677-72.233-154.889-5.213-339.193 149.677-411.798" stroke-width="4"/><path d="M536.118 672.313c-141.858 66.275-310.524 4.84-376.799-137.39-66.275-141.858-4.84-310.524 137.018-376.799" stroke-width="4"/></g></svg>