<svg width="319" height="48" viewBox="0 0 319 48" fill="none" xmlns="http://www.w3.org/2000/svg"><path d="M35.265 1L1 46.687M46.688 1L12.422 46.687M59.378 1L25.113 46.687M72.07 1L37.804 46.687M83.49 1L49.227 46.687M96.182 1L61.916 46.687M108.873 1L74.607 46.687M120.295 1L86.029 46.687M132.986 1L98.72 46.687M145.676 1l-34.265 45.687M157.098 1l-34.265 45.687M169.789 1l-34.265 45.687M182.479 1l-34.265 45.687M193.901 1l-34.266 45.687M206.592 1l-34.266 45.687M219.282 1l-34.265 45.687M230.704 1l-34.265 45.687M243.395 1l-34.266 45.687M256.086 1L221.82 46.687M267.508 1l-34.266 45.687M280.198 1l-34.265 45.687M292.889 1l-34.265 45.687M304.311 1l-34.266 45.687M317.002 1l-34.266 45.687" opacity=".7" stroke="#EBBAEE" stroke-width="2" stroke-linecap="round"/></svg>