<svg width="1481" height="47" viewBox="0 0 1481 47" fill="none" xmlns="http://www.w3.org/2000/svg"><path fill="#E5E5E5" d="M0 0h1481v47H0z"/><g clip-path="url(#clip0_0_1)"><path fill="#fff" d="M0-915h1920v3770H0z"/><path d="M322.265 1L288 46.687M333.687 1l-34.265 45.687M346.379 1l-34.266 45.687M359.07 1l-34.265 45.687M370.492 1l-34.265 45.687M383.183 1l-34.265 45.687M395.873 1l-34.266 45.687M407.295 1l-34.266 45.687M419.986 1l-34.265 45.687M432.676 1L398.41 46.687M444.097 1l-34.265 45.687M456.789 1l-34.266 45.687M469.48 1l-34.265 45.687M480.902 1l-34.265 45.687M493.592 1l-34.266 45.687M506.283 1l-34.265 45.687M517.705 1l-34.266 45.687M530.396 1l-34.265 45.687M543.088 1l-34.266 45.687M554.509 1l-34.265 45.687M567.201 1l-34.265 45.687M579.89 1l-34.265 45.687M591.312 1l-34.265 45.687M604.004 1l-34.266 45.687M615.265 1L581 46.687M626.687 1l-34.265 45.687M639.379 1l-34.266 45.687M652.07 1l-34.265 45.687M663.492 1l-34.265 45.687M676.183 1l-34.265 45.687M688.873 1l-34.266 45.687M700.295 1l-34.266 45.687M712.986 1l-34.265 45.687M725.676 1L691.41 46.687M737.097 1l-34.265 45.687M749.789 1l-34.266 45.687M762.48 1l-34.265 45.687M773.902 1l-34.265 45.687M786.592 1l-34.266 45.687M799.283 1l-34.265 45.687M810.705 1l-34.266 45.687M823.396 1l-34.265 45.687M836.088 1l-34.266 45.687M847.509 1l-34.265 45.687M860.201 1l-34.265 45.687M872.89 1l-34.265 45.687M884.312 1l-34.265 45.687M897.004 1l-34.266 45.687M909.265 1L875 46.687M920.687 1l-34.265 45.687M933.379 1l-34.266 45.687M946.07 1l-34.265 45.687M957.492 1l-34.265 45.687M970.183 1l-34.265 45.687M982.873 1l-34.266 45.687M994.295 1l-34.266 45.687M1006.99 1l-34.269 45.687M1019.68 1l-34.27 45.687M1031.1 1l-34.268 45.687M1043.79 1l-34.27 45.687M1056.48 1l-34.27 45.687M1067.9 1l-34.26 45.687M1080.59 1l-34.26 45.687M1093.28 1l-34.26 45.687M1104.7 1l-34.26 45.687M1117.4 1l-34.27 45.687M1130.09 1l-34.27 45.687M1141.51 1l-34.27 45.687M1154.2 1l-34.26 45.687M1166.89 1l-34.27 45.687M1178.31 1l-34.26 45.687M1191 1l-34.26 45.687M1202.27 1L1168 46.687M1213.69 1l-34.27 45.687M1226.38 1l-34.27 45.687M1239.07 1l-34.27 45.687M1250.49 1l-34.26 45.687M1263.18 1l-34.26 45.687M1275.87 1l-34.26 45.687M1287.29 1l-34.26 45.687M1299.99 1l-34.27 45.687M1312.68 1l-34.27 45.687M1324.1 1l-34.27 45.687M1336.79 1l-34.27 45.687M1349.48 1l-34.27 45.687M1360.9 1l-34.26 45.687M1373.59 1l-34.26 45.687M1386.28 1l-34.26 45.687M1397.7 1l-34.26 45.687M1410.4 1l-34.27 45.687M1423.09 1l-34.27 45.687M1434.51 1l-34.27 45.687M1447.2 1l-34.26 45.687M1459.89 1l-34.27 45.687M1471.31 1l-34.26 45.687M1484 1l-34.26 45.687M5.312 1l-34.265 45.687M18.004 1l-34.266 45.687M29.265 1L-5 46.687M40.687 1L6.422 46.687M53.379 1L19.113 46.687M66.07 1L31.805 46.687M77.492 1L43.227 46.687M90.183 1L55.918 46.687M102.873 1L68.607 46.687M114.295 1L80.029 46.687M126.986 1L92.721 46.687M139.676 1L105.41 46.687M151.097 1l-34.265 45.687M163.789 1l-34.266 45.687M176.48 1l-34.265 45.687M187.902 1l-34.265 45.687M200.592 1l-34.266 45.687M213.283 1l-34.265 45.687M224.705 1l-34.266 45.687M237.396 1l-34.265 45.687M250.088 1l-34.266 45.687M261.509 1l-34.265 45.687M274.201 1l-34.265 45.687M286.89 1l-34.265 45.687M298.312 1l-34.265 45.687M311.004 1l-34.266 45.687" opacity=".7" stroke="#EBBAEE" stroke-width="2" stroke-linecap="round"/></g><defs><clipPath id="clip0_0_1"><path fill="#fff" transform="translate(0 -915)" d="M0 0h1920v3770H0z"/></clipPath></defs></svg>