<svg width="439" height="472" viewBox="0 0 439 472" fill="none" xmlns="http://www.w3.org/2000/svg"><path d="M258.639 470.107c-19.126-9.128-26.798-30.724-29.467-50.762-.445-3.34-1.445-6.791-.333-10.019 1.112-3.228 4.447-5.789 7.672-4.898 2.669.779 4.225 3.451 6.005 5.566 2.335 2.894 5.559 5.01 9.118 6.123 2.335.779 5.003 1.002 7.005-.557 2.557-2.115 2.224-6.123 1.668-9.462-1.112-6.234-2.224-12.357-3.225-18.591-.556-3.339-1.112-6.679-.667-10.019.445-3.339 2.335-6.679 5.337-8.015 3.003-1.447 7.228-.222 8.451 2.895.556 1.335.445 2.783.779 4.118.333 1.336 1.223 2.783 2.557 2.895 1.334.111 2.558-1.002 3.336-2.115 2.891-3.897 4.448-8.683 5.893-13.359 1.446-4.675 2.78-9.462 5.338-13.581 2.446-4.23 6.338-7.793 11.008-8.906 4.67-1.113 10.23 1.002 12.231 5.455 2.002 4.453.112 9.685-2.223 14.026-3.448 6.346-7.784 12.246-12.899 17.367-.89.89-1.89 1.892-2.113 3.228-.333 2.338 2.113 4.23 4.448 4.564 2.557.445 5.226-.334 7.895-.445 2.669-.112 5.671.556 7.005 2.783 1.89 3.117-.333 7.236-2.669 10.019a66.06 66.06 0 01-16.901 14.026c-2.335 1.336-4.67 2.561-6.45 4.564-1.667 2.004-2.335 5.232-.778 7.347 1.557 2.116 4.781 2.338 7.228 1.448 2.446-.891 4.559-2.672 6.783-4.008 4.225-2.449 10.23-3.228 13.788.223 2.335 2.226 3.113 5.9 2.669 9.128-.445 3.228-2.002 6.234-3.67 9.017-5.893 9.796-14.01 18.257-24.018 23.823-10.008 5.455-19.682 8.126-30.801 6.122z" fill="#F5F5F5"/><path d="M261.641 456.638c1.223-10.576 3.558-22.042 6.338-34.065.667-3.005 1.445-5.9 2.112-8.794.668-2.894 1.446-5.789 2.224-8.572 1.668-5.566 3.781-10.798 5.894-15.585a269.349 269.349 0 016.338-13.692 537.898 537.898 0 016.004-11.689c3.892-7.013 7.784-12.245 10.564-15.808 1.334-1.781 2.557-3.117 3.225-4.007.333-.445.667-.779.889-1.002l.334-.334s-.111.111-.223.334c-.222.223-.444.557-.889 1.002-.779.89-1.779 2.226-3.225 4.007-2.669 3.563-6.449 8.795-10.341 15.808-2.002 3.451-3.892 7.459-6.005 11.689-2.001 4.23-4.225 8.794-6.227 13.692-2.112 4.898-4.114 10.019-5.782 15.585-.889 2.783-1.556 5.566-2.224 8.461-.667 2.894-1.445 5.9-2.112 8.794-2.78 11.911-5.115 23.377-6.45 33.953" fill="#E0E0E0"/><path d="M272.649 405.207s-.222-.445-.556-1.336a51.879 51.879 0 01-1.223-3.785 330.934 330.934 0 01-3.67-12.69c-1.334-5.01-2.668-9.462-3.78-12.691-.556-1.558-1.001-2.894-1.335-3.785-.333-.89-.444-1.447-.444-1.447l.667 1.336c.333.891.889 2.115 1.445 3.674 1.223 3.228 2.558 7.681 4.003 12.579 1.335 4.898 2.558 9.351 3.447 12.691.445 1.558.779 2.783 1.112 3.896.223 1.002.334 1.558.334 1.558z" fill="#E0E0E0"/><path d="M313.904 389.956s-.556.223-1.668.446c-1.112.333-2.669.667-4.559 1.224-3.781 1.113-9.118 2.783-14.789 4.898-5.671 2.115-10.786 4.23-14.456 5.9-1.779.779-3.224 1.559-4.336 2.004-1.001.445-1.557.779-1.557.668 0 0 .556-.334 1.446-.891 1-.556 2.446-1.335 4.225-2.226 3.558-1.781 8.673-4.008 14.344-6.123 5.671-2.115 11.009-3.785 14.9-4.675 1.891-.557 3.559-.891 4.559-1.002 1.335-.111 1.891-.223 1.891-.223zm-51.819 65.791s-.111-.111-.333-.445c-.223-.334-.556-.891-1.001-1.447-.89-1.225-2.002-3.006-3.447-5.344-2.891-4.564-6.672-10.909-10.786-18.034-4.114-7.124-7.784-13.581-10.564-18.145-1.334-2.227-2.446-4.119-3.336-5.455a42.871 42.871 0 00-.889-1.447c-.222-.334-.334-.557-.222-.557 0 0 .111.112.333.446.222.334.556.89 1.001 1.447.889 1.224 2.001 3.005 3.447 5.343 2.891 4.564 6.672 10.91 10.786 18.034 4.114 7.125 7.784 13.581 10.563 18.146 1.335 2.226 2.447 4.118 3.336 5.454.334.557.667 1.114.89 1.447.111.446.222.557.222.557zm53.597-27.83s-.222.111-.556.334l-1.557.779a209.562 209.562 0 01-5.782 3.006c-4.892 2.56-11.453 6.122-18.792 10.019a614.567 614.567 0 01-18.903 9.907c-2.446 1.225-4.448 2.227-5.782 2.783-.667.334-1.223.557-1.557.779-.333.112-.556.223-.556.223s.223-.111.556-.334l1.557-.779a212.522 212.522 0 015.782-3.006c4.893-2.56 11.453-6.123 18.792-10.019a615.732 615.732 0 0118.903-9.907c2.447-1.225 4.448-2.227 5.782-2.783.668-.334 1.224-.557 1.557-.78.334-.222.556-.222.556-.222z" fill="#E0E0E0"/><path d="M62.268 58.442l-10.897-3.34s-2.89 9.129-12.343 6.346C34.136 60 32.58 55.992 32.246 53.21c-.334-3.229 1.112-6.346 3.558-8.572 2.78-2.45 7.672-4.008 14.566-.445l7.673-24.491-10.675-3.34-4.448 14.36s-16.234-.778-21.46 15.808c-5.004 15.92 8.117 24.046 14.233 25.938 4.559 1.336 20.793 5.121 26.575-14.026zM48.686 11.184l10.933 3.414L62.8 4.397 51.864.982l-3.179 10.202z" fill="#F5F5F5"/><path d="M92.18 30.723l4.336-1.113s-1-3.674 2.78-4.676c2.002-.556 3.336.445 4.003 1.336.779 1.002 1.001 2.338.668 3.562-.445 1.447-1.78 2.895-4.782 3.228l2.558 9.797 4.336-1.113-1.556-5.79s5.67-3.116 3.891-9.795c-1.668-6.346-7.783-6.346-10.23-5.678-1.89.445-8.117 2.56-6.004 10.242zm14.503 12.94l-4.408 1.165 1.078 4.09 4.408-1.164-1.078-4.09z" fill="#EBEBEB"/><path d="M2.669 191.805l8.895-3.451s-2.89-7.57 4.893-10.687c4.003-1.67 7.116.222 8.784 1.892a8.376 8.376 0 012.113 7.459c-.556 3.117-3.002 6.679-9.452 7.904l7.784 20.149 8.896-3.451-4.56-11.8s11.12-8.015 5.894-21.708c-5.004-13.136-17.902-11.577-22.906-9.685-3.892 1.781-16.568 7.681-10.341 23.378zm33.651 24.164l-8.924 3.441 3.238 8.414 8.923-3.442-3.238-8.413z" fill="#F5F5F5"/><path d="M110.304 179.893h64.271s0-53.991 56.042-54.993c29.133-.556 44.145 18.591 50.372 33.174 7.116 17.032 5.003 36.291-4.559 52.099-10.898 18.034-34.36 36.068-77.615 28.386l-.444 143.271h63.492v-84.938s89.067-23.044 89.067-121.34c0-94.067-75.946-114.327-116.755-115.663-22.683-.78-30.912-1.67-59.044 2.338-35.805 5.12-65.494 46.755-64.827 117.666zm152.338 231.882h-64.494V472h64.494v-60.225z" fill="#363668"/><path d="M83.729 179.893h64.27s0-53.991 56.043-54.993c29.133-.556 44.144 18.591 50.371 33.174 7.117 17.032 5.004 36.291-4.559 52.099-10.897 18.034-34.804 34.286-78.059 26.717v144.94h63.493v-84.938s89.067-23.044 89.067-121.34c0-94.067-84.175-115.886-120.313-115.886-27.577.112-121.537 6.79-120.313 120.227zm152.336 231.882h-64.493V472h64.493v-60.225z" fill="#4C4C7F"/><path d="M211.269 125.234s-.333 0-1-.111c-.668 0-1.557-.222-2.78-.222a57.362 57.362 0 00-10.119.445c-4.225.556-9.229 1.558-14.567 3.451-2.668 1.002-5.448 2.004-8.117 3.451-2.78 1.336-5.448 3.117-7.895 5.12-2.557 2.004-4.67 4.453-6.449 6.902-1.89 2.449-3.447 4.899-4.893 7.348-2.779 4.898-4.559 9.685-5.782 13.803-1.223 4.119-1.668 7.57-1.89 9.908-.111 1.225-.222 2.115-.222 2.783 0 .668-.112 1.002-.112 1.002v-1.002c0-.668 0-1.558.112-2.783.111-2.338.667-5.9 1.779-10.019 1.112-4.119 3.002-8.906 5.671-13.915 1.445-2.449 3.002-5.01 4.892-7.459 1.891-2.449 4.003-4.898 6.561-7.013 2.557-2.115 5.226-3.785 8.006-5.232 2.78-1.447 5.56-2.56 8.228-3.451 5.338-1.781 10.453-2.894 14.678-3.339 4.225-.446 7.784-.446 10.119-.223 1.223 0 2.112.223 2.78.334.667.111 1 .222 1 .222zm96.74-11.466l-.223-.222c-.111-.223-.333-.446-.556-.78-.556-.667-1.223-1.669-2.112-3.005a25.728 25.728 0 00-1.557-2.115c-.667-.78-1.334-1.559-2.002-2.449-.667-.891-1.445-1.781-2.335-2.783-.889-1.002-1.779-1.893-2.78-3.006-1-1.002-2.001-2.115-3.113-3.228a980.8 980.8 0 01-3.558-3.229c-.667-.556-1.223-1.113-1.891-1.67-.667-.556-1.334-1.113-2.112-1.67-1.446-1.112-2.78-2.226-4.337-3.339-6.116-4.453-13.232-8.683-21.016-12.468-2.001-.89-3.892-1.781-5.893-2.672-2.002-.779-3.892-1.558-5.782-2.226-1.891-.78-3.781-1.336-5.671-2.004-1.891-.556-3.67-1.224-5.56-1.67-1.779-.445-3.558-.89-5.337-1.447-1.668-.445-3.447-.78-5.115-1.113-1.668-.334-3.225-.668-4.782-.89a412.661 412.661 0 01-4.448-.669c-2.779-.445-5.337-.556-7.672-.779-1.112-.111-2.224-.222-3.113-.222-1.001 0-1.891 0-2.669-.112-1.557 0-2.78-.111-3.67-.111h-1.334 7.673c1 0 2.001.111 3.113.223 2.224.222 4.893.222 7.672.667 1.446.223 2.892.446 4.448.557 1.557.223 3.114.557 4.782.89 1.668.335 3.336.557 5.115 1.114l5.337 1.336c1.89.445 3.669 1.113 5.56 1.67 1.89.667 3.78 1.224 5.671 2.003 1.89.78 3.892 1.447 5.893 2.227 1.89.89 3.892 1.78 5.893 2.672 7.895 3.784 15.012 8.015 21.127 12.579 1.557 1.113 2.892 2.338 4.337 3.45.667.557 1.334 1.114 2.113 1.67.667.557 1.223 1.114 1.89 1.67 1.223 1.114 2.446 2.227 3.558 3.34 1.112 1.113 2.113 2.226 3.114 3.228 1.001 1.002 1.89 2.004 2.78 3.006a233.794 233.794 0 012.224 2.894c.667.891 1.334 1.67 2.001 2.449.556.78 1.001 1.559 1.446 2.227.889 1.336 1.556 2.338 2.001 3.117.223.334.334.556.556.779.334 0 .334.111.334.111zm-6.671 138.039s-.112.222-.445.668c-.334.445-.89 1.113-1.446 1.892-.667.779-1.445 1.781-2.446 2.894-1.001 1.114-2.002 2.338-3.336 3.674a75.722 75.722 0 01-4.225 4.23c-1.557 1.559-3.225 3.006-5.115 4.676-3.67 3.228-7.895 6.456-12.454 9.685-4.67 3.228-9.229 5.9-13.455 8.237-2.112 1.114-4.225 2.227-6.116 3.117-1.89 1.002-3.78 1.782-5.448 2.449-1.668.78-3.225 1.336-4.559 1.782-1.334.556-2.558.89-3.558 1.224-.89.334-1.668.557-2.224.779-.556.112-.779.223-.779.223s.223-.111.779-.334c.556-.223 1.334-.445 2.224-.779 1-.334 2.112-.779 3.447-1.336 1.334-.557 2.891-1.113 4.559-1.893 1.668-.779 3.558-1.558 5.448-2.449 2.002-.89 4.003-2.003 6.116-3.117 4.225-2.337 8.784-5.12 13.455-8.237 4.559-3.229 8.784-6.457 12.453-9.685 1.78-1.559 3.559-3.117 5.115-4.564a75.756 75.756 0 004.226-4.231c1.334-1.336 2.446-2.56 3.447-3.562 1.001-1.002 1.779-2.004 2.446-2.783.667-.779 1.223-1.336 1.557-1.781.111-.557.334-.779.334-.779zM234.064 376.82c-.111 0-.334-17.922-.334-39.964 0-22.042.112-39.964.334-39.964.111 0 .334 17.922.334 39.964 0 22.042-.112 39.964-.334 39.964zm2.447 91.061c.185 0 .334-12.56.334-28.053s-.149-28.053-.334-28.053c-.184 0-.333 12.56-.333 28.053s.149 28.053.333 28.053z" fill="#263238"/><path d="M299.781 171.321c-1.112 2.227 3.002 4.008 5.448 4.787 2.446.779 5.004.668 7.45.557 3.336-.223 6.783-.445 9.674-2.115 2.558-1.447 4.448-3.897 5.782-6.568 1.335-2.672 2.113-5.455 2.891-8.349 0 0-26.242 1.781-31.245 11.688z" fill="#F44AAF"/><path opacity=".4" d="M299.781 171.321c-1.112 2.227 3.002 4.008 5.448 4.787 2.446.779 5.004.668 7.45.557 3.336-.223 6.783-.445 9.674-2.115 2.558-1.447 4.448-3.897 5.782-6.568 1.335-2.672 2.113-5.455 2.891-8.349 0 0-26.242 1.781-31.245 11.688z" fill="#000"/><path d="M373.947 164.197c4.337 3.117 9.563 4.675 14.789 4.675 2.557 0 5.226-.556 7.116-2.226.89-.779 1.446-1.781 2.335-2.56.556-.557 1.335-.891 1.891-1.448.556-.556 1.001-1.335.778-2.115-.222-.779-.778-2.115-1.557-2.449-3.002-1.67-6.671-1.67-10.118-1.558-3.447.111-6.894.89-10.23 2.004-2.669.89-5.56 2.226-6.894 4.675" fill="#F44AAF"/><path opacity=".4" d="M400.968 160.523c-.223-.779-1.224-1.892-2.002-2.226-3.002-1.67-6.227-1.893-9.674-1.781-3.447.111-6.894.89-10.119 2.004-2.668.89-5.559 2.226-6.894 4.675l1.668 1.002c4.337 3.117 9.563 4.675 14.789 4.675 2.558 0 5.226-.556 7.117-2.226.889-.779 1.445-1.781 2.335-2.56.556-.557 1.334-.891 1.89-1.448.556-.556 1.001-1.335.89-2.115z" fill="#000"/><path d="M322.687 204.161l55.486.779c.445 0 .89-.445.667-.89l-6.449-20.261s1.001-10.13 2.335-22.375c2.002-18.479 4.67-41.857 4.67-41.746-3.78-10.686-26.131-12.468-26.131-12.468l-25.463 1.559-.89-1.447-7.339 3.451a60.518 60.518 0 00-4.559 2.56c-4.892 3.228-16.568 10.687-18.68 19.036-4.893 19.147 3.447 40.632 3.447 40.632l5.337-4.23a47.68 47.68 0 014.225-2.894l10.786 28.832s-2.224 1.336-2.335 3.674c-.333 2.226.89 5.009 4.893 5.788z" fill="#F44AAF"/><path opacity=".3" d="M346.482 170.208c1.779-9.462.778-19.147-.112-28.721-3.113 7.793-3.002 16.699-6.227 24.38-.333.89-.778 1.67-.889 2.56-.111.891.111 1.893.778 2.56.89.78 2.224.334 3.447.223 1.112-.223 1.779-.668 3.003-1.002z" fill="#000"/><path opacity=".4" d="M326.023 192.138c4.447 1.559 9.229-1.335 13.899-1.892 3.113-.334 6.227.334 9.34.891 6.227 1.002 12.677 1.224 18.904.445 1-.111 1.89-.223 2.779-.668.89-.445 1.557-1.781 1.446-2.783-10.452-1.113-20.905-1.67-31.357-2.783-2.669-.223-5.337-.557-7.895.223-3.113 1.001-5.56 3.451-7.784 5.9" fill="#000"/><path d="M399.301 156.85c-4.559-10.242-20.46-38.406-20.46-38.406l-12.343 15.473 2.891 30.503s6.561-7.348 24.797-7.459c4.225 0 6.783 3.562 6.783 3.562l-1.668-3.673z" fill="#F44AAF"/><path d="M323.068 144.861c1.001 3.741 1.958 6.735 2.136 6.687.178-.048-.49-3.119-1.492-6.86-1.002-3.742-1.958-6.736-2.136-6.688-.178.048.49 3.119 1.492 6.861zm42.428-12.947s.445.334 1.112 1.002c.667.668 1.668 1.669 2.78 3.005 2.113 2.672 4.781 6.902 5.893 12.134.556 2.561.667 5.121.334 7.459-.334 2.226-.667 4.23-1.001 6.011-.333 1.67-.445 3.117-.556 4.008-.111 1.002-.111 1.447-.111 1.447s-.111-.557-.111-1.447c0-1.002.111-2.338.333-4.119.223-1.67.668-3.785.89-6.012a23.085 23.085 0 00-.445-7.235c-1.112-5.121-3.558-9.24-5.671-11.912-1.89-2.894-3.447-4.23-3.447-4.341zm-11.23 69.798s-.445.111-1.223.334c-.445.111-.89.223-1.446.334-.556.111-1.223.223-1.89.223-1.445.111-3.225.111-5.115 0-1.89-.223-4.003-.557-6.116-1.225-2.112-.668-4.003-1.558-5.782-2.449-1.668-1.002-3.113-1.892-4.225-2.894-.556-.446-1.001-.891-1.446-1.336-.445-.334-.778-.779-1.001-1.002-.555-.557-.778-1.002-.778-1.002.111-.111 1.223 1.225 3.558 3.006 1.112.89 2.558 1.781 4.226 2.671 1.668.891 3.558 1.67 5.671 2.338 2.112.668 4.114 1.002 6.004 1.225 1.891.222 3.559.222 5.004.111 2.78 0 4.448-.445 4.559-.334zm17.124-6.345c.111 0 .334.556.445 1.67.111 1.002.111 2.56-.334 4.007-.444 1.559-1.334 2.783-2.223 3.451-.779.668-1.446.891-1.446.891 0-.112.445-.446 1.223-1.113.667-.668 1.446-1.893 1.891-3.34.778-2.894.222-5.566.444-5.566zm-3.113 4.007c.111 0 .445 1.559-.333 3.451-.668 1.893-2.002 2.895-2.113 2.672-.111-.111.889-1.224 1.557-2.894.778-1.781.778-3.229.889-3.229zm-9.896-36.624c.111.111-.89 1.336-2.001 2.894-1.112 1.559-1.78 2.894-1.891 2.894-.111 0 .334-1.558 1.446-3.228 1.112-1.67 2.335-2.672 2.446-2.56zm-38.03-27.051c-.111.111-.89-.668-2.446-1.67-1.557-1.002-3.67-2.227-6.339-3.228-2.557-1.002-5.003-1.448-6.894-1.67a127.95 127.95 0 00-2.891-.334c0-.112 1.112-.223 3.003 0 1.779.111 4.336.556 7.005 1.558 2.669 1.002 4.892 2.338 6.338 3.451 1.445 1.113 2.224 1.893 2.224 1.893zm58.489-17.589c.111.111-2.892 2.004-5.671 5.232-2.78 3.228-4.003 6.568-4.226 6.457-.111 0 .223-.891.779-2.115.556-1.336 1.556-3.006 3.002-4.676a24.497 24.497 0 014.114-3.785c1.112-.779 2.002-1.224 2.002-1.113zm-22.906-9.24s.111.223.223.557c.111.334.333.89.556 1.558.333 1.336.556 3.563 0 6.012-.556 2.449-2.002 5.343-4.559 7.681-2.558 2.338-6.338 3.673-10.23 3.673-3.892 0-7.673-1.335-10.342-3.451-2.779-2.003-4.558-4.675-5.67-6.901-1.112-2.338-1.668-4.342-1.891-5.678-.111-.668-.222-1.224-.222-1.67v-.556c.111 0 .111.779.445 2.115.333 1.336.889 3.34 2.001 5.566 1.223 2.226 3.002 4.675 5.671 6.679 2.669 2.004 6.227 3.229 10.008 3.34 3.78 0 7.45-1.336 9.896-3.451 2.446-2.227 3.892-5.01 4.448-7.347.556-2.449.445-4.564.222-5.9-.222-1.448-.667-2.115-.556-2.227z" fill="#263238"/><path opacity=".3" d="M359.826 164.642c0-.556-.112-1.224-.556-1.447-.334-.223-.668-.111-1.001 0-.334.111-.556.445-.778.668-1.335 1.447-2.336 2.894-3.003 4.787l5.449-.446c0-1.224-.111-2.337-.111-3.562zm18.124-11.466c-.444-3.117-2.001-6.011-4.003-8.46 2.335 7.681 1.557 12.022.223 17.366l.333-.779c1.557-3.006 3.892-5.01 3.447-8.127z" fill="#000"/><path d="M367.054 411.998l-3.336 49.872-21.683-.223-3.447-51.876 28.466 2.227z" fill="#FFBE9D"/><path d="M364.385 455.302v1.447s24.463 9.796 24.686 14.472l-48.592-.334.778-16.142c7.228 3.451 14.789 3.896 23.128.557z" fill="#F44AAF"/><path d="M346.149 459.977c-.89.223-1.557 1.336-1.334 2.227.222 1.002 1.223 1.67 2.223 1.447.89-.223 1.78-1.447 1.446-2.449-.334-.891-1.557-1.67-2.446-1.225" fill="#fff"/><path d="M340.479 470.998l.222-3.896 46.479 1.67s2.113 1.002 1.891 2.449l-48.592-.223zm24.018-14.138c0 .223-1.223.334-2.335 1.114-1.223.779-1.779 1.781-2.002 1.669-.222 0 .112-1.447 1.557-2.337 1.446-.891 2.891-.557 2.78-.446zm5.115 2.227c0 .222-1.001.668-1.78 1.67-.889 1.001-1 2.003-1.334 2.003-.222 0-.333-1.336.667-2.56 1.001-1.336 2.447-1.336 2.447-1.113zm2.78 6.122c-.222 0-.556-1.113.112-2.449.556-1.335 1.779-1.781 1.779-1.558.111.223-.556.89-1.112 2.004-.445.89-.445 1.892-.779 2.003zM363.05 46.864c1.224-3.117-.222-6.901-3.002-8.905-2.668-2.004-6.338-2.45-9.674-1.893-3.336.557-6.449 1.893-9.451 3.34-2.78-2.783-7.228-3.896-10.897-2.672-3.781 1.225-6.672 4.676-7.228 8.572-2.335-.557-5.115.223-6.783 2.004-1.668 1.78-2.224 4.564-1.334 6.902l15.011 5.232 16.457 28.943c4.781 4.12 12.676 4.008 17.346-.222s5.56-12.023 2.002-17.255c.889-.78 1.668-1.781 2.335-2.895 2.557-1.558 4.67-4.118 5.337-7.124 1.335-6.234-3.669-13.247-10.119-14.027z" fill="#263238"/><path d="M353.153 107.089a564.868 564.868 0 00-1.556-7.904s8.895-3.45 8.228-15.807c-.333-6.123-2.669-15.92-4.781-23.823-2.002-7.125-8.562-14.917-15.568-12.69l-21.127 10.352c-2.112.668-2.446 2.672-2.001 4.898v1.114l8.228 34.175 3.447 15.251c1.557 6.457 7.784 10.687 14.344 9.796 7.339-1.113 12.232-8.126 10.786-15.362z" fill="#FFBE9D"/><path d="M354.821 67.793c.223.779-.333 1.67-1.112 1.892-.889.223-1.668-.222-1.89-1.002-.222-.779.334-1.67 1.112-1.892.889-.223 1.668.222 1.89 1.002zm-.89-2.338c-.111.223-1.445-.334-3.113 0s-2.669 1.447-2.891 1.225c-.111-.112 0-.446.445-1.002a4.665 4.665 0 012.224-1.225c1-.222 2.001 0 2.557.223.556.334.89.668.778.779zm-15.233 6.123c.223.779-.333 1.67-1.112 1.892-.889.223-1.668-.222-1.89-1.002-.222-.779.333-1.67 1.112-1.892.889-.334 1.779.111 1.89 1.002zm-.778-2.227c-.112.223-1.446-.334-3.114 0s-2.669 1.447-2.891 1.225c-.111-.111 0-.445.445-1.002a4.669 4.669 0 012.224-1.225c1.001-.222 2.001 0 2.557.223.667.334.89.668.779.78zm8.451 10.465c0-.112 1.001-.446 2.558-1.002.444-.112.778-.334.778-.557 0-.334-.222-.78-.556-1.225-.556-.89-1.223-1.892-1.89-3.005-2.669-4.23-4.782-7.681-4.559-7.793.222-.111 2.446 3.229 5.226 7.459.667 1.002 1.223 2.004 1.89 3.005.223.446.667.891.556 1.559 0 .334-.333.668-.556.78-.222.11-.445.222-.667.222-1.779.445-2.78.668-2.78.556z" fill="#263238"/><path d="M351.597 99.185s-7.895 2.227-16.902-.89c0 0 5.782 7.57 17.569 4.007l-.667-3.117z" fill="#EB996E"/><path d="M338.253 67.013c-.111.446-1.779.446-3.781.891-2.001.445-3.447 1.225-3.78.78-.111-.223.111-.669.667-1.114.556-.556 1.557-1.113 2.669-1.336 1.112-.222 2.224-.222 3.002 0 .89.223 1.223.557 1.223.78zm15.012-6.79c-.223.445-1.668.334-3.336.668-1.668.223-2.891.89-3.336.556-.222-.11 0-.556.445-1.113.556-.445 1.445-1.002 2.557-1.224 1.112-.223 2.113-.112 2.78.222.779.334 1.001.668.89.89z" fill="#263238"/><path d="M323.464 49.313c.445 2.45 2.113 4.565 4.225 5.678 2.113 1.113 4.782 1.336 7.117.334 1.779-.668 3.558-2.004 5.337-1.447 1.891.668 2.446 3.228 4.226 4.118 2.446 1.448 5.448-1.001 8.339-.779 2.224.223 3.892 1.893 5.671 3.229 1.779 1.335 4.114 2.56 6.005 1.447-.556-1.893-1.001-3.674-2.002-5.344-.889-1.67-2.335-3.117-4.114-3.896-1.001-.334-2.001-.556-3.002-1.002-2.002-1.002-2.891-3.34-4.337-5.12-1.89-2.227-4.892-3.451-7.784-3.118-2.446.223-4.67 1.448-7.116 1.336-1.779-.111-3.447-.89-5.337-.89-3.447.111-6.116 3.117-8.006 6.011" fill="#263238"/><path d="M335.14 51.874c-1.557-.111-4.892-.446-5.893-1.559-2.335-2.449-5.782-3.785-8.896-2.894-3.113.78-5.671 3.896-5.56 7.459-3.78.779-7.005 4.007-8.117 8.015-1.112 4.007 0 8.683 2.78 11.688.667.78 1.779 2.672 1.779 2.672s-1.445 1.781-2.001 3.006c-2.558 5.677 4.336 7.792 4.336 7.792 0 3.785 3.558 3.785 5.782 3.785 2.113 0 3.447 6.012 5.227 5.678l-1.891-18.591c.223.111.445.111.779.111 4.225.111 3.113-7.904 1.779-10.019 1.223-1.558 2.335-3.228 3.113-5.12.779-1.893.779-6.568.111-8.572 1.668-.111 7.339-3.451 6.672-3.451z" fill="#263238"/><path d="M323.352 79.927c-.667-2.56-3.78-3.674-5.782-1.893-1.112 1.002-1.668 2.56-1.001 5.232 1.78 7.125 8.563 3.897 8.563 3.674 0-.223-1.001-4.119-1.78-7.013z" fill="#FFBE9D"/><path d="M322.351 84.714s-.111.11-.333.222c-.223.111-.556.334-.89.223-.778-.112-1.779-1.113-2.112-2.45a3.717 3.717 0 01-.112-1.892c.112-.556.334-1.002.668-1.224.333-.223.667 0 .778.111.111.223.111.334.222.334 0 0 .112-.111 0-.445-.111-.112-.222-.334-.444-.334-.223-.112-.445-.112-.779 0-.556.222-.889.78-1.001 1.447a4.616 4.616 0 00.112 2.115c.444 1.447 1.445 2.56 2.557 2.672.556 0 .89-.223 1.112-.445.222-.112.222-.334.222-.334z" fill="#EB996E"/><path d="M361.717 69.908s.667-.445 1.556-1.67a10.378 10.378 0 002.224-5.566c.111-1.224.111-2.672-.445-4.119-.444-1.447-1.223-2.894-2.557-4.008-2.446-2.226-6.561-3.34-10.23-2.003-.334.111-.667.222-1.001.445-.333.111-.556.334-.889.445l-.445.223v-.445c0-.89-.334-1.67-.89-2.338-.556-.668-1.334-1.113-2.001-1.447-1.557-.668-3.225-.668-4.782-.334-3.113.668-5.671 2.115-8.117 2.337-2.446.335-4.448-.333-5.56-1.113-.556-.445-.889-.779-1.112-1.113-.222-.334-.222-.445-.222-.445.111 0 .334.668 1.446 1.447 1.112.78 3.002 1.224 5.337.89 1.112-.222 2.446-.556 3.781-1.113 1.334-.445 2.78-1.113 4.336-1.447.779-.222 1.668-.334 2.558-.222.889 0 1.779.222 2.557.556.89.334 1.668.89 2.224 1.559.667.668 1.001 1.67 1.001 2.671l-.445-.222c.334-.223.556-.334.89-.557.333-.111.667-.334 1-.445 3.892-1.336 8.229-.223 10.786 2.115 1.335 1.225 2.224 2.672 2.669 4.23.445 1.559.556 3.006.334 4.342-.334 2.671-1.446 4.564-2.447 5.677-.444.557-.889.89-1.223 1.113-.111.445-.222.557-.333.557zM360.27 44.75c0 .11-.778-.557-2.335-.78-.778-.111-1.668-.111-2.78.223-1 .334-2.112 1.002-2.78 2.004l-.222.445-.222-.446c-.89-2.449-3.559-4.675-6.783-5.009-2.447-.334-4.67.78-6.561 1.893-1.89 1.113-3.558 2.115-5.115 2.671-1.556.557-3.002.668-3.892.446-.444-.112-.778-.223-1-.335-.223-.11-.334-.11-.334-.222 0 0 .445.111 1.446.222.889.112 2.224 0 3.78-.667 1.557-.557 3.114-1.67 5.004-2.783a20.33 20.33 0 013.114-1.559c1.111-.445 2.446-.668 3.78-.445 3.447.334 6.227 2.894 7.228 5.454h-.445c.89-1.113 2.002-1.892 3.114-2.115 1.111-.334 2.112-.334 2.891-.11.778.11 1.334.444 1.779.667.222.223.333.334.333.445z" fill="#455A64"/><path d="M345.704 83.155c-.556-.445-1.223-.668-2.002-.556-.667.11-1.445.667-1.89 1.335 0 0 0 .112-.111.112a2.102 2.102 0 00-.222.89c.111.668.555 1.225 1.111 1.559.89.445 2.224.334 2.892-.446.889-.779 1-2.115.222-2.894z" fill="#E8505B"/><path d="M346.26 86.606c-.112 0-.223-.334-.445-.78-.334-.444-.778-1.001-1.557-1.335a3.635 3.635 0 00-2.113-.223c-.556.112-.889.223-.889.112 0-.112.222-.334.778-.557.556-.223 1.557-.223 2.447.111.889.446 1.445 1.114 1.667 1.782.223.445.112.89.112.89z" fill="#263238"/><path d="M323.577 87.942s.333.557-.111 1.447c-.223.445-.556.89-1.224 1.113-.556.223-1.334.112-2.001-.222-.556-.334-1.001-1.002-1.112-1.67 0-.668.222-1.225.445-1.559.556-.779 1.223-.779 1.223-.668 0 .112-.445.223-.89.891-.222.334-.333.78-.222 1.225 0 .445.333.89.889 1.224.445.334 1.001.334 1.446.223.445-.112.778-.446 1.001-.78.445-.667.445-1.224.556-1.224z" fill="#E8505B"/><path d="M319.795 87.608c.111 0 0 .334-.556.668-.223.111-.556.223-.89.111a1.488 1.488 0 01-.889-.78c-.223-.333-.223-.778-.112-1.112.112-.334.334-.557.556-.78.445-.222.779-.11.779-.11 0 .11-.223.11-.556.444-.334.223-.445.78-.223 1.336.223.557.779.668 1.224.557.333-.223.556-.445.667-.334z" fill="#E8505B"/><path d="M332.027 186.461s27.577 1.559 43.811 1.781c12.565.112 18.236-3.228 20.794-11.354 2.112-6.791-2.447-19.816-2.447-19.816-8.562 0-13.788 1.225-19.236 3.785l1.445 6.012-44.367 3.785v15.807z" fill="#FFBE9D"/><path d="M385.623 173.103c-.111.111-1.446-2.338-4.114-4.119-2.669-1.893-5.449-2.227-5.338-2.338 0-.111.667-.111 1.779.111 1.112.223 2.558.78 3.892 1.781 1.446 1.002 2.446 2.116 3.002 3.006.556.891.779 1.559.779 1.559z" fill="#EB996E"/><path d="M321.908 160.746s-8.562 2.004-14.789 6.234l6.672 18.145c2.224 5.9 9.007 8.906 14.455 5.789 8.34-4.787 11.342-18.813 11.342-18.813l9.229-39.965-15.233-9.573-11.676 38.183z" fill="#FFBE9D"/><path d="M333.474 122.563l.667-13.136-3.447-13.359c-.223-.779-.334-1.67.333-2.115.667-.445 1.557-.445 2.002.111.889 1.002 5.337 12.691 5.337 12.691s6.783-4.007 7.895-4.23c1.223-.223 2.669 3.451 2.78 3.674.111.334 0 2.449 0 2.449s4.225.111 4.559.668c.333.556.445 3.562.445 3.562s1.779.556 2.001 1.892c.334 1.336.89 3.563 0 4.008-.778.445-2.557 1.447-2.557 1.447s-.667 6.791-.89 7.459c-.222.667-4.114 4.452-4.114 4.452l-15.011-9.573z" fill="#FFBE9D"/><path d="M319.352 191.137s.444.222 1.223.556c.889.334 2.224.557 3.892.334 1.667-.222 3.78-1.002 5.671-2.672 1.89-1.669 3.78-3.896 5.337-6.679a43.585 43.585 0 002.113-4.564c.556-1.67 1-3.451 1.445-5.343.89-3.785 1.779-7.793 2.78-12.134 2.002-8.572 4.225-18.146 6.672-28.499v-.111l.111-.111 2.335-2.338c.334-.445.778-.779 1.112-1.225.222-.222.334-.445.556-.667.111-.112.111-.446.222-.668.334-2.227.556-4.565.779-6.902v-.112l.111-.111c.667-.445 1.445-.779 2.113-1.224.111-.112.444-.223.444-.334.112-.112.223-.223.223-.334.111-.334 0-.78 0-1.114-.111-.779-.334-1.669-.445-2.449-.222-.668-1.001-1.113-1.779-1.447l-.223-.111v-.223c0-.668-.111-1.336-.111-2.004 0-.334-.111-.668-.111-1.001 0-.112-.111-.334-.111-.446 0-.111 0 0-.111-.111-.112 0-.112-.111-.223-.111-1.223-.334-2.668-.446-4.114-.446h-.334v-2.56c0-.223-.111-.445-.222-.779-.111-.223-.222-.557-.334-.78-.222-.556-.555-1.001-.889-1.447-.222-.222-.334-.445-.556-.556-.222-.112-.334-.112-.556-.112-.556.223-1.001.446-1.557.668a108.701 108.701 0 00-6.115 3.451l-.334.223-.111-.334c-1.001-2.672-2.113-5.232-3.114-7.793-.556-1.335-1-2.56-1.556-3.784-.223-.668-.668-1.002-1.224-1.114-.556-.111-1.223 0-1.445.557-.111.222-.223.556-.223.78 0 .222.112.667.223.89.222.668.333 1.336.556 1.892.333 1.225.667 2.561 1.001 3.785.667 2.449 1.334 4.898 1.89 7.347-.222 4.564-.445 8.906-.667 13.136-4.226 13.693-7.673 25.047-10.119 32.951-1.223 3.897-2.224 7.013-2.891 9.24-.334 1.002-.556 1.892-.778 2.449-.223.557-.334.779-.334.779s.111-.334.222-.89c.112-.557.445-1.336.668-2.449.667-2.116 1.556-5.232 2.779-9.24 2.447-8.015 5.783-19.37 9.897-33.062v.111c.222-4.23.333-8.572.556-13.136v.111c-.667-2.449-1.335-4.898-1.891-7.347-.333-1.224-.667-2.56-1-3.785-.223-.668-.334-1.224-.556-1.892-.111-.334-.223-.557-.223-1.002 0-.334 0-.78.223-1.113.222-.334.556-.668.889-.78.445-.111.779-.111 1.112 0 .334.112.779.223 1.001.557.334.223.445.668.556 1.002.556 1.224 1.001 2.56 1.557 3.785 1 2.56 2.112 5.121 3.113 7.792l-.445-.111a108.108 108.108 0 016.116-3.451c.556-.223 1.001-.557 1.668-.779.111 0 .334-.112.556-.112.222 0 .445.112.556.223.334.223.556.445.667.668.334.445.667 1.002 1.001 1.558.111.223.222.557.445.78.111.334.333.556.333.89v2.227l-.333-.334c1.445.111 2.78.111 4.225.445.111 0 .222.111.334.111.111 0 .222.223.333.334.111.223.111.334.223.557.111.334.111.668.111 1.002.111.668.111 1.336.111 2.004l-.222-.223c.889.334 1.668.779 2.112 1.781.223.891.445 1.67.556 2.56 0 .446.112.891 0 1.336 0 .223-.222.557-.444.668-.223.223-.334.223-.556.334-.668.446-1.446.779-2.113 1.225l.111-.223c-.222 2.338-.445 4.564-.778 6.902l-.112.445c0 .112-.111.334-.222.446-.222.222-.333.445-.556.668-.333.445-.778.779-1.112 1.224l-2.335 2.338.111-.112c-2.446 10.353-4.67 19.927-6.783 28.499-1 4.341-2.001 8.349-2.891 12.022-.444 1.893-.889 3.674-1.445 5.344-.556 1.67-1.335 3.228-2.113 4.675-1.557 2.783-3.558 5.01-5.448 6.791-2.002 1.67-4.115 2.449-5.894 2.56-1.779.223-3.113-.111-4.003-.445-.445-.111-.778-.334-.889-.445.111.668 0 .668 0 .668z" fill="#EB996E"/><path d="M349.263 108.648c0 .111-.333.111-1 .111-.556 0-1.335 0-2.224.223-.779.222-1.446.668-1.891 1.001-.444.334-.556.668-.667.668-.111 0 0-.445.334-.89.333-.557 1.112-1.113 2.001-1.336.89-.223 1.779-.223 2.335-.111.779.111 1.112.222 1.112.334z" fill="#EB996E"/><path d="M345.854 107.978c-.129.345-.094.678.079.742.172.065.417-.162.546-.508.129-.345.094-.678-.079-.743-.172-.064-.417.163-.546.509zm8.636 4.789c0 .222-1.446.333-3.336.445-.89.111-1.557.445-1.891.89-.333.446-.222.78-.333.891 0 0-.334-.334-.111-1.002.111-.334.444-.668.778-.891.445-.222.89-.333 1.334-.445 2.002-.111 3.559 0 3.559.112zm-.587 5.859c.044-.983-.069-1.786-.253-1.794-.184-.009-.369.781-.414 1.764-.044.983.069 1.786.253 1.794.185.009.37-.781.414-1.764z" fill="#EB996E"/><path d="M358.27 146.719l1-3.45c.223-.668 1.112-.891 1.557-.446l1.334 1.336.779-3.228c.222-.891 1.334-1.002 1.779-.223l1.779 3.785-8.228 2.226zm4.324.772c2.205-.547 3.957-1.136 3.913-1.315-.044-.179-1.868.119-4.074.666-2.206.547-3.958 1.136-3.913 1.315.044.179 1.868-.119 4.074-.666zm-62.146-20.364s-.445.445-1.001 1.336c-.556.89-1.223 2.338-1.557 4.23-.333 1.892-.333 4.119-.222 6.679.111 2.561.333 5.232.667 8.127.556 5.788 1.557 11.021 2.335 14.694.445 1.893.778 3.34 1.001 4.453.111.445.222.891.333 1.225.112.222.112.445.112.445s0-.112-.112-.445c-.111-.334-.222-.78-.333-1.225-.223-1.002-.667-2.56-1.112-4.342-.89-3.673-1.779-8.905-2.446-14.694a117.074 117.074 0 01-.668-8.238c-.111-2.56-.111-4.787.223-6.679.333-1.892 1.001-3.34 1.557-4.23.778-1.002 1.223-1.336 1.223-1.336zm23.35-15.14s-.111 0-.222.112c-.223.111-.445.222-.779.334l-2.668 1.335a85.249 85.249 0 00-8.34 5.233 444.291 444.291 0 00-8.006 5.677c-.889.668-1.779 1.224-2.446 1.781-.223.111-.445.334-.667.445-.112.112-.223.112-.223.112l.223-.223c.222-.111.444-.334.667-.445.667-.557 1.445-1.113 2.446-1.781 2.002-1.559 4.782-3.563 8.006-5.789 3.225-2.227 6.116-4.008 8.451-5.232l2.669-1.336c.222-.111.556-.223.778-.334 0 .111.111.111.111.111zm53.041 7.236s-.112 0-.223-.111l-.445-.445c-.444-.334-1.112-.891-2.001-1.448-1.668-1.113-4.226-2.449-7.117-3.673a88.044 88.044 0 00-7.672-2.561c-1.001-.222-1.779-.445-2.335-.668-.223-.111-.445-.111-.667-.111-.112 0-.223-.111-.223-.111h.223c.222 0 .444.111.667.111.556.111 1.334.334 2.335.557 2.001.556 4.781 1.336 7.672 2.449 2.891 1.224 5.449 2.449 7.117 3.673 1.89 1.336 2.669 2.338 2.669 2.338zm-52.706 84.938s-.111 0-.445-.111l-1.112-.557c-.89-.556-2.113-1.67-2.446-3.228-.334-1.559 0-3.117.444-4.119.223-.445.445-.89.668-1.113l.333-.334s-.445.557-.778 1.447c-.445.891-.667 2.449-.334 4.008.334 1.558 1.446 2.56 2.335 3.228.779.557 1.335.779 1.335.779z" fill="#fff"/><path d="M321.12 193.535c-.224-.767-.453-1.375-.512-1.358-.059.017.075.653.299 1.42.224.767.453 1.375.512 1.358.059-.017-.075-.653-.299-1.42z" fill="#fff"/><path d="M335.586 441.721l33.915-.223-.668-117.444-.222-119.336-45.924-.557-8.228 15.585c-3.336 6.234-5.56 13.136-6.338 20.149-.556 5.344 3.447 22.933 4.893 27.497l12.676 40.187 9.896 134.142z" fill="#263238"/><path d="M378.618 204.94l37.251 101.748c4.336 13.581 2.891 27.162-4.559 39.742l-43.255 84.604-24.352-30.502 36.25-75.699-32.024-51.875 5.337-67.906 15.011-.223 10.341.111z" fill="#263238"/><path d="M365.498 239.005v.556c0 .334 0 .891.111 1.559.111 1.336.223 3.339.334 5.9.222 5.121.556 12.579 1.001 21.708.444 9.128.889 20.037 1.445 32.171.223 6.012.556 12.357.89 19.036.222 3.34.111 6.68.111 10.019v10.353c0 27.942.111 53.323.111 71.691v27.608c0-1.336 0-3.34-.111-5.9 0-5.121-.111-12.58-.111-21.708-.111-18.368-.223-43.638-.334-71.691v-10.353c0-3.451.111-6.79-.111-10.019-.334-6.568-.556-12.913-.778-19.036a3538.774 3538.774 0 01-1.335-32.171c-.333-9.129-.667-16.587-.889-21.708-.112-2.561-.112-4.564-.223-5.9v-1.559c-.111-.445-.111-.556-.111-.556zm-.779-32.061s.112.334.223 1.113c.111.668.222 1.782.445 3.006.333 2.561.556 6.123.778 10.13.222 4.008.222 7.57.111 10.131 0 1.335-.111 2.337-.111 3.117 0 .779-.111 1.113-.111 1.113-.111 0-.111-1.559-.111-4.23 0-2.561-.112-6.123-.334-10.131-.222-3.896-.445-7.458-.667-10.13-.223-2.56-.334-4.119-.223-4.119zm-7.56 2.227c.111.111-.556.334-.778 1.224-.112.446 0 1.002.444 1.336.445.334 1.112.557 1.668.334.556-.223.89-.891.89-1.447 0-.557-.334-1.002-.779-1.225-.778-.334-1.334-.111-1.445-.222 0 0 .111-.112.445-.223a1.613 1.613 0 011.223.111c.445.223 1.001.78 1.112 1.559 0 .779-.334 1.67-1.112 2.004-.89.334-1.779.111-2.224-.446-.556-.556-.667-1.335-.445-1.781.111-.556.445-.89.667-1.002.223-.222.334-.222.334-.222zm-17.791-2.004s.222.334.333 1.113c.111.668.223 1.781.111 3.006-.111 1.224-.556 2.783-1.334 4.341-.778 1.559-2.002 3.006-3.558 4.231-1.668 1.113-3.447 1.781-5.115 2.003a14.45 14.45 0 01-4.448-.111c-1.223-.334-2.224-.668-2.78-1.113-.667-.334-.889-.557-.889-.668 0-.111 1.334.779 3.78 1.336 2.446.445 6.116.222 9.229-1.893 3.114-2.226 4.448-5.677 4.782-8.126.222-2.561-.223-4.119-.111-4.119zm43.699 9.796c0 .112-.889.112-2.113-.222-1.334-.334-3.002-1.225-4.336-2.783-1.335-1.559-2.113-3.34-2.335-4.676-.223-1.336-.112-2.115 0-2.115.111 0 .111.779.444 2.115.334 1.225 1.112 2.894 2.447 4.342 1.334 1.447 2.891 2.337 4.114 2.783.89.334 1.779.445 1.779.556zM396.3 326.615s-.668.779-2.002 1.558c-.667.445-1.557.891-2.557 1.113-1.001.223-2.224.334-3.448-.111-2.335-.779-3.891-2.56-4.781-3.785-.889-1.225-1.334-2.115-1.334-2.115.111 0 .667.668 1.668 1.892 1 1.114 2.446 2.783 4.559 3.451 2.224.78 4.225-.111 5.559-.779 1.446-.779 2.224-1.336 2.336-1.224zm-12.049 2.079c1.815 2.556 3.409 4.54 3.559 4.433.15-.107-1.2-2.265-3.015-4.82-1.816-2.555-3.409-4.54-3.559-4.433-.15.107 1.2 2.265 3.015 4.82z" fill="#455A64"/><path d="M329.811 241.51c.342.857.758 1.495.929 1.427.171-.069.032-.818-.31-1.675-.342-.856-.758-1.495-.929-1.426-.171.068-.033.818.31 1.674zm22.566 4.508c.184 0 .333-.548.333-1.224 0-.677-.149-1.225-.333-1.225-.185 0-.334.548-.334 1.225 0 .676.149 1.224.334 1.224zm-9.295 10.173c.059.859.255 1.545.439 1.533.183-.013.285-.719.227-1.578-.058-.859-.254-1.545-.438-1.532-.184.012-.286.719-.228 1.577zm-15.723 10.199c-.112.111-.556-.334-1.224-.779-.556-.446-1.112-.78-1.112-.891 0-.111.779-.111 1.446.445.667.446 1.001 1.114.89 1.225zm28.846 9.679c-.341.512-.492 1.009-.339 1.112.153.102.554-.23.894-.741.341-.512.493-1.009.339-1.112-.153-.102-.553.23-.894.741zm-18.061 4.236c.184 0 .334-.897.334-2.004s-.15-2.004-.334-2.004c-.184 0-.333.897-.333 2.004s.149 2.004.333 2.004zm-7.023 11.97c.646.47 1.257.73 1.366.58.108-.149-.328-.651-.974-1.12-.646-.47-1.257-.73-1.365-.581-.109.149.327.651.973 1.121zm18.379 5.592c.505-.225.854-.544.779-.712-.075-.169-.545-.123-1.05.102-.505.224-.854.543-.779.712.075.168.545.123 1.05-.102zm-12.607 17.647c.577 1.155 1.178 2.024 1.342 1.941.165-.082-.169-1.085-.745-2.24-.577-1.155-1.178-2.024-1.343-1.941-.165.082.169 1.085.746 2.24zm21.497-1.553c-.462.868-.705 1.642-.542 1.729.162.087.669-.547 1.131-1.415.463-.868.706-1.642.543-1.728-.163-.087-.669.546-1.132 1.414zm-9.126 18.888c-.111 0-.111-.891-.334-1.893-.111-1.002-.445-1.892-.333-2.004.111-.111.667.668.889 1.893.223 1.113-.111 2.004-.222 2.004zm-10.443 8.94c.579.637 1.158 1.052 1.294.928.137-.124-.222-.741-.8-1.377-.579-.637-1.158-1.053-1.294-.929-.137.124.222.741.8 1.378zm24.537 3.246c-.603.613-.986 1.215-.855 1.344.132.13.727-.263 1.33-.876.604-.613.986-1.215.855-1.344-.131-.13-.727.262-1.33.876zm-13.878 14.259c-.156 1.033-.136 1.893.047 1.921.182.028.456-.787.613-1.821.157-1.033.136-1.893-.046-1.921-.182-.028-.457.788-.614 1.821zm-9.739 7.782c.466.796.972 1.365 1.131 1.272.159-.093-.089-.814-.555-1.61-.465-.796-.971-1.365-1.13-1.272-.159.093.089.814.554 1.61zm20.711 11.575c.799-.573 1.36-1.158 1.253-1.308-.108-.15-.842.192-1.641.765s-1.36 1.158-1.253 1.308c.108.15.842-.192 1.641-.765zm-16.082 10.415c-.111-.112 0-1.002.111-2.115.112-1.114.112-2.004.223-2.004s.445.89.333 2.115c-.111 1.225-.556 2.115-.667 2.004zm5.868 16.042c.461.576.951.949 1.094.834.144-.115-.112-.675-.573-1.252-.46-.576-.95-.949-1.094-.834-.144.115.113.676.573 1.252zm-7.9 10.624c.626.912 1.257 1.566 1.409 1.462.152-.105-.233-.929-.859-1.841-.626-.911-1.257-1.566-1.409-1.462-.152.105.233.929.859 1.841zm22.348-13.598c-.172.46-.172.886 0 .951.173.065.452-.256.625-.717.172-.46.172-.886 0-.951-.173-.065-.452.256-.625.717zm-9.307 27.787c-.111-.112.111-.891.334-1.893.222-1.002.333-1.781.445-1.781.111 0 .333.891.111 2.004-.223 1.002-.779 1.781-.89 1.67zm5.148-173.052c.287.612.654 1.045.821.967.167-.078.07-.638-.216-1.251-.287-.612-.654-1.045-.821-.967-.167.078-.07.638.216 1.251zm-14.6-33.672c.111.112-.667.779-1.557 1.67-.889.891-1.445 1.67-1.556 1.67-.112-.112.222-1.113 1.112-2.004 1-1.002 2.001-1.447 2.001-1.336zm13.788-.334c-.111 0-.445-.668-.778-1.447-.334-.779-.779-1.336-.668-1.447.112-.111.779.334 1.112 1.224.445.78.445 1.559.334 1.67zm-42.476 9.655c-.339.858-.474 1.608-.303 1.676.171.068.585-.572.923-1.43.339-.858.475-1.608.303-1.676-.171-.067-.584.573-.923 1.43zm-.441 17.626c.661.551 1.292.883 1.41.741.117-.141-.322-.703-.983-1.254-.66-.551-1.291-.883-1.409-.741-.118.141.322.703.982 1.254zm28.869-41.201c.228.571.551.978.722.909.171-.068.125-.586-.103-1.157-.228-.571-.552-.978-.723-.91-.171.069-.125.587.104 1.158zm27.645 7.672c-.17.781-.163 1.446.017 1.485.18.04.464-.561.635-1.342.171-.781.164-1.446-.016-1.485-.18-.039-.465.561-.636 1.342zm6.679 12.307c-.397.966-.581 1.806-.411 1.877.17.07.631-.657 1.028-1.623.398-.967.582-1.807.412-1.877-.171-.071-.631.656-1.029 1.623zm-6.102 10.453c.522 1.044 1.078 1.824 1.243 1.742.165-.083-.124-.996-.646-2.041s-1.079-1.825-1.243-1.743c-.165.083.124.997.646 2.042zm10.995 10.582c-.287.746-.38 1.404-.208 1.47.172.067.544-.485.83-1.231.287-.746.38-1.404.208-1.47-.172-.066-.544.485-.83 1.231zm-9.562 10.829c.293.469.657.77.813.672.157-.097.046-.557-.247-1.026s-.657-.771-.813-.673c-.157.098-.046.558.247 1.027zm1.026 20.196c.752.811 1.471 1.367 1.606 1.241.135-.125-.365-.885-1.117-1.696-.753-.811-1.472-1.366-1.607-1.241-.135.126.365.885 1.118 1.696zm11.445-11.996c.607.774 1.217 1.309 1.362 1.195.145-.114-.23-.834-.837-1.607-.607-.774-1.217-1.308-1.362-1.194-.144.113.23.833.837 1.606zm8.095 15.816c-.447.944-.675 1.774-.508 1.853.166.079.664-.622 1.111-1.567.447-.944.675-1.774.508-1.853-.166-.079-.664.623-1.111 1.567zm-13.6 15.429c-.111.112-.667-.556-1.335-1.224-.667-.668-1.334-1.113-1.334-1.225.111-.111.89.112 1.668.891.778.668 1.112 1.447 1.001 1.558zm-.444 14.25c.676 0 1.223-.15 1.223-.334 0-.185-.547-.334-1.223-.334-.675 0-1.223.149-1.223.334 0 .184.548.334 1.223.334zm14.789-4.231c-.111-.111.111-.779.334-1.669.222-.891.333-1.67.444-1.67.112 0 .334.779.112 1.781-.223 1.002-.779 1.67-.89 1.558zm12.451 2.968c.346.986.767 1.736.941 1.675.173-.061.034-.91-.311-1.896-.346-.986-.767-1.736-.941-1.675-.174.061-.035.91.311 1.896zm-.491 18.773c-.57 1.089-.9 2.041-.737 2.127.163.085.758-.728 1.328-1.817.571-1.089.901-2.042.737-2.127-.163-.086-.757.728-1.328 1.817zm-14.045 11.597c.419 1.024.898 1.797 1.068 1.727.171-.07-.031-.957-.451-1.981-.42-1.023-.899-1.796-1.069-1.726-.171.07.032.956.452 1.98zm-13.483 6.404c.553 0 1.001-.149 1.001-.334 0-.184-.448-.334-1.001-.334-.553 0-1.001.15-1.001.334 0 .185.448.334 1.001.334zm8.059 16.065c.221.832.545 1.468.723 1.42.178-.047.143-.76-.079-1.592-.221-.831-.545-1.467-.723-1.419-.178.047-.143.76.079 1.591zm-8.78-5.66c-.348.58-.502 1.127-.344 1.222.158.095.568-.299.916-.879.347-.579.501-1.126.343-1.221-.158-.095-.568.298-.915.878zm-1.152 19.223c.114.977.356 1.751.539 1.73.183-.022.238-.831.123-1.808-.114-.978-.356-1.752-.539-1.731-.183.022-.238.832-.123 1.809z" fill="#FAFAFA"/><g opacity=".7" fill="#fff"><circle cx="409.409" cy="49" r="29.592"/><path d="M375.5 77.976c4.932-2.466 9.864-10.892 11.714-14.796 3.288.41 11.951 3.57 8.014 8.63-4.315 5.55-15.412 6.782-19.728 6.166z"/></g><path d="M401.08 42.634h4.448s0-3.673 3.892-3.785c2.001 0 3.002 1.336 3.447 2.338.445 1.224.333 2.449-.334 3.562-.778 1.225-2.446 2.338-5.337 1.893V56.66h4.336v-5.9s6.116-1.559 6.116-8.35c0-6.456-5.782-8.015-8.339-8.015-1.78 0-8.229.446-8.229 8.238zm10.563 16.03h-4.448v4.12h4.448v-4.12z" fill="#F44AAF"/></svg>