<svg width="334" height="432" viewBox="0 0 334 432" fill="none" xmlns="http://www.w3.org/2000/svg"><g clip-path="url(#clip0_283_580)"><path d="M333.382 351.336c-4.782-1.063-9.67-.638-14.559.106-4.25.638-8.501 1.489-12.858 1.808-4.145.319-8.395-.107-12.433-1.17-7.758-2.126-14.878-6.698-19.872-13.078-6.27-.851-12.753-.744-18.916.213 2.975.85 5.738 2.02 8.395 3.508a37.821 37.821 0 0114.134 13.929 39.113 39.113 0 015.207 18.182c0 .212-.319.531-.532.425-3.294-1.063-6.376-2.552-9.139-4.572-5.101-3.509-9.245-8.293-12.539-13.397-3.613-5.423-6.376-11.377-9.139-17.331v-.106a67.743 67.743 0 00-23.698 10.101l-2.232 1.913c-3.613 3.084-7.438 6.061-11.477 8.719a53.25 53.25 0 019.883-1.595c7.864-.531 15.834.745 23.167 3.509 7.332 2.871 14.027 7.23 19.553 12.865.213.213.106.745-.319.745-4.888-.107-9.67-.213-14.558-.319-4.251-.107-8.608-.107-12.859-.319-4.144-.213-8.289-.638-12.327-1.808-6.164-1.807-12.008-5.741-14.665-11.696-.106 0-.212.107-.319.107-8.182 5.316-16.896 9.569-26.142 12.865-1.062.319-1.487-1.276-.531-1.595 8.076-2.871 15.834-6.592 23.166-11.058.744-.425 1.488-.957 2.232-1.382-.531-4.572-1.169-9.144-1.381-13.716-.213-4.359-.107-8.719.531-12.972.637-4.359 1.913-8.399 3.507-12.546 3.188-8.081 7.332-15.842 8.501-24.561.106-.425.638-.425.85 0 1.701 4.785 2.763 9.782 3.295 14.779.956 8.931.106 18.182-2.445 26.794-2.019 7.124-5.313 13.929-9.564 20.096 4.357-2.977 8.608-6.38 12.54-9.889l.106-.106.106-.106c5.845-5.317 11.159-11.164 15.941-17.438 1.7-2.339 3.4-4.678 4.888-7.123a63.683 63.683 0 01-5.207-11.271c-2.763-7.762-4.038-15.949-3.826-24.242.213-8.187 1.913-16.374 5.101-23.923.106-.319.638-.319.744 0 1.807 4.146 3.401 8.399 4.569 12.865a90.537 90.537 0 013.189 23.817c0 6.167-.638 12.334-1.807 18.394 2.657-4.465 4.995-9.144 7.12-13.928.956-3.934 1.594-7.975 2.338-12.015 1.488-8.825 2.869-17.863 6.907-26.05 3.295-6.698 8.395-12.759 15.303-15.842.319-.107.744.106.637.425-.956 4.678-1.806 9.357-2.975 14.035-1.807 7.868-4.145 15.63-7.758 22.86-3.294 6.698-7.545 12.865-13.177 17.862-.956 2.127-1.913 4.147-2.869 6.167a103.832 103.832 0 01-4.145 7.549c2.02-1.594 4.039-2.977 6.164-4.359 6.376-3.828 13.39-6.592 20.722-8.187 7.226-1.488 14.771-1.807 22.104-.744.425.106.425.638.106.744l-12.327 9.25c-3.082 2.34-6.163 4.785-9.67 6.486-3.082 1.489-6.376 2.658-9.777 3.296-6.801 1.276-13.921.745-20.297-1.807-4.463 6.805-9.564 13.078-15.196 18.819 1.806-.957 3.719-1.914 5.738-2.764 4.357-1.808 8.82-3.19 13.39-4.04a69.452 69.452 0 0121.997-.638c4.145-1.914 8.502-3.19 13.071-3.934 8.502-1.383 17.322-.638 25.398 2.339 8.183 2.977 15.622 8.08 21.254 14.779.319.851.106 1.382-.319 1.276zM.444 418.746c4.782-1.063 9.67-.638 14.559.106 4.25.638 8.501 1.489 12.858 1.808 4.145.319 8.396-.106 12.434-1.17 7.757-2.126 14.877-6.698 19.872-13.078 6.27-.85 12.752-.744 18.915.213a38.916 38.916 0 00-8.395 3.509 37.817 37.817 0 00-14.133 13.928 39.11 39.11 0 00-5.207 18.182c0 .213.318.532.53.425 3.295-1.063 6.377-2.551 9.14-4.572 5.1-3.508 9.245-8.293 12.54-13.397 3.613-5.422 6.376-11.376 9.139-17.331v-.106a67.757 67.757 0 0123.697 10.101l2.232 1.914c3.613 3.083 7.439 6.06 11.477 8.718a53.15 53.15 0 00-9.883-1.594c-7.864-.532-15.834.744-23.166 3.508-7.333 2.871-14.028 7.23-19.554 12.866-.212.212-.106.744.32.744 4.887-.106 9.67-.213 14.558-.319 4.25-.106 8.608-.106 12.858-.319 4.145-.213 8.289-.638 12.327-1.808 6.164-1.807 12.009-5.741 14.665-11.695.107 0 .213.106.319.106 8.183 5.316 16.897 9.569 26.142 12.865 1.063.319 1.488-1.276.531-1.595a121.07 121.07 0 01-23.06-11.057c-.744-.426-1.488-.957-2.231-1.383.531-4.572 1.168-9.144 1.381-13.716.213-4.359.106-8.718-.531-12.971-.638-4.253-1.913-8.4-3.507-12.547-3.188-8.08-7.333-15.842-8.502-24.561-.106-.425-.743-.425-.85 0-1.7 4.785-2.763 9.782-3.294 14.779-.956 8.932-.106 18.182 2.444 26.794 2.019 7.124 5.314 13.929 9.564 20.096-4.357-2.977-8.607-6.38-12.539-9.888l-.107-.107-.106-.106c-5.845-5.316-11.158-11.164-15.94-17.437-1.7-2.34-3.4-4.679-4.888-7.124 2.125-3.615 3.825-7.337 5.207-11.271 2.763-7.761 4.038-15.948 3.825-24.242-.212-8.187-1.912-16.374-5.1-23.923-.107-.319-.638-.319-.744 0-1.807 4.147-3.401 8.4-4.57 12.865a90.561 90.561 0 00-3.188 23.817c0 6.167.638 12.334 1.807 18.395-2.657-4.466-4.995-9.144-7.12-13.929-.957-3.934-1.594-7.975-2.338-12.015-1.488-8.825-2.87-17.863-6.908-26.05-3.294-6.698-8.395-12.759-15.302-15.842-.319-.106-.744.106-.638.425.957 4.679 1.807 9.357 2.976 14.035 1.806 7.868 4.144 15.63 7.757 22.86 3.294 6.699 7.545 12.865 13.177 17.863a348.099 348.099 0 002.87 6.167 104.439 104.439 0 004.144 7.549c-2.019-1.595-4.038-2.977-6.163-4.36a68.638 68.638 0 00-20.723-8.187c-7.226-1.488-14.77-1.807-22.103-.744-.425.106-.425.532-.107.744l12.327 9.251c3.082 2.339 6.164 4.784 9.67 6.486 3.083 1.488 6.377 2.658 9.778 3.296 6.8 1.275 13.92.744 20.297-1.808 4.463 6.805 9.564 13.078 15.196 18.82-1.807-.957-3.72-1.914-5.739-2.765-4.356-1.807-8.82-3.19-13.39-4.04a69.484 69.484 0 00-21.997-.638c-4.144-1.914-8.501-3.19-13.07-3.934-8.502-1.382-17.322-.638-25.399 2.339-8.182 2.977-15.515 8.081-21.253 14.779-.425.851-.213 1.276.212 1.276z" fill="#D2D2F7"/><path d="M236.04 305.297a188.817 188.817 0 0113.071 24.03c-67.48 17.012-109.987 5.954-124.227.956 4.888-37.213 9.776-67.304 9.776-67.304l-40.275-2.977s26.886-95.586 35.387-105.581c7.545-8.931 41.338-18.181 46.545-19.032l-.531 7.017s-3.401 23.817 13.815 23.605c17.215-.107 35.174-33.28 35.174-33.28 13.815 5.422 31.668 16.799 31.668 16.799L236.04 305.297z" fill="#F44AAF"/><path d="M273.765 433.738h-81.294l-16.259-55.608-54.622-21.478c1.063-8.931 2.125-17.863 3.294-26.262 14.134 4.997 56.641 16.055 124.227-.957 23.379 50.823 24.654 104.305 24.654 104.305z" fill="#272754"/><path d="M192.576 433.738h-77.15c.319-21.159 2.975-49.548 6.27-77.086l54.621 21.478 16.259 55.608z" fill="#18183D"/><path d="M152.513 173.985l-12.115 31.26" stroke="#272754" stroke-width="2.224" stroke-miterlimit="10" stroke-linecap="round" stroke-linejoin="round"/><path d="M139.017 222.044l-7.545 61.35-14.346 1.276-32.837 2.871a189.678 189.678 0 01-38.043-.638l-25.93-3.19c-5.95-.744-10.84-5.529-11.158-11.59-.212-4.253 1.7-8.08 4.676-10.419 0 0 .106 0 .106-.107-6.163-1.382-10.414-7.23-9.564-13.609.425-3.403 2.125-6.274 4.676-8.187.319-.213.531-.426.85-.638-4.676-2.233-7.545-7.231-6.907-12.653.425-3.403 2.125-6.273 4.675-8.187 1.488-1.17 3.188-2.02 5.101-2.339-2.338-2.552-3.613-6.167-3.188-9.889.425-3.402 2.126-6.273 4.676-8.187 2.55-1.914 5.738-2.977 9.139-2.551l26.567 3.296.637-33.812c0-2.658.32-5.21.957-7.762 2.019-7.549 5.951-11.483 10.202-13.397 2.338-1.063 4.782-1.063 6.907-.212 3.613 1.382 6.27 5.21 5.738 9.569l-1.168 9.144c-.957 8.081 1.062 16.268 5.738 22.966l2.02 2.871c3.612 5.21 8.82 9.25 14.77 11.696l11.477 5.848 7.227 3.721 24.547 12.759z" fill="#fff"/><path d="M139.017 222.044l-7.545 61.35-14.346 1.276-32.837 2.871a189.678 189.678 0 01-38.043-.638l-25.93-3.19c-5.95-.744-10.84-5.529-11.158-11.59-.212-4.253 1.7-8.08 4.676-10.419 0 0 .106 0 .106-.107-6.163-1.382-10.414-7.23-9.564-13.609.425-3.403 2.125-6.274 4.676-8.187.319-.213.531-.426.85-.638-4.676-2.233-7.545-7.231-6.907-12.653.425-3.403 2.125-6.273 4.675-8.187 1.488-1.17 3.188-2.02 5.101-2.339-2.338-2.552-3.613-6.167-3.188-9.889.425-3.402 2.126-6.273 4.676-8.187 2.55-1.914 5.738-2.977 9.139-2.551l26.567 3.296.637-33.812c0-2.658.32-5.21.957-7.762 2.019-7.549 5.951-11.483 10.202-13.397 2.338-1.063 4.782-1.063 6.907-.212 3.613 1.382 6.27 5.21 5.738 9.569l-1.168 9.144c-.957 8.081 1.062 16.268 5.738 22.966l2.02 2.871c3.612 5.21 8.82 9.25 14.77 11.696l11.477 5.848 7.227 3.721 24.547 12.759z" stroke="#272754" stroke-width="1.97" stroke-miterlimit="10" stroke-linecap="round" stroke-linejoin="round"/><path d="M122.758 202.374l39.957 4.891-10.733 88.782-30.818-3.722 1.594-89.951z" fill="#272754"/><path d="M49.752 198.759l14.027 1.701m-51.113 15.63l13.815 1.595M9.795 239.269l14.24 1.169m-10.201 21.266l10.308.531" stroke="#272754" stroke-width="1.97" stroke-miterlimit="10" stroke-linecap="round" stroke-linejoin="round"/><path d="M126.266 274.888l1.7 32.429s92.666 5.529 108.074-2.02c15.303-7.655 57.491-133.119 20.404-155.66-38.682-23.498-50.69 118.765-50.69 118.765l-79.488 6.486z" fill="#F44AAF"/><path d="M126.69 282.756l-19.447-7.549s-17.853-11.271-23.91-8.825c-6.164 2.445 14.027 15.949 14.027 15.949s-31.455.319-40.488-1.595c-9.033-1.914 0 8.293 0 8.293s-5.739 1.914-3.082 5.742c2.657 3.827 5.207 3.508 5.207 3.508s-5.526.851-5.207 3.403c.213 2.658 8.183 4.785 15.834 5.954 0 0-7.332.425-7.013 2.871.318 2.445 13.283 8.719 65.46-4.147l-1.381-23.604z" fill="#FFB980"/><path d="M57.51 289.242c9.139 2.02 18.49 2.871 27.736 2.658m-26.356 6.698a122.237 122.237 0 0024.974 1.595m-15.196 7.762c5.738.638 11.583.744 17.428.213m130.816-112.386l-11.158 72.62-79.488 6.486 1.7 32.429s92.666 5.529 108.074-2.02c1.594-.744 3.507-2.871 5.526-5.954" stroke="#272754" stroke-width="2.224" stroke-miterlimit="10" stroke-linecap="round" stroke-linejoin="round"/><path d="M224.669 132.731s-17.959 33.067-35.175 33.28c-17.215.106-13.815-23.605-13.815-23.605l.532-7.017.85-10.739c-14.771-1.488-26.886-13.397-28.267-28.601l-3.189-36.151.107-.744c.85.425 1.594.744 2.444 1.063 6.482 2.127 13.496 1.382 20.085-.425 11.476-3.19 22.21-9.25 30.711-17.65 2.55 9.25 5.101 18.5 7.651 27.857 1.382-2.02 3.826-3.509 6.27-3.509 3.613-.106 6.907 2.233 8.714 5.316.425.851.85 1.702 1.169 2.552.744 2.446.85 5.21.425 7.762-.956 5.954-4.676 11.483-9.777 14.78 1.594 5.103 3.188 10.1 4.782 15.204 2.126 6.805 4.357 13.716 6.483 20.627z" fill="#FFB980"/><path d="M222.757 74.252c-.319-.85-.638-1.808-1.169-2.552-1.807-3.083-5.101-5.422-8.714-5.316-2.444.106-4.888 1.488-6.27 3.509-2.55-9.25-5.101-18.501-7.651-27.858-8.501 8.4-19.235 14.46-30.711 17.65-6.589 1.808-13.603 2.552-20.085.426-.85-.32-1.7-.638-2.444-1.064-8.183-4.04-13.709-13.184-13.071-22.328.212-3.615 1.7-7.443 4.888-9.038 2.232-1.063 4.782-.744 7.333-.744 16.152 0 30.286-13.078 46.439-12.759 6.588.106 12.858 2.658 18.065 6.592a38.273 38.273 0 0111.902 15.098c5.207 12.121 4.782 25.837 1.488 38.384z" fill="#272754"/><path d="M252.618 82.12c5.314 6.06 7.014 14.885 4.463 22.541-2.656 7.549-9.457 13.503-17.321 14.992-7.864 1.488-16.472-1.595-21.573-7.656-1.594-5.103-3.188-10.101-4.782-15.204 5.101-3.296 8.821-8.719 9.777-14.78.425-2.551.319-5.316-.425-7.761 3.401-12.546 3.719-26.262-1.488-38.17-2.657-5.955-6.801-11.271-11.902-15.1 2.657-5.21 8.183-8.93 14.134-9.25 6.163-.425 12.433 2.871 15.727 8.188 3.932 6.38 3.295 14.354 5.739 21.371 1.806 4.891 4.995 9.144 7.97 13.503 2.976 4.36 5.632 9.038 6.164 14.248.531 4.997-1.701 10.845-6.483 13.078zm-75.556 42.53c1.063.106 2.126.213 3.188.213.957 0 1.913 0 2.763-.107 9.352-.85 17.428-5.741 22.635-12.865 0 0-7.12 20.308-29.33 21.584l.744-8.825zm4.993-60.18c2.763-.106 5.42.213 8.077.85 3.719.958 2.55 6.805-1.169 5.849-2.126-.532-4.251-.851-6.483-.745-3.825.106-4.357-5.848-.425-5.954zm-25.61.213c-2.763 0-5.419.319-8.076 1.063-3.719 1.063-2.444 6.911 1.275 5.848a22.259 22.259 0 016.483-.957c3.932 0 4.25-5.954.318-5.954z" fill="#272754"/><path d="M205.435 93.497c0 4.89-4.038 8.931-8.926 8.931-4.889 0-8.927-4.04-8.927-8.931 0-4.891 4.038-8.931 8.927-8.931 4.888-.107 8.926 3.933 8.926 8.93z" fill="#FFA25C"/><path d="M171.643 108.701c2.019 4.253 7.438 5.848 12.114 3.615 4.782-2.232 6.907-7.442 4.995-11.695-2.019-4.253-5.207-.107-9.883 2.126-4.782 2.339-9.246 1.808-7.226 5.954z" fill="#fff"/><path d="M173.449 99.451l-10.627-.319 4.464-27.432 6.163 27.751z" fill="#FFA25C"/><path d="M167.179 73.189l-4.357 25.943 9.033.319m48.882-22.116c-.106-1.488-.637-3.083-1.806-4.146-1.063-1.064-2.657-1.702-4.251-1.383-1.913.426-3.188 2.34-3.932 4.147-1.062 2.87-1.062 6.167 0 9.144.425 1.276 1.169 2.552 2.444 2.977 1.276.425 2.763-.212 3.72-1.276.85-1.063 1.169-2.552 1.275-3.934 0-.957-.106-2.02-.85-2.552-.744-.531-1.913-.212-2.657.426-.637.744-.85 1.7-.956 2.658m-64.929-6.273c1.594 1.382 3.719 2.02 5.845 1.807 2.125-.212 4.038-1.488 5.207-3.19m20.085.32c1.594 1.382 3.719 2.02 5.844 1.807 2.126-.213 4.039-1.489 5.208-3.19" stroke="#272754" stroke-width="1.607" stroke-miterlimit="10" stroke-linecap="round" stroke-linejoin="round"/></g><defs><clipPath id="clip0_283_580"><path fill="#fff" d="M0 0h334v432H0z"/></clipPath></defs></svg>