<svg width="307" height="307" viewBox="0 0 307 307" fill="none" xmlns="http://www.w3.org/2000/svg"><g clip-path="url(#clip0_160_13277)" fill="#EBBAEE"><path d="M249.613 33.798c-1.408-1.056-2.465-2.112-3.873-3.169L30.981 245.39c1.056 1.408 2.112 2.464 3.169 3.872L249.613 33.798zM197.156 6.337c-1.761-.352-3.521-1.056-5.281-1.408L4.929 191.875c.352 1.76 1.056 3.52 1.408 5.281L197.156 6.336zm36.966 16.547c-1.408-.704-2.816-1.76-4.224-2.464L20.419 229.898c.705 1.408 1.76 2.817 2.465 4.225L234.122 22.884zm-17.603-9.506c-1.408-.704-3.169-1.408-4.929-2.112L11.618 211.942c.704 1.761 1.408 3.169 2.112 4.929L216.52 13.378zm-41.191-11.97c-2.112-.352-4.224-.704-5.985-.704L.705 168.991c.352 2.112.352 4.224.704 5.985L175.328 1.408zm86.607 43.656l-1.76-1.76L43.303 260.176l1.76 1.76 1.76 1.76L263.696 46.825c-.704-.704-1.056-1.409-1.76-1.76zM149.979 0c-2.464 0-4.929 0-7.041.352L.352 142.938c0 2.465-.352 4.929-.352 7.041L149.979 0zM3.873 119.702L119.702 3.872c-3.168.705-6.337 1.41-9.153 2.465L5.985 110.548c-.704 2.817-1.408 5.985-2.112 9.154zm302.775 44.36c0-2.464.352-4.929.352-7.041L156.668 307c2.465 0 4.929 0 7.042-.352l142.938-142.586zm-.704-26.405c-.352-2.112-.352-4.225-.704-5.985L131.672 305.24c2.112.352 4.225.704 5.985.704l168.287-168.287zM75.342 21.124c-10.914 6.337-21.124 14.435-30.63 23.588-9.505 9.506-17.25 19.716-23.588 30.63l54.218-54.218zm225.321 175.328c1.057-3.169 1.761-5.985 2.465-9.154L187.299 303.127c3.168-.704 6.337-1.408 9.153-2.464l104.211-104.211zm-69.356 89.072c10.914-6.337 21.124-14.435 30.629-23.588 9.506-9.506 17.251-19.716 23.589-30.63l-54.218 54.218zm55.274-208.422c-.704-1.408-1.76-2.817-2.465-4.225L72.878 284.116c1.408.704 2.816 1.76 4.225 2.464L286.58 77.102zm-10.562-16.195c-1.057-1.408-2.113-2.465-3.169-3.873L57.035 272.85c1.408 1.056 2.464 2.112 3.872 3.168L276.02 60.907zm26.053 54.218c-.352-1.76-1.056-3.521-1.408-5.281L109.845 300.663c1.76.704 3.52 1.056 5.281 1.408l186.946-186.946zm-6.69-20.067c-.704-1.76-1.408-3.169-2.112-4.93L90.129 293.27c1.408.704 3.168 1.408 4.929 2.112L295.382 95.058z"/></g><defs><clipPath id="clip0_160_13277"><path fill="#fff" d="M0 0h307v307H0z"/></clipPath></defs></svg>