<svg width="194" height="85" viewBox="0 0 194 85" fill="none" xmlns="http://www.w3.org/2000/svg"><path d="M189.586 13.26L194 7.48c-14.26-10.2-32.256-9.86-46.516 1.02-11.884 9.18-26.824 9.18-39.047 0-14.6-10.88-33.274-10.88-47.874 0-11.884 9.18-26.824 9.18-39.047 0C7.596-2.38-10.739-2.72-25 7.48l4.414 5.78c5.772-4.08 11.884-6.12 18.335-6.12 6.79 0 13.581 2.38 19.353 6.8 7.13 5.44 15.28 8.16 23.768 8.16 8.488 0 16.637-2.72 23.767-8.16 11.884-9.18 26.823-9.18 39.047 0 14.6 10.88 33.274 10.88 47.874 0 11.884-8.84 26.144-9.18 38.028-.68zM-20.586 44.54c11.884-8.16 26.144-7.82 37.688 1.02 14.6 10.88 33.275 10.88 47.875 0 6.111-4.42 12.902-6.8 19.353-6.8 6.79 0 13.582 2.38 19.354 6.8 7.13 5.44 15.279 8.16 23.767 8.16 8.489 0 16.637-2.72 23.768-8.16 11.544-8.84 25.804-9.18 37.688-1.02l4.414-5.78c-14.261-10.2-32.595-9.86-46.516 1.02-11.884 9.18-26.824 9.18-39.047 0-14.6-10.88-33.274-10.88-47.874 0-11.884 9.18-26.824 9.18-39.047 0C7.595 28.9-10.739 28.56-25 38.76l4.414 5.78zM104.023 76.5c7.13 5.44 15.279 8.16 23.768 8.16 8.488 0 16.637-2.72 23.767-8.16 11.544-8.84 25.805-9.18 37.689-1.02l4.413-5.78c-14.26-10.2-32.255-9.86-46.516 1.02-11.884 9.18-26.823 9.18-39.046 0-14.6-10.88-33.275-10.88-47.875 0-11.883 9.18-27.163 9.18-39.046 0C7.595 60.18-10.74 59.84-25 69.7l4.414 5.78c11.884-8.16 26.144-7.82 37.688 1.02 14.6 10.88 33.275 10.88 47.875 0 6.111-4.42 12.902-6.8 19.353-6.8 6.79 0 13.582 2.38 19.693 6.8z" opacity=".3" fill="#A890A9"/></svg>