<svg width="48" height="31" viewBox="0 0 48 31" fill="none" xmlns="http://www.w3.org/2000/svg"><g clip-path="url(#clip0_160_13200)"><path d="M22 10.888C22 4.839 17.077 0 10.923 0S0 4.839 0 10.888c0 6.049 4.923 10.888 11.077 10.888A9.1 9.1 0 0014 21.322c-1.846 5.444-6.462 9.376-6.462 9.376l.77.302s6.153-3.327 10-8.77c3.846-5.445 3.846-10.737 3.846-10.737C22 11.34 22 11.19 22 10.888z" fill="#74007A"/></g><g clip-path="url(#clip1_160_13200)"><path d="M48 10.888C48 4.839 43.077 0 36.923 0S26 4.839 26 10.888c0 6.049 4.923 10.888 11.077 10.888A9.1 9.1 0 0040 21.322c-1.846 5.444-6.462 9.376-6.462 9.376l.77.302s6.154-3.327 10-8.77c3.846-5.445 3.846-10.737 3.846-10.737C48 11.34 48 11.19 48 10.888z" fill="#74007A"/></g><defs><clipPath id="clip0_160_13200"><path fill="#fff" d="M0 0h22v31H0z"/></clipPath><clipPath id="clip1_160_13200"><path fill="#fff" transform="translate(26)" d="M0 0h22v31H0z"/></clipPath></defs></svg>