<svg width="94" height="125" viewBox="0 0 94 125" fill="none" xmlns="http://www.w3.org/2000/svg"><path d="M94 119l-10-5.774v11.547L94 119zM0 0v2.058h2V0H0zm0 6.173v4.116h2V6.173H0zm0 8.23v4.116h2v-4.115H0zm0 8.232v4.115h2v-4.115H0zm0 8.23v4.116h2v-4.116H0zm0 8.231v4.116h2v-4.116H0zm0 8.23v4.116h2v-4.115H0zm0 8.232v4.115h2v-4.115H0zm0 8.23v4.116h2v-4.116H0zm0 8.231v4.116h2v-4.116H0zm0 8.231v4.115h2V80.25H0zm0 8.23v4.116h2v-4.115H0zm0 8.231v4.116h2v-4.115H0zm0 8.231V107h2v-2.058H0zM0 107c0 .867.085 1.715.247 2.536l1.962-.388A11.06 11.06 0 012 107H0zm2.19 7.224a13.071 13.071 0 003.586 3.586l1.113-1.662a11.075 11.075 0 01-3.037-3.037l-1.662 1.113zm8.274 5.529c.821.162 1.67.247 2.536.247v-2a11.08 11.08 0 01-2.148-.209l-.388 1.962zM13 120h2.025v-2H13v2zm6.075 0h4.05v-2h-4.05v2zm8.1 0h4.05v-2h-4.05v2zm8.1 0h4.05v-2h-4.05v2zm8.1 0h4.05v-2h-4.05v2zm8.1 0h4.05v-2h-4.05v2zm8.1 0h4.05v-2h-4.05v2zm8.1 0h4.05v-2h-4.05v2zm8.1 0h4.05v-2h-4.05v2zm8.1 0h4.05v-2h-4.05v2z" fill="#DDBCDF"/></svg>