<?xml version="1.0" encoding="utf-8"?><svg xmlns="http://www.w3.org/2000/svg" xmlns:xlink="http://www.w3.org/1999/xlink"><symbol viewBox="0 0 20 20" id="close" xmlns="http://www.w3.org/2000/svg"><path d="M1 .62l18.5 18.5m0-18.5L1 19.12"/></symbol><symbol viewBox="0 0 45 30" id="employees" xmlns="http://www.w3.org/2000/svg"><path d="M22.043 14.26a4.364 4.364 0 004.362-4.365 4.364 4.364 0 10-4.363 4.365zm13.541 1.632c.228.303.57.455.949.455.38 0 .72-.19.948-.493l2.542-3.416a6.374 6.374 0 00-2.39-.455h-2.2c-.873 0-1.707.19-2.466.493l2.617 3.416zm5.425-2.922l-2.656 3.567c-.341.456-.797.76-1.328.873v8.881h7.019v-7.78c.076-2.353-1.176-4.365-3.035-5.541zm-7.626-5.618c-.494 0-.949-.038-1.328-.076a4.36 4.36 0 004.287 3.53 4.34 4.34 0 004.363-4.365c0-.493-.076-.986-.228-1.442a11.716 11.716 0 01-7.094 2.353zm6.564-3.378c.417-.417.72-.987.72-1.594A2.106 2.106 0 0038.581.293a2.056 2.056 0 00-2.049 1.822h-.152c-2.276 0-4.173 1.783-4.362 4.023 1.63.19 4.894.19 7.929-2.164zM21.434 23.103l-4.439-6.338a6.473 6.473 0 00-2.542 5.162v7.78h6.98v-6.604zm.529-1.176a637.473 637.473 0 013.983-5.845 6.478 6.478 0 00-2.807-.646h-2.2a6.59 6.59 0 00-2.998.722l4.022 5.769zm4.972-5.276c-1.366 2.012-3.073 4.517-4.363 6.414v6.642h7.095v-7.78c0-2.164-1.1-4.1-2.732-5.276zM7.587 10.844a4.364 4.364 0 004.363-4.365 4.364 4.364 0 10-4.363 4.365zm-.607 8.843L2.543 13.35C.986 14.526 0 16.385 0 18.511v7.78h6.98v-6.604zm.53-1.177a634.151 634.151 0 013.983-5.844 6.478 6.478 0 00-2.807-.645h-2.2c-1.1 0-2.087.265-2.998.72l4.022 5.77z"/><path d="M28.908 23.673v1.1a.606.606 0 00.304-.531c0-.228-.152-.456-.304-.57zm5.768-7.098l-2.769-3.568a6.54 6.54 0 00-2.807 3.834c1.1 1.328 1.783 2.998 1.783 4.858v4.554h5.045V17.41a2.53 2.53 0 01-1.252-.835zm-19.656.265a7.738 7.738 0 00-1.593 3.265c-.076.295-.228 1.034-.228 1.632v4.554H8.115V19.65a2553.18 2553.18 0 014.401-6.452 6.508 6.508 0 012.504 3.644z"/></symbol><symbol viewBox="0 0 8 16" id="facebook" xmlns="http://www.w3.org/2000/svg"><path d="M5.9 3H8V0H5.6C2.7.1 2 1.7 2 3.5V5H0v3h2v8h3V8h2.5L8 5H5v-.9c0-.6.4-1.1.9-1.1z"/></symbol><symbol viewBox="0 0 17 17" id="instagram" xmlns="http://www.w3.org/2000/svg"><path fill-rule="evenodd" clip-rule="evenodd" d="M14.293 0H2.707A2.68 2.68 0 000 2.707v11.586A2.68 2.68 0 002.707 17h11.586A2.68 2.68 0 0017 14.293V2.707A2.68 2.68 0 0014.293 0zm1.137 13.373c0 1.137-.92 2.057-2.057 2.057H3.627a2.056 2.056 0 01-2.057-2.057V3.627c0-1.137.92-2.057 2.057-2.057h9.746c1.137 0 2.057.92 2.057 2.057v9.746z"/><path d="M8.554 12.615A4.113 4.113 0 014.44 8.5a4.113 4.113 0 014.115-4.115A4.113 4.113 0 0112.67 8.5a4.113 4.113 0 01-4.115 4.115zm4.44-7.635a1.191 1.191 0 100-2.381 1.191 1.191 0 000 2.382z"/></symbol><symbol viewBox="0 0 20 27" id="location" xmlns="http://www.w3.org/2000/svg"><g clip-path="url(#eclip0_160_13101)"><path d="M10.03 27C8.37 27 0 15.447 0 10.235 0 4.584 4.492 0 10.03 0c5.54 0 10.031 4.584 10.031 10.235C20 15.258 11.57 27 10.031 27zm0-25.744c-4.86 0-8.8 4.018-8.8 8.979 0 4.646 7.2 14.128 8.74 15.446 1.538-1.381 8.8-10.737 8.8-15.446 0-4.96-3.94-8.98-8.74-8.98z"/><path d="M10.03 15.76c-3.015 0-5.415-2.511-5.415-5.525 0-3.014 2.462-5.526 5.416-5.526s5.415 2.512 5.415 5.526-2.461 5.526-5.415 5.526zm0-9.858c-2.338 0-4.184 1.947-4.184 4.27 0 2.386 1.908 4.27 4.185 4.27 2.338 0 4.184-1.947 4.184-4.27 0-2.323-1.908-4.27-4.184-4.27z"/></g><defs><clipPath id="eclip0_160_13101"><path d="M0 0h20v27H0z"/></clipPath></defs></symbol><symbol viewBox="0 0 26 24" id="message" xmlns="http://www.w3.org/2000/svg"><path d="M22.61 0H3.39C1.529 0 0 1.504 0 3.337v11.637c0 1.85 1.528 3.354 3.39 3.354h13.036L21.766 24v-5.672h.826c1.88 0 3.39-1.504 3.39-3.337V3.337C26 1.504 24.472 0 22.61 0zM6.85 14.352c-1.071 0-1.932-.848-1.932-1.902 0-1.055.86-1.902 1.932-1.902s1.933.847 1.933 1.902c0 1.054-.861 1.902-1.933 1.902zm6.149 0c-1.072 0-1.932-.848-1.932-1.902 0-1.055.86-1.902 1.932-1.902s1.932.847 1.932 1.902c0 1.054-.86 1.902-1.932 1.902zm6.149 0c-1.072 0-1.933-.848-1.933-1.902 0-1.055.861-1.902 1.933-1.902 1.071 0 1.932.847 1.932 1.902 0 1.054-.86 1.902-1.932 1.902z"/></symbol><symbol viewBox="0 0 17 29" id="phone" xmlns="http://www.w3.org/2000/svg"><path d="M14.086 0H2.914C1.295 0 0 1.254 0 2.822V26.1c0 1.568 1.295 2.822 2.914 2.822h11.09c1.62 0 2.915-1.254 2.915-2.822V2.821C17 1.255 15.705 0 14.086 0zM2.914 1.254h11.09c.891 0 1.62.705 1.62 1.568v1.254H1.295V2.822c0-.863.729-1.568 1.62-1.568zm12.79 19.438H1.296V5.408h14.41v15.284zm-1.618 7.054H2.914c-.89 0-1.619-.705-1.619-1.568v-4.232h14.41V26.1c0 .862-.729 1.646-1.62 1.646z"/><path d="M8.5 23.514c-.81 0-1.457.627-1.457 1.41 0 .784.648 1.411 1.457 1.411.81 0 1.457-.627 1.457-1.41 0-.785-.647-1.412-1.457-1.412z"/></symbol><symbol viewBox="0 0 72 75" id="procidure-1" xmlns="http://www.w3.org/2000/svg"><g clip-path="url(#hclip0_379_517)"><path d="M28.855 62.477c1.588 2.546 4.142 3.853 7.387 3.853 2.278 0 4.073-.688 4.625-.894 3.106-1.308 7.87-4.817 4.901-13.83-2.83-8.533-9.94-37.57-6.903-50.367.138-.55-.207-1.033-.69-1.239-.483-.138-1.105.069-1.243.62-.138.412-3.797 9.632-3.175 20.229.552 10.114-.138 18.096-2.14 23.532-.276.688-.553 1.445-.898 2.27-1.933 4.886-4.556 11.491-1.864 15.826zm3.797-15c.345-.894.69-1.651.898-2.34 2.07-5.71 2.83-13.898 2.278-24.357-.138-2.959 0-5.78.345-8.395.69 14.381 5.453 33.234 7.593 39.909 1.864 5.71.622 9.495-3.727 11.284-.829.344-2.278.757-3.797.757-2.485 0-4.418-.963-5.592-2.89-2.209-3.51.346-9.84 2.002-13.968z"/><path d="M35.413 61.032c.138.069.276.069.414.069.415 0 .76-.206.967-.62.207-.55 0-1.1-.552-1.376-1.45-.619-2.002-2.82-2.071-3.646-.07-.55-.553-.964-1.105-.895-.552.069-.966.55-.897 1.101-.07.275.345 4.129 3.244 5.367z"/><path opacity=".5" d="M71.31 51.537h-16.5a.628.628 0 00-.483.206.742.742 0 00-.207.482c.76 14.105-6.49 19.06-12.633 20.78-3.383.894-6.972.757-10.424-.482-13.254-4.61-11.114-19.61-11.045-20.23 0-.206 0-.412-.138-.55a.785.785 0 00-.552-.206H.69c-.414 0-.69.275-.69.688 0 .413.276.688.69.688h17.88c-.277 3.371-.484 16.514 12.011 20.986 2.14.757 4.28 1.101 6.42 1.101a18.99 18.99 0 004.832-.62c5.385-1.444 14.22-6.192 13.738-21.467H71.31c.414 0 .69-.275.69-.688 0-.413-.276-.688-.69-.688z"/><path d="M23.816 39.908c.207.207.483.276.76.276.275 0 .552-.07.759-.276a.996.996 0 000-1.445L2.76 15.963a1.003 1.003 0 00-1.45 0 .996.996 0 000 1.445l22.505 22.5zm2.899-4.816c0 .344.345.688.69.688.415 0 .69-.275.69-.688 0-.276-.482-2.408-1.38-6.33-.069-.345-.483-.62-.828-.482-.345.069-.622.482-.483.825.552 2.615 1.242 5.643 1.311 5.987zm-9.181 5.986c-.345-.138-.76 0-.897.413-.138.413 0 .757.414.894L23.609 45c.069 0 .138.069.276.069.276 0 .552-.138.621-.413.138-.344 0-.757-.414-.895l-6.558-2.683z"/></g><defs><clipPath id="hclip0_379_517"><path d="M0 0h72v75H0z"/></clipPath></defs></symbol><symbol viewBox="0 0 45 67" id="procidure-2" xmlns="http://www.w3.org/2000/svg"><path d="M44.025.511H18.533l-5.202 1.277c-.455.128-.715.511-.715.958v12.136c0 .447.325.83.715.958l5.202 1.277h4.943v3.832c0 .511.455.959.975.959h2.016v6.578h-3.121c-.52 0-.976.447-.976.958v36.598c0 .51.455.958.976.958h13.2c.52 0 .976-.447.976-.958V29.444c0-.51-.455-.958-.976-.958H33.23v-6.515h1.3c.52 0 .976-.447.976-.958v-3.832h8.519c.52 0 .975-.447.975-.958V1.533C45 .958 44.545.51 44.025.51zm-5.528 7.537h4.552v1.596h-4.552V8.048zM43.05 6.77h-4.552V5.174h4.552V6.77zm-4.552 4.152h4.552v1.597h-4.552v-1.597zm4.552-7.026h-4.552V2.427h4.552v1.47zm-28.547-.383l3.251-.83v12.263l-3.251-.83V3.512zm5.202-1.086h16.842v12.774H19.704V2.427zm15.932 59.974H24.321V40.047h11.25V62.4h.065zm-11.315 2.683v-1.405h11.25v1.405H24.32zM35.636 38.13H24.321v-7.729h11.25v7.729h.065zm-4.357-9.645h-2.861V21.97h2.861v6.515zm2.276-8.43h-8.129V17.18h8.129v2.874zm4.942-4.791v-1.469h4.552v1.469h-4.552z"/><path d="M26.012 31.552c-.39 0-.65.255-.65.639v3.896c0 .383.26.638.65.638s.65-.255.65-.638V32.19c0-.384-.26-.64-.65-.64zm2.601 0c-.39 0-.65.255-.65.639v3.896c0 .383.26.638.65.638s.65-.255.65-.638V32.19c0-.384-.26-.64-.65-.64zm2.601 0c-.39 0-.65.255-.65.639v3.896c0 .383.26.638.65.638s.65-.255.65-.638V32.19c0-.384-.26-.64-.65-.64zm2.601 5.173c.39 0 .65-.255.65-.638V32.19c0-.384-.26-.64-.65-.64s-.65.256-.65.64v3.896c0 .383.325.638.65.638z"/><path opacity=".5" d="M5.592.192a.637.637 0 00-.91 0 .61.61 0 000 .894l3.251 3.193c.13.128.26.192.456.192a.595.595 0 00.455-.192.61.61 0 000-.894L5.592.192zm2.341 12.39l-3.251 3.194a.61.61 0 000 .894.71.71 0 00.455.192.71.71 0 00.455-.192l3.252-3.193a.61.61 0 000-.895.636.636 0 00-.91 0zm-1.43-4.215c0-.383-.26-.639-.65-.639H.65c-.39 0-.65.256-.65.639s.26.639.65.639h5.203c.39 0 .65-.256.65-.639z"/></symbol><symbol viewBox="0 0 61 88" id="procidure-3" xmlns="http://www.w3.org/2000/svg"><g clip-path="url(#jclip0_379_525)"><g opacity=".65"><path opacity=".5" d="M9.297 61.522h-.215a11.902 11.902 0 00-1.287-.283.735.735 0 01-.572-.85.741.741 0 01.858-.566s.572.07 1.43.354c.358.07.572.495.5.85-.142.283-.428.495-.714.495zm13.802 20.744c-.358 0-.715-.284-.715-.638-.072-.92-.143-1.77-.287-2.62-.071-.353.215-.778.644-.778.358-.07.787.212.787.637.143.85.214 1.77.286 2.69 0 .284-.286.638-.715.709zm-.787-5.31c-.358 0-.643-.213-.715-.567a16.602 16.602 0 00-.644-2.548c-.071-.354.143-.78.5-.85.358-.07.788.142.86.496.214.85.428 1.77.643 2.69.071.354-.143.779-.572.85.071-.071 0-.071-.072-.071zm-1.43-5.168a.686.686 0 01-.644-.496 20.267 20.267 0 00-.93-2.195l-.071-.212c-.143-.354 0-.779.358-.92.357-.142.786 0 .93.354l.142.212c.358.708.644 1.487.93 2.265.143.354-.072.78-.43.92-.142 0-.214.072-.285.072zm-2.503-4.744c-.215 0-.43-.07-.572-.283-.5-.637-1.144-1.274-1.788-1.84-.286-.284-.358-.709-.071-.992.285-.283.715-.354 1-.07.716.637 1.43 1.274 2.003 1.982.215.283.215.779-.143.99-.072.142-.286.213-.43.213zm-4.076-3.469c-.143 0-.215 0-.358-.07-.715-.425-1.502-.78-2.36-1.133-.357-.142-.5-.567-.357-.92.143-.355.572-.496.93-.355.857.354 1.716.78 2.502 1.275.358.212.43.637.286.99-.214.072-.429.213-.643.213zm9.01 22.797c-.358 0-.715-.284-.715-.638 0-.353-.072-.707-.072-1.132v-.283c0-.425.286-.708.644-.78.357 0 .715.284.787.638v.283c0 .425.071.779.071 1.133.072.354-.286.708-.715.779.072 0 0 0 0 0z"/></g><g opacity=".65"><path opacity=".5" d="M25.172 44.248c-.143 0-.286-.071-.429-.142-.572-.425-1.072-.637-1.072-.637-.358-.142-.5-.566-.358-.92.143-.354.572-.496.93-.354.071 0 .643.283 1.359.85.286.212.357.707.142.99-.142.071-.357.213-.572.213zm3.075 16.354h-.071a.832.832 0 01-.644-.779c.143-.991.215-1.982.286-2.832 0-.354.358-.708.787-.637.429 0 .715.354.643.779-.071.92-.214 1.911-.286 2.902 0 .284-.357.567-.715.567zm.5-5.805a.713.713 0 01-.714-.708v-.85c0-.708 0-1.416-.072-1.982 0-.425.286-.708.644-.78.429 0 .715.284.787.638.071.637.071 1.345.071 2.124v.85a.713.713 0 01-.715.708zm-.5-5.806c-.286 0-.643-.212-.715-.566-.214-.92-.572-1.7-1.073-2.478-.214-.354-.142-.779.215-.991.358-.213.787-.142 1.001.212a8.092 8.092 0 011.216 2.903c.072.354-.143.779-.5.85 0 .07-.072.07-.144.07zm-.643 15.859h-.143a.735.735 0 01-.572-.85s.143-.496.286-1.345a.741.741 0 01.858-.566c.358.07.644.424.572.85a12.66 12.66 0 01-.286 1.415c-.143.283-.429.496-.715.496z"/></g><g opacity=".65"><path opacity=".5" d="M51.703 61.522c-.286 0-.572-.212-.715-.495-.143-.355.143-.78.5-.85.859-.283 1.431-.354 1.431-.354a.74.74 0 01.858.566c.072.354-.214.78-.572.85 0 0-.5.07-1.287.283h-.215zM37.902 82.266c-.072 0-.072 0 0 0-.43-.071-.715-.355-.715-.78.071-.92.214-1.84.286-2.69.071-.354.429-.637.786-.566.358.07.644.425.572.779-.143.85-.214 1.699-.286 2.62a.638.638 0 01-.643.636zm.715-5.31h-.143a.735.735 0 01-.572-.85c.214-.92.429-1.77.643-2.62.143-.353.5-.566.858-.495.358.142.572.496.501.85l-.644 2.548c0 .354-.286.567-.643.567zm1.573-5.168c-.072 0-.143 0-.286-.071-.358-.142-.572-.567-.43-.92.287-.78.645-1.558 1.002-2.337l.072-.141c.143-.354.572-.496.93-.354.357.141.5.566.357.92l-.072.142c-.357.707-.643 1.486-1 2.265-.072.354-.287.496-.573.496zm2.503-4.673c-.143 0-.286-.07-.43-.141-.285-.213-.357-.709-.142-.992.572-.708 1.216-1.416 2.002-1.982.286-.283.787-.212 1.001.07.286.284.215.78-.071.992-.644.566-1.287 1.204-1.788 1.84a.817.817 0 01-.572.213zm4.076-3.469a.855.855 0 01-.643-.354c-.215-.354-.072-.779.214-.991a16.69 16.69 0 012.503-1.275c.358-.141.787 0 .93.354.143.354 0 .78-.358.92-.786.355-1.573.78-2.288 1.204a.549.549 0 01-.358.142zm-9.154 22.726s-.071 0 0 0c-.429 0-.715-.354-.715-.78 0-.353.072-.778.072-1.273v-.142c0-.425.358-.708.786-.637.43 0 .716.354.644.779v.141c0 .496-.071.92-.071 1.275 0 .353-.358.637-.716.637z"/></g><g opacity=".65"><path opacity=".5" d="M36.9 44.248c-.214 0-.429-.071-.572-.283-.215-.284-.215-.78.143-.992.715-.566 1.287-.778 1.359-.85.357-.14.786 0 .93.355.143.354 0 .779-.358.92 0 0-.5.213-1.073.637-.143.142-.286.213-.429.213zm-3.146 16.354c-.358 0-.644-.283-.715-.637-.143-.992-.215-1.983-.286-2.903 0-.425.286-.708.643-.779.358 0 .715.283.787.637.071.92.214 1.912.286 2.832.071.354-.215.708-.644.779 0 .07-.071.07-.071.07zm-.5-5.805a.713.713 0 01-.716-.708v-.85c0-.708 0-1.416.072-2.124 0-.425.357-.708.786-.637.43 0 .715.354.644.779-.072.637-.072 1.274-.072 1.982v.85a.713.713 0 01-.715.708zm.5-5.806h-.143c-.358-.07-.644-.495-.5-.85.285-1.061.714-1.982 1.215-2.902.214-.354.643-.425 1.001-.212.358.212.43.637.215.99-.501.709-.858 1.558-1.073 2.479-.143.283-.43.495-.715.495zm.715 15.859c-.358 0-.644-.213-.715-.567 0 0-.143-.495-.286-1.416-.072-.354.214-.778.572-.85.357-.07.786.213.858.567.143.85.286 1.345.286 1.345.071.354-.143.779-.572.85-.072.07-.143.07-.143.07z"/></g><path d="M58.14 50.477c-.071-1.203-.357-3.398-.429-4.53.286-.213.43-.496.43-.78 0-.354.428-8.708-1.36-14.584-1.144-3.681-4.862-12.672-13.944-15.646-2.432-.778-5.435-1.345-8.582-1.628.5-.991.787-2.265.858-3.61.072-2.832-.93-5.31-2.789-6.868-2.86-2.478-10.87-4.956-17.306 0C9.44 7.15 10.8 12.601 11.3 14.16c.357.99.93 2.053 1.573 2.76-5.435 3.186-9.368 8.425-11.442 15.363-2.289 7.647-.572 16.355-.072 18.266l-.214.212c-.072.071-1.788 2.549-.787 7.01.93 4.318 3.147 6.796 7.151 8.07.572 4.46 1.645 9.911 3.576 12.177 3.361 3.752 10.226 8.496 15.304 9.558 1.644.353 3.146.424 4.362.424 2.36 0 3.862-.424 4.005-.495 3.79-.779 11.87-5.806 15.16-9.558 2.003-2.265 3.075-7.717 3.647-12.177 3.719-1.203 5.793-3.54 7.08-8 1.216-4.177-.858-6.442-2.503-7.292zm-2.145-.283c-1.86.142-3.075-1.345-3.79-2.478 1.358-.142 2.574-.425 3.504-.779.071 1.062.214 2.337.286 3.257zM13.087 12.318c-.357-1.7-.357-5.027 3.29-7.859 5.363-4.176 12.157-2.053 14.517 0 1.359 1.133 2.074 3.116 2.074 5.24-.072 1.699-.572 2.902-1.144 3.54-.716 0-1.36-.072-2.074-.072-4.577 0-8.796.567-12.157 1.629-2.503-3.682-.143-7.292 0-7.434.143-.141.071-.354-.072-.495-.143-.142-.357-.071-.5.07 0 .071-2.718 4.036-.072 8.071-.143.071-.286.071-.429.142-.572.212-1.073.425-1.645.708-.429-.284-1.43-1.558-1.788-3.54zM3.505 32.92c2.36-7.717 7.15-13.169 13.873-15.717 3.218-1.204 7.652-1.912 12.443-1.912 4.577 0 9.01.637 12.372 1.7 8.08 2.69 11.442 10.831 12.515 14.23.858 2.619 1.144 5.946 1.287 8.637-6.15.566-8.296-3.682-8.439-3.894-.071-.142-.286-.283-.5-.142-.143.071-.286.283-.143.496 0 .07 2.145 4.319 7.938 4.319.357 0 .715 0 1.144-.071.071 1.699 0 3.115 0 3.893a12.118 12.118 0 01-5.22 1.204c-2.218 0-4.434-.637-6.508-1.84-5.006-2.903-6.794-6.868-7.009-15.151 0-.567-.5-1.062-1.072-1.062-.715 0-.93.495-1.359 1.416-.715 1.699-2.717 6.23-5.792 8.85-4.005 3.398-9.655 6.371-13.445 7.716-2.717.991-9.654 2.974-12.3 3.752-.572-2.76-1.716-10.123.215-16.424zm55.064 24.283c-1.001 3.327-2.36 5.168-4.791 6.23.214-2.124.286-3.681.286-4.177a1.15 1.15 0 00-1.001-1.133c-.572 0-1.073.425-1.145.991a154.278 154.278 0 01-.428 5.593v.284c-.501 4.46-1.502 9.77-3.147 11.54-3.218 3.61-11.013 8.282-14.088 8.849h-.143s-2.932.92-7.366 0c-4.505-.92-11.084-5.451-14.088-8.85-1.644-1.84-2.646-7.15-3.146-11.681v-.07a80.017 80.017 0 01-.5-5.665c0-.566-.501-1.062-1.145-.99a1.01 1.01 0 00-1.001 1.132c0 .495.071 2.053.286 4.177-2.646-1.062-4.076-2.974-4.791-6.16-.716-3.468.429-5.238.5-5.31.072-.14.143-.282.143-.424 1.001-.283 4.434-1.274 7.723-2.195.716-.141 8.868-1.699 13.802-.495a1.067 1.067 0 001.288-.779c.143-.566-.215-1.133-.787-1.274-1.645-.425-3.647-.496-5.578-.496 3.576-1.628 7.795-4.106 10.941-6.796 2.146-1.841 3.79-4.46 4.935-6.584.643 5.522 2.574 9.77 7.794 12.814.144.07.215.141.358.212-2.431-.141-5.077-.07-7.294.425-.572.142-.93.708-.787 1.274.143.567.715.92 1.287.78 4.649-1.063 12.014.14 13.588.495 1.072 1.77 2.932 3.54 5.363 3.54.358 0 .715-.071 1.144-.142.072 0 .072.07.143.07.287 0 2.79 1.063 1.645 4.815z"/><path d="M22.455 53.168c-4.291 2.124-8.653 0-8.725 0-.5-.283-1.144-.07-1.43.496-.286.495-.072 1.132.5 1.416.144.07 2.432 1.203 5.507 1.203 1.573 0 3.361-.283 5.149-1.203.5-.284.715-.92.5-1.416-.357-.567-1-.78-1.501-.496zm24.315 0c-4.292 2.124-8.654 0-8.725 0-.5-.283-1.145-.07-1.43.496-.287.495-.072 1.132.5 1.416.143.07 2.431 1.203 5.506 1.203 1.574 0 3.361-.283 5.15-1.203.5-.284.715-.92.5-1.416-.358-.567-1.001-.78-1.502-.496zM35.256 72.92h-8.224c-.572 0-1.073.496-1.073 1.062 0 .567.5 1.062 1.073 1.062h8.224c.572 0 1.072-.495 1.072-1.062 0-.566-.5-1.062-1.072-1.062zm-2.504 3.752c-2.932-.141-3.36 0-3.504.071-.572.142-.93.78-.715 1.346.143.424.572.778 1.001.778.072 0 .215 0 .286-.07.286-.071 1.717 0 2.86 0 .573 0 1.074-.425 1.145-.992-.072-.637-.5-1.133-1.073-1.133zm-5.577-11.539l2.074.92a4.208 4.208 0 001.859.425c.643 0 1.359-.142 1.93-.425l1.86-.92c.5-.283.787-.92.5-1.416-.285-.496-.929-.779-1.43-.496l-1.859.92a2.467 2.467 0 01-2.002 0l-2.074-.92c-.572-.212-1.144 0-1.43.496-.215.495 0 1.133.572 1.416zM13.3 39.292h.072c.072 0 5.15-1.203 9.798-4.106 4.076-2.549 5.864-4.744 5.935-4.885.143-.142.072-.354-.071-.496-.215-.07-.43-.07-.501.071 0 0-1.788 2.195-5.72 4.744-4.506 2.831-9.512 3.964-9.584 4.035-.214.07-.286.212-.286.425 0 .141.143.212.358.212zm.716-5.026h.072c.143-.071 4.29-.992 6.15-2.69a.34.34 0 000-.496.348.348 0 00-.5 0c-1.717 1.486-5.793 2.477-5.793 2.477-.215.071-.286.213-.286.425.071.213.214.284.357.284z"/></g><defs><clipPath id="jclip0_379_525"><path d="M0 0h61v88H0z"/></clipPath></defs></symbol><symbol viewBox="0 0 56 79" id="procidure-4" xmlns="http://www.w3.org/2000/svg"><g clip-path="url(#kclip0_403_2)"><path d="M6.222 66.252c-1.823 0-3.834-.193-5.53-.773-.504-.193-.755-.708-.566-1.223.188-.515.69-.773 1.194-.58 1.76.644 4.336.837 7.793.516 2.263-.194 11.25-3.8 14.204-4.958 7.48-3.026 11.314-15.26 11.314-15.388.188-.515.691-.773 1.194-.644s.754.708.628 1.223c-.188.516-4.148 13.264-12.444 16.612-8.422 3.412-13.01 4.957-14.77 5.086a40.35 40.35 0 01-3.017.129z"/><path opacity=".5" d="M15.964 78.678a.474.474 0 01-.314-.129c-.315-.193-.377-.58-.189-.901 8.36-13.135 8.422-13.135 9.05-12.877.315.129.503.45.378.837-.063.129-.126.257-.252.322-.628.772-5.342 8.048-8.17 12.49a.567.567 0 01-.503.258z"/><path d="M38.276 79c-.125 0-.251 0-.377-.064-.251-.13-6.285-3.155-7.856-11.075-1.508-7.726.377-14.68.44-14.937.126-.515.691-.837 1.194-.644.503.13.817.709.629 1.224 0 .064-1.886 6.76-.44 14.036 1.382 7.017 6.599 9.657 6.788 9.722.44.257.69.837.44 1.287-.126.258-.503.45-.818.45zm-2.702-34.253c-.252 0-.503-.128-.566-.386-.126-.322.063-.708.377-.837 5.531-2.189 9.114-9.786 9.49-11.525.44-1.738.063-3.477-.88-4.442-.565-.644-1.32-.837-2.136-.709-3.331.773-5.782 3.735-5.782 3.735-.252.257-.629.322-.88.064-.252-.257-.315-.644-.063-.901.063-.129 2.702-3.348 6.474-4.185 1.194-.258 2.388.128 3.268 1.03 1.257 1.288 1.697 3.477 1.194 5.666-.44 1.931-4.211 10.044-10.308 12.426 0 .064-.125.064-.188.064z"/><path d="M35.574 36.506h-.126a.667.667 0 01-.503-.773c0-.128.817-3.863 5.908-5.408a.557.557 0 01.754.45.573.573 0 01-.44.773c-4.4 1.353-5.028 4.379-5.028 4.443 0 .322-.251.515-.565.515zm9.427-8.048c-.063 0-.188 0-.251-.064-.315-.13-.44-.515-.315-.837 3.96-9.079.063-19.058 0-19.187-.125-.322 0-.708.315-.837.314-.129.691 0 .817.322.188.45 4.148 10.559 0 20.152-.126.322-.315.451-.566.451zm-7.731.322c-.377 0-.691-.193-.88-.58-.628-1.545-2.388-5.665-2.89-6.502-5.406-9.143-12.382-14.1-20.742-14.68-.502-.064-.942-.515-.88-1.03.063-.515.503-.966 1.006-.902 9.05.644 16.53 5.86 22.25 15.581.69 1.16 2.765 6.181 3.016 6.76.189.516 0 1.031-.503 1.288-.125 0-.251.065-.377.065zm4.714-2.125h-.062c-.315-.064-.566-.386-.566-.708.188-1.61-.44-4.507-1.509-5.73-.25-.258-.188-.644.063-.902.252-.257.629-.193.88.065 1.383 1.545 2.074 4.829 1.823 6.76 0 .258-.314.515-.629.515zM5.53 19.509c-.314 0-.628-.194-.816-.451-.315-.515-.126-1.095.314-1.352.126-.065 3.142-1.932 8.485-2.511 3.142-.386 7.165.45 8.548 1.03.502.193.69.773.502 1.288-.188.515-.754.708-1.257.515-1.194-.515-4.84-1.224-7.605-.902-4.902.515-7.667 2.19-7.73 2.254a1.144 1.144 0 01-.44.129zm-2.639 22.47c-.44 0-.943-.129-1.32-.322-.44-.258-1.005-.58-1.194-.644-.314-.129-.44-.515-.251-.837.125-.322.503-.45.817-.258.188.065.754.387 1.194.644a1.24 1.24 0 001.068.13c1.32-.258 2.389-.58 2.892-.838.314-.129.69 0 .817.322.125.322 0 .708-.315.837-.817.386-2.2.708-3.205.966H2.89zm.315 8.048c-.126 0-.252-.065-.378-.129-1.005-.773-2.074-.58-2.074-.515A.637.637 0 010 48.868c-.063-.322.126-.708.503-.773.063 0 1.383-.257 2.765.515 1.195-.643 3.143-.837 5.343-.515.314.065.565.387.565.709a.74.74 0 01-.691.579c-2.074-.258-3.96-.064-4.84.58-.188.064-.314.064-.44.064zm1.005 3.734c-1.257 0-2.137-.386-2.2-.386-.314-.129-.44-.515-.314-.837.126-.322.503-.45.817-.322 0 0 .817.386 2.011.258.377 0 .629.257.692.579a.696.696 0 01-.566.708h-.44zm6.725-21.118c-4.965 0-8.988-2.704-8.988-6.052 0-3.348 4.023-6.052 8.988-6.052 5.028 0 8.988 2.64 8.988 6.052-.063 3.284-4.086 6.052-8.988 6.052zm0-10.881c-4.274 0-7.73 2.125-7.73 4.764 0 2.64 3.456 4.765 7.73 4.765 4.274 0 7.73-2.125 7.73-4.765-.062-2.575-3.52-4.764-7.73-4.764z"/><path opacity=".5" d="M33.751 28.844c-.063 0-.126 0-.251-.064-2.514-.966-11.25-.773-11.376-.773a.637.637 0 01-.629-.644c0-.386.252-.643.629-.643s9.113-.194 11.816.901c.314.129.502.515.377.837-.063.258-.315.386-.566.386z"/><path d="M53.675 39.597h-.189c-.314-.065-.503-.451-.44-.773 1.32-4.829 1.76-9.529 1.697-12.297-.125-17.9-7.919-25.304-7.982-25.432a.702.702 0 01-.063-.902.661.661 0 01.88-.064c.314.322 8.297 7.92 8.422 26.269 0 2.897-.44 7.726-1.76 12.683-.062.322-.314.516-.565.516z"/><path d="M51.538 75.845a.565.565 0 01-.44-.193c-.063-.064-1.76-1.867-2.451-7.855-.943-7.662 4.588-29.424 4.776-30.325.063-.322.44-.58.755-.45.314.064.565.45.44.772-.063.193-5.657 22.406-4.777 29.81.691 5.473 2.137 7.147 2.137 7.147a.633.633 0 010 .901.67.67 0 01-.44.193zm-7.228.773a.564.564 0 01-.44-.193c-5.028-5.022-4.462-11.976-4.462-12.298 0-.322.314-.644.691-.58.314 0 .629.323.566.709 0 .064-.503 6.696 4.085 11.267a.633.633 0 010 .902.565.565 0 01-.44.193zm-8.17-34.446c-.88 0-1.572-.708-1.572-1.61 0-.901.691-1.61 1.571-1.61s1.571.709 1.571 1.61c0 .902-.754 1.61-1.57 1.61zm0-1.931c-.19 0-.315.128-.315.321 0 .194.126.322.314.322.189 0 .314-.129.314-.322s-.188-.322-.314-.322z"/></g><defs><clipPath id="kclip0_403_2"><path d="M0 0h56v79H0z"/></clipPath></defs></symbol><symbol viewBox="0 0 51 78" id="procidure-5" xmlns="http://www.w3.org/2000/svg"><g clip-path="url(#lclip0_382_613)"><path d="M28.635 78c-.279 0-.557-.14-.766-.348-4.39-5.144-5.365-11.61-5.713-15.989-.418-5.075-.14-9.872.975-17.727 1.324-9.385-.07-18.631-.07-18.77-.07-.556.28-1.113.837-1.182.557-.07 1.114.278 1.184.834.07.417 1.463 9.663.14 19.396-1.255 8.76-1.325 13.139-.976 17.24.348 4.102 1.184 10.15 5.225 14.808.349.417.349 1.112-.14 1.46-.278.139-.487.278-.696.278z"/><path d="M24.525 70.422c-.07 0-9.963-.347-17.906-8.064-6.828-6.604-8.43-15.92-4.529-26.139 3.066-7.994 8.082-14.738 11.705-19.674C15.19 14.668 16.443 13 17.21 11.68c2.578-4.171 2.857-5.214 3.135-6.326.07-.348.21-.695.349-1.112.766-2.086.975-3.337 1.045-3.337.14-.556.557-.904.975-.904.488 0 .906.278 1.045.695 0 .07 1.603 4.658 3.554 8.412 1.463 2.92 6.2 8.203 10.799 13.278 2.996 3.337 5.783 6.535 7.733 9.037 4.25 5.492 6.34 15.086 4.53 20.926-1.882 5.978-7.944 13.417-16.931 15.641a1.039 1.039 0 01-1.254-.764 1.036 1.036 0 01.766-1.252c8.152-2.085 13.726-8.829 15.398-14.251 1.602-5.214-.349-14.112-4.18-19.048-1.882-2.433-4.669-5.562-7.665-8.83-4.668-5.213-9.475-10.566-11.078-13.694-.975-1.947-1.88-4.102-2.577-5.77-.07.139-.14.347-.21.486a7.83 7.83 0 00-.278 1.043c-.348 1.251-.697 2.433-3.414 6.813-.836 1.39-2.09 3.059-3.553 5.005-3.484 4.797-8.43 11.47-11.357 19.187C.418 46.37 1.881 54.92 8.082 60.898c7.246 7.022 16.373 7.439 16.443 7.439a1.07 1.07 0 011.045 1.043c0 .556-.418 1.043-1.045 1.043z"/><path d="M22.783 56.032c-.07 0-.21 0-.349-.07-7.873-2.502-14.352-9.523-14.63-9.871-.419-.417-.349-1.112.069-1.46.418-.417 1.115-.348 1.463.07.07.07 6.34 6.952 13.725 9.246.558.139.837.764.697 1.32-.07.487-.488.765-.975.765zM18.394 38.93c-.14 0-.349-.069-.488-.139-.07-.069-1.393-1.25-2.787-3.128-.209-.278-.14-.765.14-.973.278-.209.766-.14.975.139 1.254 1.738 2.578 2.85 2.578 2.92.278.278.348.695.07.973a.633.633 0 01-.488.209z"/><path opacity=".5" d="M27.59 26.834c-.139 0-.209 0-.348-.07-.348-.208-.418-.625-.279-.973.349-.625 1.254-1.46 2.02-2.224l.976-.973c.14-.348.558-.487.906-.279.348.14.488.626.279.974-.14.278-.488.625-1.254 1.32-.628.626-1.533 1.391-1.812 1.878a.524.524 0 01-.488.347z"/><path d="M24.037 46.09c-.28 0-.558-.208-.697-.486-.14-.347.07-.764.488-.904 5.852-1.877 11.356-8.759 11.426-8.828.209-.278.697-.348.975-.14.279.21.349.696.14.974-.21.278-5.853 7.3-12.054 9.315a.528.528 0 01-.278.07zm-.697 14.6c-.348 0-.627-.278-.697-.626-.07-.347.21-.695.627-.764.07 0 9.964-1.39 16.93-10.359.21-.278.698-.347.976-.139.279.209.349.695.14.973C34 59.23 23.898 60.62 23.479 60.69h-.139z"/><path d="M35.672 54.642a.383.383 0 01-.348-.209c-1.115-3.128.209-5.214.627-5.77.14-.139.348-.208.488-.07.14.14.209.348.07.487-.349.487-1.533 2.364-.558 5.145.07.208 0 .347-.209.417h-.07zM23.34 63.61c-2.857 0-4.668-1.46-4.738-1.53a.427.427 0 01-.07-.486.43.43 0 01.488-.07s1.672 1.39 4.25 1.39c.21 0 .349.14.349.348 0 .209-.14.348-.279.348zm-10.381-9.803c-.348 0-.697-.07-1.115-.139-.209-.07-.279-.208-.279-.417.07-.208.21-.278.418-.278 2.16.556 3.693-.973 3.763-1.043a.337.337 0 01.487 0c.14.14.14.348 0 .487-.07.14-1.323 1.39-3.274 1.39zm-.069-4.101c-.07 0-.14 0-.21-.07-.139-.07-.139-.278-.07-.486 0 0 1.742-2.85.558-6.187-.07-.209 0-.348.21-.418.208-.069.348 0 .417.209 1.324 3.684-.488 6.674-.627 6.813 0 .07-.14.139-.279.139z"/></g><defs><clipPath id="lclip0_382_613"><path d="M0 0h51v78H0z"/></clipPath></defs></symbol><symbol viewBox="0 0 67 65" id="procidure-6" xmlns="http://www.w3.org/2000/svg"><g clip-path="url(#mclip0_382_588)"><path d="M2.991 17.892c-1.196 0-2.26-.737-2.725-1.81-.532-1.206-.2-2.546.731-3.618.067-.067.133-.067.133-.134.399-.268 9.77-6.701 23.596-10.253C31.971.201 38.685-.402 45.464.201c5.85.536 13.161 2.613 13.493 2.748.532.134.798.67.732 1.139-.133.536-.599.87-1.064.804-.066 0-5.184-.603-11.499-.603-5.051 0-9.438.402-13.028 1.072-8.042 1.608-15.886 4.557-23.995 8.98-.133.066-4.52 2.68-5.782 3.283a3.147 3.147 0 01-1.33.268zm-.598-3.954c-.399.47-.465.938-.332 1.34.199.537.864.737 1.462.47.93-.403 4.387-2.413 5.583-3.15 8.375-4.557 16.418-7.572 24.594-9.18 3.456-.67 7.577-1.073 12.23-1.14-.2 0-.466-.067-.665-.067-6.58-.536-13.094 0-20.14 1.81C12.43 7.304 3.39 13.268 2.393 13.938zm27.584 26.335c-7.71 0-14.025-2.278-17.282-4.356-3.921-2.479-6.048-5.83-6.115-5.963-.2-.335-.2-.738 0-1.073.2-.268 4.586-6.835 13.826-9.582 8.508-2.546 19.674-1.072 25.59 0 3.057.536 5.45 1.14 7.311 1.541 2.26.536 3.855.938 5.318 1.005 1.927.067 2.46-.536 2.46-.536l.797.536.864.536c-.133.268-1.13 1.609-4.188 1.475-1.661-.067-3.39-.47-5.716-1.006a98.267 98.267 0 00-7.245-1.54c-5.716-1.073-16.617-2.413-24.66 0-6.979 2.077-11.033 6.633-12.296 8.175.73 1.005 2.46 3.082 5.118 4.757 2.659 1.675 9.505 4.423 18.212 3.954 9.24-.47 14.623-3.619 16.95-5.428 2.791-2.144 3.256-4.088 3.256-4.088a.99.99 0 011.197-.737c.532.134.864.603.797 1.206-.066.268-.598 2.68-4.054 5.294-2.592 1.944-8.309 5.361-18.08 5.83h-2.06z"/><path d="M31.572 34.711c-2.46 0-4.985-.536-7.178-2.01-7.312-4.892-4.653-12.665-4.653-12.732.2-.536.731-.804 1.263-.603.531.201.797.737.598 1.273-.067.268-2.127 6.366 3.855 10.387 3.855 2.613 9.572 1.675 12.43.268.465-.268 1.063-.067 1.33.469.265.536.066 1.072-.466 1.34-1.529.804-4.254 1.608-7.179 1.608z"/><path d="M32.303 28.01c-1.661 0-3.456-.536-4.652-1.675-3.59-3.35-2.06-7.036-1.994-7.17.265-.67 1.063-1.005 1.728-.67a1.28 1.28 0 01.664 1.742c-.066.201-.797 2.144 1.396 4.155 1.396 1.34 4.32 1.072 5.384.268.864-.67 1.994-1.877 1.396-4.624a1.423 1.423 0 01.997-1.608c.731-.134 1.396.335 1.595 1.005.665 3.082-.133 5.629-2.393 7.304-.997.804-2.525 1.273-4.12 1.273zM9.97 38.263c-.132 0-.265-.067-.398-.134-.266-.201-.333-.67-.133-.938l2.26-3.016c.199-.268.664-.335.93-.134s.332.67.133.938l-2.26 3.016a.605.605 0 01-.532.268zm9.24 5.897c-.067 0-.134 0-.2-.067a.672.672 0 01-.399-.871l1.662-5.026c.133-.335.465-.536.864-.402a.671.671 0 01.399.87l-1.662 5.027c-.133.268-.399.469-.665.469zm14.822 2.01c-.332 0-.598-.268-.665-.603l-.598-6.366c0-.335.266-.67.598-.737.4-.067.665.268.731.603l.599 6.366c.066.402-.2.737-.665.737.066 0 .066 0 0 0zm10.967-4.087c-.266 0-.532-.202-.665-.47l-1.263-4.288a.595.595 0 01.466-.804.59.59 0 01.797.469l1.263 4.288a.595.595 0 01-.465.805h-.133zm9.173-7.707c-.133 0-.266-.067-.399-.134l-2.725-1.876c-.332-.201-.399-.603-.2-.938.2-.335.599-.402.931-.201l2.725 1.876c.333.201.4.603.2.938-.067.268-.333.335-.532.335zM49.32 65v-.335c-.067-2.211-.532-5.16-1.662-6.031-2.127-1.608-5.916-1.742-7.046-1.742h-.465l-.066-1.34c.066 0 4.719-.269 7.045-1.676 1.463-.87 2.127-4.959 2.26-8.108v-.335h1.33v.335c-.067 3.418.73 5.964 2.326 7.64 1.861 1.942 4.32 2.143 5.25 2.143h.333l.133 1.34c-.066 0-3.722.403-5.583 1.475-2.327 1.34-2.46 5.428-2.526 6.232v.335l-1.33.067zm-4.055-8.912c1.13.268 2.26.737 3.19 1.407.798.603 1.33 1.675 1.662 2.814.466-1.206 1.197-2.412 2.393-3.082a9.859 9.859 0 012.46-.938c-.931-.402-1.928-.939-2.859-1.877a9.764 9.764 0 01-2.06-3.417c-.399 1.742-1.13 3.35-2.26 4.088-.731.401-1.595.804-2.526 1.005z"/><path opacity=".5" d="M61.483 49.387v-.202c0-1.474-.332-2.747-.797-3.082-.864-.67-2.26-.737-2.992-.737h-.598l-.133-1.34s2.26-.268 3.457-1.005c.73-.403 1.063-2.815 1.063-4.356h1.33c.199 4.825 2.99 5.227 3.855 5.227h.133l.133 1.34c-.532.067-2.127.335-2.925.804-1.13.67-1.196 2.68-1.196 3.15v.2h-1.33zm-.997-4.892c.333.134.665.335.997.536.333.268.532.603.731 1.005a3.084 3.084 0 011.13-1.14c.266-.133.532-.267.798-.334-.665-.402-1.33-1.072-1.861-2.145-.266.805-.665 1.475-1.197 1.81-.133.067-.332.2-.598.268zM6.248 25.866a.601.601 0 01-.465-.201c-.266-.268-.266-.67.066-.938.332-.335 8.442-7.84 17.082-10.655 11.632-3.82 23.597-1.541 24.128-1.474a.695.695 0 01.532.804.69.69 0 01-.797.536c-.133 0-12.164-2.278-23.464 1.407-8.375 2.748-16.484 10.253-16.617 10.32a.601.601 0 01-.465.2z"/></g><defs><clipPath id="mclip0_382_588"><path d="M0 0h67v65H0z"/></clipPath></defs></symbol><symbol viewBox="0 0 30 26" id="question" xmlns="http://www.w3.org/2000/svg"><path d="M16.802 0C9.482 0 3.55 5.832 3.55 12.973c0 2.453.665 4.742 1.885 6.65-.221.817-.61 1.635-1.33 2.343C2.052 23.93 0 24.692 0 24.692s5.933.708 8.54-1.526C10.813 24.91 13.64 26 16.747 26c7.32 0 13.198-5.832 13.198-12.973C29.945 5.887 24.067 0 16.802 0zm-1.22 20.059v-2.072h2.274v2.072h-2.274zm2.163-5.996v2.889h-2.218v-4.96c1.497.272 2.329-.327 2.717-.927.333-.545.388-1.2.166-1.799-.221-.436-.72-1.09-1.774-1.09-1.941.055-1.941 1.908-1.941 1.908h-2.218c-.056-3.87 3.216-4.143 4.214-4.143 1.276 0 4.215.763 4.215 3.98-.056 3.379-3.161 4.142-3.161 4.142z"/></symbol><symbol viewBox="0 0 19 18" id="shadow-star" xmlns="http://www.w3.org/2000/svg"><g filter="url(#ofilter0_i_279_270)"><path d="M9.5 0l3.183 5.12 5.852 1.444-3.885 4.61.434 6.012L9.5 14.915l-5.584 2.27.434-6.012L.465 6.564 6.317 5.12 9.5 0z"/></g><defs><filter id="ofilter0_i_279_270" x=".465" y="0" width="18.07" height="18.186" filterUnits="userSpaceOnUse" color-interpolation-filters="sRGB"><feFlood flood-opacity="0" result="BackgroundImageFix"/><feBlend in="SourceGraphic" in2="BackgroundImageFix" result="shape"/><feColorMatrix in="SourceAlpha" values="0 0 0 0 0 0 0 0 0 0 0 0 0 0 0 0 0 0 127 0" result="hardAlpha"/><feOffset dy="1"/><feGaussianBlur stdDeviation="1"/><feComposite in2="hardAlpha" operator="arithmetic" k2="-1" k3="1"/><feColorMatrix values="0 0 0 0 0 0 0 0 0 0 0 0 0 0 0 0 0 0 0.2 0"/><feBlend in2="shape" result="effect1_innerShadow_279_270"/></filter></defs></symbol><symbol viewBox="0 0 19 18" id="star" xmlns="http://www.w3.org/2000/svg"><path d="M9.5 0l3.183 5.12 5.852 1.444-3.885 4.61.434 6.012L9.5 14.915l-5.584 2.27.434-6.012L.465 6.564 6.317 5.12 9.5 0z"/></symbol><symbol viewBox="0 0 21 17" id="youtube" xmlns="http://www.w3.org/2000/svg"><g clip-path="url(#qclip0_267_6342)"><path fill-rule="evenodd" clip-rule="evenodd" d="M15.385 0H5.671C2.527 0 0 2.436 0 5.468v6.118c0 3.032 2.527 5.468 5.671 5.468h9.714c3.144 0 5.671-2.436 5.671-5.468V5.468C21 2.436 18.473 0 15.385 0zm-1.684 8.662l-4.549 3.303c-.224.216-.561.054-.561-.217V5.09c0-.27.337-.379.561-.216l4.549 3.302c.112.217.112.38 0 .487z"/></g><defs><clipPath id="qclip0_267_6342"><path d="M0 0h21v17H0z"/></clipPath></defs></symbol></svg>