<svg width="372" height="507" viewBox="0 0 372 507" fill="none" xmlns="http://www.w3.org/2000/svg"><g clip-path="url(#clip0_304_759)"><path d="M302.827 89.868s35.713 76.579 8.9 147.866c-26.926 71.399-125.728 173.654-136.768 179.06 0 0 25.348-39.866-20.955-39.528-46.303.338-69.51-10.924-74.58-27.141-4.957-16.217 22.532-68.583-2.817-81.197-25.235-12.613-56.104-8.784-76.72-26.239 0 0 48.218-4.054 83.705-7.658 37.403-3.829 149.611-81.985 158.624-139.42" fill="#74007A"/><path d="M172.706 221.742s-.225.225-.676.451c-.451.337-1.127.788-1.915 1.238-1.577 1.126-4.056 2.59-6.985 4.505-5.971 3.716-14.42 8.446-24.109 13.064-9.689 4.617-18.701 8.221-25.348 10.585-3.267 1.239-5.971 2.14-7.886 2.703-.902.226-1.578.451-2.141.676-.451.113-.789.225-.789.225l.676-.338c.564-.225 1.24-.45 2.141-.788 1.802-.676 4.506-1.577 7.773-2.815 6.535-2.478 15.547-6.082 25.236-10.699s18.138-9.347 24.222-12.951c3.041-1.802 5.407-3.266 7.097-4.279.789-.451 1.465-.901 1.915-1.126.564-.338.789-.451.789-.451zm30.417 42.457s-.225.225-.788.563c-.564.45-1.352.901-2.254 1.689-1.915 1.464-4.731 3.491-8.224 6.081-6.872 5.181-16.335 12.613-26.249 21.285-9.914 8.671-18.476 17.005-24.56 23.086a306.317 306.317 0 00-7.097 7.32c-.789.789-1.465 1.464-1.916 2.027l-.676.676s.226-.225.564-.788c.45-.563 1.126-1.239 1.802-2.027 1.577-1.802 4.056-4.392 6.985-7.433 5.971-6.194 14.533-14.64 24.447-23.312 9.914-8.671 19.377-15.991 26.362-21.172 3.493-2.59 6.309-4.617 8.337-5.968l2.366-1.577.901-.45zm-4.055 12.5s-.113.113-.338.45c-.338.338-.676.676-1.014 1.127-.901 1.013-2.253 2.365-3.943 4.054-3.38 3.378-8.224 7.883-13.744 12.613-5.52 4.73-10.815 8.784-14.646 11.712-1.915 1.464-3.492 2.59-4.619 3.266-.563.338-.901.676-1.239.901-.338.225-.451.338-.451.225 0 0 .113-.113.451-.338.338-.225.676-.563 1.239-.901 1.127-.901 2.704-2.027 4.506-3.491 3.831-2.928 8.901-7.095 14.533-11.825 5.521-4.73 10.365-9.234 13.858-12.5a157.403 157.403 0 004.055-3.942c.451-.45.789-.788 1.127-1.013 0-.225.225-.338.225-.338zm-6.084 180.862l-5.745 26.127-10.478 19.258c-.788 1.351-.225 3.153 1.24 3.829.788.338 1.69.338 2.478-.113 4.844-2.815 22.87-13.289 23.095-15.203.338-2.252 7.886-27.141 7.886-27.141l-18.476-6.757z" fill="#263238"/><path d="M204.475 488.756s-.338.338-1.014.788c-.789.564-1.69 1.127-2.817 1.915-2.478 1.689-5.745 3.829-9.35 6.306-3.605 2.365-6.872 4.618-9.351 6.307-1.127.788-2.028 1.351-2.816 1.914-.676.451-1.014.676-1.127.676 0 0 .338-.338 1.014-.788.676-.451 1.577-1.239 2.704-2.027 2.366-1.69 5.633-3.942 9.238-6.419 3.605-2.478 6.985-4.618 9.463-6.082 1.239-.788 2.253-1.351 2.929-1.802a48.92 48.92 0 011.127-.788z" fill="#455A64"/><path d="M308.685 463.755l-1.578 20.834s20.617 8.559 20.73 12.501h-40.558l1.127-34.123 20.279.788z" fill="#263238"/><path d="M326.597 495.626h-1.577c-1.126 0-2.478-.113-4.281-.113-3.605-.113-8.562-.225-13.97-.338-5.407-.112-10.364-.112-13.969 0h-4.281c-1.014 0-1.578 0-1.578-.112 0 0 .564-.113 1.578-.113 1.014-.113 2.478-.113 4.281-.225 3.605-.113 8.562-.225 13.969-.113 5.408.113 10.365.338 13.97.563 1.803.113 3.267.225 4.281.338 1.014 0 1.577.113 1.577.113z" fill="#455A64"/><path d="M217.882 254.063L182.057 475.13l32.896 1.914 50.809-222.981h-47.88zm48.444-9.685l16.561 232.666h30.869V230.751l-47.43 13.627z" fill="#F44AAF"/><path d="M302.602 462.517c-.113 0-2.704-46.061-5.633-102.932-2.93-56.871-5.183-102.932-4.957-102.932.112 0 2.703 46.061 5.633 102.932 2.929 56.871 5.182 102.932 4.957 102.932zm11.152-.001s.113 0 0 0c.113 0 .113 0 0 0 .113.113.113.113 0 0-.112.113-.112.113-.225.113-.225 0-.563.113-.901.225-.789.113-1.916.338-3.38.451-2.929.338-6.872.788-11.266 1.126-8.787.788-15.998 1.126-15.998.676h1.24c.901-.113 2.027-.113 3.379-.226 3.042-.225 6.985-.563 11.266-1.013 4.281-.338 8.224-.676 11.266-1.014 2.929-.225 4.845-.338 4.619-.338zm-76.383-203.273v.563c0 .338-.113.901-.225 1.577-.226 1.352-.451 3.379-.902 5.856-.788 5.068-1.915 12.388-3.492 21.397-3.042 18.132-7.323 43.02-12.618 70.498-5.295 27.479-10.477 52.254-14.42 70.161-1.915 9.009-3.605 16.216-4.732 21.171a291.53 291.53 0 01-1.352 5.744c-.112.676-.225 1.126-.338 1.464-.112.338-.112.45-.112.45s0-.225.112-.563c.113-.338.226-.901.338-1.464.338-1.351.676-3.266 1.24-5.743 1.126-5.068 2.591-12.275 4.506-21.172 3.83-17.906 9.013-42.682 14.195-70.16 5.295-27.479 9.689-52.367 12.73-70.498 1.578-9.01 2.817-16.33 3.606-21.397.45-2.478.788-4.505 1.013-5.856.113-.676.226-1.127.226-1.465.225-.45.225-.563.225-.563zm-19.037 203.273h-1.352c-1.014 0-2.254 0-3.605-.112-3.155-.113-7.436-.338-12.055-.451-4.619-.225-8.787-.45-12.054-.563-1.465-.112-2.704-.112-3.606-.225-.901 0-1.351 0-1.351-.113 0-.112 1.915-.225 4.957-.112 3.041 0 7.322.225 12.054.338 4.732.225 8.9.45 11.942.675 1.577.113 2.816.226 3.605.226.901.225 1.465.337 1.465.337z" fill="#263238"/><path opacity=".3" d="M216.191 264.762l.676-4.392 47.993-2.703-1.802 7.996-46.867-.901zm51.485.901l-1.352-7.996 47.43-2.365v11.374l-46.078-1.013z" fill="#000"/><path d="M220.924 90.544l33.572-7.433 28.165 1.239 24.56 7.77-13.97 70.048-53.513 4.73-18.814-76.354z" fill="#263238"/><path d="M249.426 84.35l-35.262 7.77 17.575 94.373s-15.772 38.29-17.575 73.877l52.161-2.703s3.605-46.961 2.366-64.98c-1.239-18.019-2.028-49.664-2.028-49.664L249.426 84.35z" fill="#F44AAF"/><path d="M148.596 138.406s11.942-12.163 24.447-18.694c9.238-4.843 27.263-10.812 34.361-18.582 4.619-4.955 6.759-9.122 6.759-9.122l8.337 44.483-35.375 5.631s5.295 2.928 2.028 4.955l22.194 25.902-15.322 28.717s-49.457-42.681-47.429-63.29zM282.66 84.35s7.436.9 12.618 2.59c7.548 2.478 20.166 5.18 20.166 5.18l-18.025 95.612s24.447 30.294 18.025 67.345c0 0-33.797 2.702-49.119 2.59l-.225-116.333s12.843-16.33 14.42-32.321c1.69-16.104 2.14-24.663 2.14-24.663z" fill="#F44AAF"/><path d="M315.556 92.12s20.166 20.947 31.319 28.83c11.153 7.883 25.123 19.708 25.123 26.015 0 3.716-1.352 8.333-2.366 11.487a21.876 21.876 0 01-3.379 6.419c-5.07 6.757-18.589 24.438-27.602 32.771l-22.532-23.762 21.406-23.649s-28.728-11.825-30.193-15.091c-1.352-3.153 8.224-43.02 8.224-43.02z" fill="#F44AAF"/><path d="M265.875 153.834s-.225-.112-.563-.45c-.338-.338-.789-.788-1.352-1.464a276.235 276.235 0 01-5.183-5.293c-4.393-4.617-10.477-11.037-17.574-18.357l-.113-.112v-.113c.788-3.153 1.464-6.419 2.366-9.685.338-1.464.676-2.928 1.014-4.279l.338.338h-11.492l.113-.338c2.704-8.221 5.07-15.316 6.76-20.384.788-2.478 1.464-4.392 2.027-5.856.226-.676.451-1.126.564-1.577.112-.337.225-.563.225-.563s0 .226-.113.563c-.112.45-.225.901-.45 1.577-.451 1.464-1.014 3.379-1.803 5.856-1.577 5.068-3.943 12.163-6.534 20.496l-.225-.338h11.491l-.113.338c-.338 1.464-.676 2.816-1.014 4.28a409.077 409.077 0 01-2.366 9.685l-.112-.225c6.985 7.32 12.956 13.851 17.349 18.469 2.141 2.252 3.831 4.166 5.07 5.405.563.563 1.014 1.126 1.352 1.464.225.451.338.563.338.563z" fill="#263238"/><path d="M266.325 257.667c-.112 0-.338-26.24-.45-58.673-.113-32.434 0-58.674.112-58.674.113 0 .338 26.24.451 58.674.113 32.433.113 58.673-.113 58.673zm21.743-172.529s.113.225.113.676c.113.45.225 1.126.338 1.802.338 1.689.676 4.054 1.127 6.87 1.013 5.968 2.253 14.189 3.83 23.536l.113.338h-.338c-2.028-.225-4.056-.563-6.197-.788l.338-.451c.451.789.789 1.69 1.24 2.59.901 1.802 1.689 3.492 2.478 5.068l.113.113-.113.112c-6.534 8.109-12.28 15.316-16.448 20.497-2.028 2.477-3.718 4.617-4.957 6.081-.563.676-1.014 1.239-1.352 1.577-.338.337-.451.563-.451.563s.113-.226.451-.563c.338-.451.789-1.014 1.239-1.69 1.127-1.464 2.817-3.603 4.732-6.194 4.168-5.293 9.801-12.5 16.223-20.608v.337c-.789-1.689-1.69-3.378-2.479-5.067-.45-.901-.901-1.802-1.239-2.59l-.225-.451.563.113c2.141.338 4.281.563 6.196.901l-.338.337c-1.464-9.459-2.704-17.68-3.605-23.649-.45-2.928-.788-5.293-1.014-6.87-.112-.788-.225-1.351-.225-1.914-.113-.45-.113-.676-.113-.676zm-26.587 134.464c-1.239-1.464-3.493-2.252-4.619-.788-1.127.901-1.577 2.59-1.127 3.942.676 1.802 3.042 2.59 4.732 1.689 1.69-.901 2.14-3.379 1.014-4.843zm.562-30.406c-1.239-1.464-3.492-2.252-4.619-.788-1.126.901-1.577 2.59-1.126 3.941.676 1.802 3.041 2.59 4.731 1.689 1.69-.9 2.254-3.378 1.014-4.842zm80.44-2.478c-1.239-1.464-3.493-2.252-4.619-.788-1.127.901-1.577 2.59-1.127 3.942.676 1.802 3.042 2.59 4.732 1.689 1.69-.901 2.253-3.379 1.014-4.843zm-146.684 2.816c-1.239-1.464-3.492-2.252-4.619-.788-1.126.9-1.577 2.59-1.126 3.941.675 1.802 3.041 2.59 4.731 1.689 1.69-.901 2.253-3.378 1.014-4.842zm-6.421-42.006c-.112.225-3.717-2.14-8.9-2.478-5.182-.45-9.125 1.126-9.238.901 0-.112.902-.563 2.591-1.013a19.728 19.728 0 016.647-.563c2.591.225 4.957 1.013 6.534 1.689 1.578.788 2.366 1.351 2.366 1.464zm-18.138-5.406c0-.112.789-.563 2.253-1.013 1.465-.451 3.606-.901 5.971-.789 2.366 0 4.507.451 5.971.901 1.465.451 2.253.901 2.253 1.014 0 .225-3.605-1.352-8.224-1.352s-8.111 1.464-8.224 1.239zm52.273.225s-.225-.675-.45-1.914c-.338-1.352-.676-3.041-1.127-5.18-1.014-4.393-2.478-10.361-4.056-17.006-1.577-6.644-2.816-12.725-3.492-17.117-.338-2.253-.563-4.054-.676-5.293-.113-1.24-.225-1.915-.113-1.915 0 0 .226.676.338 1.915.226 1.239.564 3.04.902 5.18.788 4.392 2.14 10.361 3.717 17.005 1.578 6.645 3.042 12.613 3.831 17.005.45 2.14.788 3.942 1.014 5.181.112 1.351.112 2.139.112 2.139zm90.805-48.087s0 .676-.225 2.027c-.226 1.352-.564 3.153-.902 5.406-.788 4.617-1.802 10.811-2.929 17.681-1.126 6.869-2.253 13.176-3.042 17.68-.45 2.253-.788 4.055-1.014 5.293-.225 1.239-.45 1.915-.45 1.915s0-.676.225-2.027c.226-1.352.563-3.153.901-5.406.789-4.617 1.803-10.811 2.93-17.681 1.126-6.869 2.253-13.176 3.041-17.68a303.77 303.77 0 001.014-5.293c.226-1.24.338-1.915.451-1.915zm38.415 44.371c0 .113-1.239 0-3.267.113-1.915.112-4.844.563-7.097 2.477-2.253 2.027-3.267 4.618-3.943 6.532-.676 1.915-1.014 3.041-1.127 3.041-.113 0 .113-1.239.789-3.154.563-1.914 1.577-4.729 3.943-6.757 1.239-1.013 2.591-1.689 3.943-2.027a14.83 14.83 0 013.492-.45c1.014 0 1.803.112 2.366.112.563 0 .901.113.901.113z" fill="#263238"/><path d="M358.029 143.924c0 .113-1.239 0-3.267.113-2.028.112-4.731.563-7.548 1.464-2.816 1.013-5.295 2.252-6.985 3.378-1.69 1.126-2.591 1.915-2.704 1.802 0 0 .226-.225.564-.676.45-.45 1.014-.901 1.802-1.464 1.577-1.238 4.056-2.59 6.985-3.603 2.929-1.014 5.746-1.352 7.774-1.352 1.013 0 1.802 0 2.365.113.789.112 1.014.225 1.014.225zm-117.841 45.272c-.113.112-1.69-.563-3.83-1.352-2.028-.788-3.831-1.351-3.718-1.464 0-.112 1.802.113 3.943.901 2.14.789 3.718 1.802 3.605 1.915zm1.464-11.262c.112.113-2.591 1.915-5.521 4.505-2.929 2.59-5.182 4.842-5.294 4.73-.113-.113 1.915-2.59 4.844-5.181 3.042-2.59 5.858-4.279 5.971-4.054zm73.905 77.143c0 .112-22.644 1.464-50.696 2.928s-50.697 2.59-50.697 2.365c0-.113 22.645-1.464 50.697-2.928 27.939-1.464 50.696-2.591 50.696-2.365z" fill="#263238"/><path opacity=".3" d="M336.398 149.668c-1.464-4.28.225-9.46 3.943-12.05.789-.564 1.803-1.014 2.704-.789 1.014.225 1.803 1.239 1.352 2.14-.225.563-.901.901-1.352 1.239-1.69 1.126-2.929 2.928-3.718 4.842-.788 1.915-1.126 3.942-1.464 5.969m-104.209-36.826c.226.563 4.281 1.014 4.957 2.703.789 1.689.451 3.604.113 5.406-.451 1.801-1.014 3.603-.789 5.405.338 3.266 3.042 5.744 5.521 7.883 6.985 5.969 15.434 12.388 22.419 18.357-6.309-7.433-14.421-14.978-21.293-21.848-1.014-1.013-2.028-2.027-2.591-3.378-.563-1.689-.113-3.604.338-5.293.563-2.365 1.239-4.617 1.803-6.982.112-.564.45-1.577.563-1.915 0 0-1.915-.338-2.479-.225 0-.113-5.971-.563-8.562-.113z" fill="#000"/><path d="M194.898 192.237s.113-.338.338-.901c.226-.563.676-1.352 1.24-2.365 1.126-2.027 2.703-4.73 4.844-7.433 2.141-2.815 4.168-5.068 5.858-6.757.789-.788 1.465-1.464 1.915-1.802.451-.45.789-.676.789-.563.113.113-.901 1.014-2.478 2.703a84.308 84.308 0 00-5.633 6.757c-2.028 2.815-3.718 5.405-4.957 7.32-1.127 1.802-1.803 3.041-1.916 3.041zm8.338-27.929c.112.112-1.24 1.351-3.155 3.491-1.915 2.139-4.506 5.293-6.872 9.009-2.366 3.716-4.169 7.32-5.295 10.023-1.127 2.703-1.69 4.392-1.803 4.392 0 0 .113-.45.338-1.239.226-.788.564-1.914 1.127-3.266 1.014-2.702 2.816-6.419 5.182-10.135 2.366-3.717 4.957-6.87 6.985-9.009 1.014-1.014 1.915-1.915 2.479-2.365.676-.676 1.014-.901 1.014-.901zm145.217 22.748l-.902-.901c-.676-.675-1.464-1.576-2.366-2.59-2.027-2.14-4.731-5.18-7.998-8.333-3.155-3.154-6.197-5.969-8.337-7.996-1.014-.901-1.915-1.69-2.591-2.365l-.902-.901s.451.225 1.014.676c.676.45 1.578 1.238 2.704 2.252 2.253 1.914 5.295 4.617 8.45 7.883 3.154 3.153 5.971 6.194 7.886 8.446 1.014 1.126 1.69 2.027 2.253 2.703.563.788.789 1.126.789 1.126z" fill="#263238"/><path d="M208.08 178.948l7.436 3.941 16.335 4.618s-3.38 22.41-5.52 24.325c-2.141 1.914-26.024-18.244-26.024-18.244l7.773-14.64zm111.533-1.352l-5.295 4.167-15.322 7.32s7.098 21.51 9.463 23.087c2.366 1.576 22.645-22.298 22.645-22.298l-11.491-12.276z" fill="#FFBE9D"/><path d="M244.019 16.104c-.226 5.744-7.886 9.235-7.774 14.978 0 2.478 1.578 4.73 1.916 7.095.45 3.266-1.465 6.42-2.141 9.685-1.352 6.757 2.478 13.74 8.337 17.456 5.745 3.716 13.068 4.392 19.828 3.49m26.249-54.168c-.226 3.04 1.802 5.856 3.83 8.221s4.394 4.73 4.844 7.77c.789 5.406-4.506 10.474-3.492 15.88.563 2.928 2.929 5.18 3.38 8.108.45 2.815-1.127 5.63-2.929 7.77-1.916 2.14-4.056 1.802-5.746 4.167-1.69 2.478-4.506 4.956-7.21 6.42-5.971 3.265-13.181-1.465-15.998-2.365" fill="#263238"/><path d="M242.892 19.37c-.113-2.815 2.479-4.955 5.182-5.969 2.592-1.013 5.521-1.464 7.887-2.928 2.027-1.351 3.492-3.603 5.182-5.293C265.424.788 272.071-.9 278.042.676c5.971 1.576 10.702 6.531 12.167 12.5 1.014 3.942.338 8.672-2.817 11.374-3.605 3.041-9.125 2.365-13.744 1.464-4.732-1.013-10.027-1.914-13.857.901-2.366 1.69-3.718 4.392-5.182 6.87-1.465 2.478-3.267 5.068-5.971 5.969-2.704.9-6.422-.676-6.534-3.604" fill="#263238"/><path d="M253.933 19.933c-2.478.225-4.281 2.365-4.168 4.73l2.816 63.403c.113 7.433 11.041 11.712 19.04 11.487 8.111-.225 8.336-4.167 8.449-11.262.225-11.937.113-16.329.113-16.329s10.252-1.69 12.28-15.09c1.013-6.645.675-17.569.112-26.465-.563-7.996-5.858-17.794-13.857-17.006l-24.785 6.532z" fill="#FFBE9D"/><path d="M288.408 38.177c0 .9-.676 1.69-1.689 1.69-.902 0-1.69-.676-1.803-1.577 0-.901.676-1.69 1.69-1.69 1.014 0 1.802.676 1.802 1.577zm1.915-1.914c-.225.225-1.465-.789-3.38-.676-1.802 0-3.154.9-3.38.675-.112-.112.113-.45.676-.9.564-.45 1.578-.901 2.704-.789 1.127 0 2.141.45 2.704.901.563.226.789.676.676.789zm-19.715 1.914c0 .901-.676 1.69-1.69 1.69-.902 0-1.69-.676-1.803-1.577 0-.901.676-1.69 1.69-1.69.901 0 1.69.676 1.803 1.577z" fill="#263238"/><path d="M272.184 36.6c-.225.226-1.464-.788-3.38-.675-1.802 0-3.154.9-3.379.675-.113-.112.112-.45.676-.9a3.88 3.88 0 012.703-.789c1.127 0 2.141.45 2.704.901.676.338.789.676.676.788zm6.76 13.627c0-.113 1.127-.338 3.042-.563.451 0 .901-.113 1.014-.45.113-.338-.113-.901-.338-1.352-.451-1.126-.901-2.365-1.352-3.604-1.915-5.068-3.38-9.234-3.154-9.347.225-.113 1.915 3.942 3.943 9.122.45 1.239.901 2.478 1.352 3.604.225.563.45 1.126.225 1.802-.113.337-.451.563-.789.675-.338.113-.563.113-.788.113-2.028.113-3.155.113-3.155 0z" fill="#263238"/><path d="M280.296 72.075s-9.013.563-17.913-4.73c.112 0 4.957 9.234 17.687 7.883l.226-3.153z" fill="#EB996E"/><path d="M278.155 54.732c-.676-.901-1.803-1.352-2.929-1.24-.789.114-1.578.451-2.141 1.127-.451.676-.563 1.577-.113 2.14.451.675 1.578.9 2.366.563.902-.225 1.69-.789 2.366-1.464.225-.113.451-.338.563-.563.113 0 .113-.338-.112-.563z" fill="#E8505B"/><path d="M273.535 51.578c.338 0 .338 2.027 2.028 3.379 1.69 1.464 3.83 1.239 3.83 1.464 0 .112-.45.338-1.351.45a5.204 5.204 0 01-3.268-1.126c-1.013-.9-1.464-2.027-1.577-2.815 0-.901.226-1.352.338-1.352zm-.45-18.131c-.226.45-2.028.225-4.169.563-2.14.225-3.943.901-4.168.45-.113-.225.225-.675.901-1.126.676-.45 1.803-.9 3.155-1.126a9.073 9.073 0 013.267.338c.676.225 1.014.676 1.014.901zm16.561-2.477c-.338.45-1.578 0-3.155 0-1.577-.113-2.816.337-3.154-.113-.113-.225.112-.676.676-1.014.563-.45 1.464-.675 2.478-.675 1.014 0 1.915.45 2.479.788.676.338.788.788.676 1.014z" fill="#263238"/><path d="M248.299 64.642c3.718.788 3.943-1.126 6.76-3.716 2.704-2.59 4.168-6.42 3.718-10.136-.451-3.266-2.141-6.644-1.014-9.685 1.464-4.054 7.21-5.405 8.787-9.46.901-2.365.113-5.18 1.127-7.545.901-2.14 3.267-3.491 5.52-4.28 2.253-.788 4.619-1.35 6.534-2.815 1.915-1.464 3.042-4.28 1.803-6.306-9.914 1.238-19.828 3.603-29.179 7.095-2.141.788-4.506 1.801-5.746 3.716-1.352 2.027-1.352 4.73-1.126 7.207.563 11.938 1.126 23.988 1.69 35.925m-7.211-27.253c-.45-4.392-4.055-8.334-8.336-9.122-4.394-.789-9.126 1.576-11.041 5.518-1.802 3.716-1.239 8.334.563 12.163 2.028 4.504 6.309 8.671 11.266 8.446 4.732-.225 8.45-4.28 9.802-8.784 1.352-4.505.788-9.347.225-13.965" fill="#263238"/><path d="M237.258 55.633s-.338-.226-.676-.789a7.97 7.97 0 01-1.014-2.703c-.225-1.238-.113-2.702.113-4.166.225-1.577.788-3.266 1.239-4.955.338-1.69.563-3.492.338-4.956-.225-1.464-1.014-2.702-1.239-3.941-.338-1.126-.338-2.252-.113-2.816.225-.675.451-.9.563-.9 0 0-.225.337-.338 1.013-.112.676-.112 1.577.226 2.703s1.126 2.365 1.464 3.941c.338 1.577.113 3.379-.225 5.18-.451 1.803-.901 3.38-1.239 4.956-.338 1.464-.338 2.928-.226 4.054.113 2.253 1.24 3.379 1.127 3.379z" fill="#455A64"/><path d="M237.146 39.641s-.563 1.014-2.028 2.027c-1.464 1.014-3.83 2.14-6.534 2.14-2.816 0-5.182-.901-6.647-1.915-1.464-1.013-2.14-1.914-2.14-1.914.113-.113.788.676 2.366 1.577 1.464.9 3.83 1.689 6.421 1.689s4.845-1.014 6.309-1.915c1.352-.9 2.141-1.689 2.253-1.689zm-.676 2.139c.113 0-.225.902-1.126 2.14-.902 1.24-2.254 2.703-4.281 3.83-1.916 1.126-3.944 1.801-5.408 1.914-1.465.225-2.366.112-2.366 0 0-.113.901-.113 2.366-.45 1.352-.338 3.267-.901 5.182-2.028 1.915-1.126 3.267-2.477 4.281-3.603.789-1.127 1.24-1.915 1.352-1.802zm3.38 18.357s-.113 0-.113-.112c-.113-.113-.225-.338-.338-.563-.338-.45-.676-1.24-.901-2.365-.226-1.014-.226-2.478.225-3.942s1.464-3.04 3.154-4.167c1.578-1.126 3.605-1.914 4.957-3.716.676-.901.902-2.027.676-3.153-.225-1.127-.676-2.253-1.126-3.492-1.014-2.364-1.014-5.405.225-7.995.563-1.24 1.465-2.478 2.704-3.379 1.239-.9 2.704-1.351 4.056-1.689 1.464-.338 2.929-.563 4.281-.901 1.352-.45 2.591-1.014 3.492-1.914.901-.901 1.352-2.253 1.577-3.491.226-1.24.226-2.59.676-3.83.676-2.477 1.915-4.73 3.605-6.306a11.145 11.145 0 015.633-2.815c1.915-.338 3.831.112 5.183.788 1.352.676 2.365 1.69 2.929 2.59.676.901.901 1.69 1.014 2.252.112.564.112.901.112.901-.112 0-.112-1.238-1.352-3.04-.676-.789-1.577-1.802-2.929-2.478-1.352-.676-3.042-1.013-4.957-.676-1.802.338-3.83 1.24-5.407 2.703-1.578 1.577-2.817 3.716-3.38 6.082-.338 1.238-.451 2.477-.563 3.829-.226 1.35-.564 2.815-1.69 3.828-1.014 1.014-2.366 1.69-3.831 2.14-1.352.45-2.816.563-4.281.901-1.352.338-2.816.788-3.83 1.577-1.127.788-1.915 1.914-2.479 3.153a9.767 9.767 0 00-.225 7.545c.451 1.126 1.014 2.365 1.127 3.604.225 1.239-.113 2.59-.789 3.491-1.465 1.915-3.605 2.703-5.07 3.717-1.577 1.013-2.591 2.477-3.041 3.941a9.442 9.442 0 00-.338 3.829c.112 2.252 1.014 3.153 1.014 3.153z" fill="#455A64"/><path d="M240.638 22.861s-.113-.225-.113-.563c0-.45 0-1.126.451-1.802.451-.675 1.127-1.464 2.253-1.802 1.127-.45 2.479-.45 3.831-.112 1.352.225 2.816.788 4.393 1.126 1.578.338 3.38.338 4.845-.788 1.464-1.127 2.14-2.928 2.816-4.843a19.013 19.013 0 013.042-5.518c2.704-3.379 6.421-5.744 10.139-6.532 1.803-.45 3.718-.338 5.295.113 1.577.45 2.929 1.464 3.943 2.477.902 1.126 1.352 2.365 1.465 3.491.112 1.127-.113 2.14-.451 2.816-.338.788-.676 1.239-1.014 1.577l-.45.45c-.113 0 .676-.563 1.239-2.027.225-.676.451-1.69.338-2.703-.113-1.126-.563-2.252-1.465-3.266-.901-1.013-2.14-1.914-3.717-2.365-1.465-.338-3.268-.338-5.07 0-3.493.789-7.098 3.04-9.801 6.42-1.352 1.689-2.254 3.49-3.042 5.292-.789 1.802-1.465 3.83-3.042 5.068a5.69 5.69 0 01-2.591 1.014c-.901.112-1.803 0-2.591-.226-1.69-.338-3.042-.9-4.394-1.238-1.352-.338-2.591-.338-3.605 0-1.014.337-1.69 1.013-2.141 1.689-.45.676-.563 1.239-.563 1.69 0 .337.113.562 0 .562z" fill="#455A64"/></g><defs><clipPath id="clip0_304_759"><path fill="#fff" d="M0 0h372v507H0z"/></clipPath></defs></svg>